<mxfile host="app.diagrams.net" agent="Mozilla/5.0 (Windows NT 10.0; Win64; x64) AppleWebKit/537.36 (KHTML, like Gecko) Chrome/131.0.0.0 Safari/537.36" version="24.8.9">
  <diagram name="ページ1" id="XtOh1TpfuA6Q-Q_bS2Gs">
    <mxGraphModel dx="732" dy="520" grid="1" gridSize="10" guides="1" tooltips="1" connect="1" arrows="1" fold="1" page="1" pageScale="1" pageWidth="1169" pageHeight="827" background="none" math="0" shadow="0">
      <root>
        <mxCell id="0" />
        <mxCell id="1" parent="0" />
        <mxCell id="MO61QK-5C1BGWu0sTS1N-5" style="edgeStyle=orthogonalEdgeStyle;rounded=0;orthogonalLoop=1;jettySize=auto;html=1;entryX=1;entryY=0.75;entryDx=0;entryDy=0;endArrow=none;endFill=0;labelBackgroundColor=none;strokeColor=#457B9D;fontColor=default;" edge="1" parent="1" source="MO61QK-5C1BGWu0sTS1N-1" target="MO61QK-5C1BGWu0sTS1N-2">
          <mxGeometry relative="1" as="geometry">
            <Array as="points">
              <mxPoint x="380" y="170" />
              <mxPoint x="380" y="105" />
            </Array>
          </mxGeometry>
        </mxCell>
        <mxCell id="MO61QK-5C1BGWu0sTS1N-6" style="edgeStyle=orthogonalEdgeStyle;rounded=0;orthogonalLoop=1;jettySize=auto;html=1;entryX=0;entryY=0.75;entryDx=0;entryDy=0;endArrow=none;endFill=0;labelBackgroundColor=none;strokeColor=#457B9D;fontColor=default;" edge="1" parent="1" source="MO61QK-5C1BGWu0sTS1N-1" target="MO61QK-5C1BGWu0sTS1N-2">
          <mxGeometry relative="1" as="geometry">
            <Array as="points">
              <mxPoint x="250" y="170" />
              <mxPoint x="250" y="105" />
            </Array>
          </mxGeometry>
        </mxCell>
        <mxCell id="MO61QK-5C1BGWu0sTS1N-31" style="edgeStyle=orthogonalEdgeStyle;rounded=0;orthogonalLoop=1;jettySize=auto;html=1;entryX=0.5;entryY=0;entryDx=0;entryDy=0;endArrow=none;endFill=0;labelBackgroundColor=none;strokeColor=#457B9D;fontColor=default;" edge="1" parent="1" source="MO61QK-5C1BGWu0sTS1N-1" target="MO61QK-5C1BGWu0sTS1N-27">
          <mxGeometry relative="1" as="geometry" />
        </mxCell>
        <mxCell id="MO61QK-5C1BGWu0sTS1N-1" value="" style="shape=image;verticalLabelPosition=bottom;labelBackgroundColor=none;verticalAlign=top;aspect=fixed;imageAspect=0;image=data:image/svg+xml,PHN2ZyB4bWxucz0iaHR0cDovL3d3dy53My5vcmcvMjAwMC9zdmciIHZlcnNpb249IjEuMSIgaWQ9InN2ZzIiIHhtbDpzcGFjZT0icHJlc2VydmUiIHdpZHRoPSI0OS41NDY2NjUiIGhlaWdodD0iMzMuNTczMzM0IiB2aWV3Qm94PSIwIDAgNDkuNTQ2NjY1IDMzLjU3MzMzNCI+PG1ldGFkYXRhIGlkPSJtZXRhZGF0YTgiPmltYWdlL3N2Zyt4bWw8L21ldGFkYXRhPjxkZWZzIGlkPSJkZWZzNiI+PGNsaXBQYXRoIGNsaXBQYXRoVW5pdHM9InVzZXJTcGFjZU9uVXNlIiBpZD0iY2xpcFBhdGgyMCI+PHBhdGggZD0ibSAwLDEuNzk2ODggaCAzNzAgdiAyNTAgSCAwIFoiIGlkPSJwYXRoMTgiLz48L2NsaXBQYXRoPjwvZGVmcz48ZyBpZD0iZzEwIiB0cmFuc2Zvcm09Im1hdHJpeCgxLjMzMzMzMzMsMCwwLC0xLjMzMzMzMzMsMCwzMy41NzMzMzMpIj48ZyBpZD0iZzEyIiB0cmFuc2Zvcm09InNjYWxlKDAuMSkiPjxnIGlkPSJnMTQiPjxnIGlkPSJnMTYiIGNsaXAtcGF0aD0idXJsKCNjbGlwUGF0aDIwKSI+PHBhdGggZD0ibSAzNjkuODU1LDE3OC4yODEgYyAwLC0zOS41MDQgLTgyLjM0MywtNzEuNTIzIC0xODMuOTI1LC03MS41MjMgQyA4NC4zNDc3LDEwNi43NTggMiwxMzguNzc3IDIsMTc4LjI4MSBWIDczLjUxNTYgYyAwLC0zOS41IDgyLjM0NzcsLTcxLjUyMzQxIDE4My45MywtNzEuNTIzNDEgMTAxLjU4MiwwIDE4My45MjUsMzIuMDIzNDEgMTgzLjkyNSw3MS41MjM0MSBWIDE3OC4yODEiIHN0eWxlPSJmaWxsOiMwMjZjOWI7ZmlsbC1vcGFjaXR5OjE7ZmlsbC1ydWxlOm5vbnplcm87c3Ryb2tlOm5vbmUiIGlkPSJwYXRoMjIiLz48cGF0aCBkPSJtIDM2OS44NTUsMTc4LjI4MSBjIDAsLTM5LjUwNCAtODIuMzQzLC03MS41MjMgLTE4My45MjUsLTcxLjUyMyBDIDg0LjM0NzcsMTA2Ljc1OCAyLDEzOC43NzcgMiwxNzguMjgxIFYgNzMuNTE1NiBjIDAsLTM5LjUgODIuMzQ3NywtNzEuNTIzNDEgMTgzLjkzLC03MS41MjM0MSAxMDEuNTgyLDAgMTgzLjkyNSwzMi4wMjM0MSAxODMuOTI1LDcxLjUyMzQxIHoiIHN0eWxlPSJmaWxsOm5vbmU7c3Ryb2tlOiNmZmZmZmY7c3Ryb2tlLXdpZHRoOjQ7c3Ryb2tlLWxpbmVjYXA6YnV0dDtzdHJva2UtbGluZWpvaW46bWl0ZXI7c3Ryb2tlLW1pdGVybGltaXQ6NDtzdHJva2UtZGFzaGFycmF5Om5vbmU7c3Ryb2tlLW9wYWNpdHk6MSIgaWQ9InBhdGgyNCIvPjxwYXRoIGQ9Im0gMTg1LjkzLDEwNi43NTggYyAxMDEuNTgyLDAgMTgzLjkyNSwzMi4wMTkgMTgzLjkyNSw3MS41MjMgMCwzOS41MTIgLTgyLjM0Myw3MS41MjQgLTE4My45MjUsNzEuNTI0IEMgODQuMzQ3NywyNDkuODA1IDIsMjE3Ljc5MyAyLDE3OC4yODEgMiwxMzguNzc3IDg0LjM0NzcsMTA2Ljc1OCAxODUuOTMsMTA2Ljc1OCIgc3R5bGU9ImZpbGw6IzAyNmM5YjtmaWxsLW9wYWNpdHk6MTtmaWxsLXJ1bGU6bm9uemVybztzdHJva2U6bm9uZSIgaWQ9InBhdGgyNiIvPjxwYXRoIGQ9Im0gMTg1LjkzLDEwNi43NTggYyAxMDEuNTgyLDAgMTgzLjkyNSwzMi4wMTkgMTgzLjkyNSw3MS41MjMgMCwzOS41MTIgLTgyLjM0Myw3MS41MjQgLTE4My45MjUsNzEuNTI0IEMgODQuMzQ3NywyNDkuODA1IDIsMjE3Ljc5MyAyLDE3OC4yODEgMiwxMzguNzc3IDg0LjM0NzcsMTA2Ljc1OCAxODUuOTMsMTA2Ljc1OCBaIiBzdHlsZT0iZmlsbDpub25lO3N0cm9rZTojZmZmZmZmO3N0cm9rZS13aWR0aDo0O3N0cm9rZS1saW5lY2FwOmJ1dHQ7c3Ryb2tlLWxpbmVqb2luOm1pdGVyO3N0cm9rZS1taXRlcmxpbWl0OjQ7c3Ryb2tlLWRhc2hhcnJheTpub25lO3N0cm9rZS1vcGFjaXR5OjEiIGlkPSJwYXRoMjgiLz48cGF0aCBkPSJtIDE0My45MjYsMjA2LjI1IDE1LjE4MywtMjIuNzgxIC01Ny40MjEsLTEzLjI3NCAxMi41NSwxMC40NSAtODguNzQ5NywxNS4xNjggMjIuMjY1NiwxNi42ODcgODUuNjM3MSwtMTQuNSAxMC41MzUsOC4yNSIgc3R5bGU9ImZpbGw6I2ZmZmZmZjtmaWxsLW9wYWNpdHk6MTtmaWxsLXJ1bGU6bm9uemVybztzdHJva2U6bm9uZSIgaWQ9InBhdGgzMCIvPjxwYXRoIGQ9Im0gMjI0LjcyNywxNTEuMDA4IC0xMC4zNjQsMjMuNDg0IDUxLjc5NywxMC4zNTIgLTguOTgsLTguMDQ3IDg2LjMyOCwtMTQuNzQ2IC0yMC43MTUsLTE2LjU3MSAtODUuODEzLDE2LjExNCAtMTIuMjUzLC0xMC41ODYiIHN0eWxlPSJmaWxsOiNmZmZmZmY7ZmlsbC1vcGFjaXR5OjE7ZmlsbC1ydWxlOm5vbnplcm87c3Ryb2tlOm5vbmUiIGlkPSJwYXRoMzIiLz48cGF0aCBkPSJtIDE5Ni40MDYsMjE4LjY5MSA1OC4wMiwxNS44NzkgMC42NzksLTI0Ljg2MyAtMTQuNSwyLjc2NiAtMjguMzA4LC0yMy40ODkgLTI3LjAyNCwzLjk0NiAyOS4yMzEsMjIuOTY4IC0xOC4wOTgsMi43OTMiIHN0eWxlPSJmaWxsOiNmZmZmZmY7ZmlsbC1vcGFjaXR5OjE7ZmlsbC1ydWxlOm5vbnplcm87c3Ryb2tlOm5vbmUiIGlkPSJwYXRoMzQiLz48cGF0aCBkPSJtIDE3MS41NDMsMTI5LjU5IC01NS4yNDIsLTEwLjM1MiAtMi4wNzEsMjUuNTQ3IDE1Ljg3NSwtMy40NDUgMzAuNDE1LDI1Ljk2NSAyNi45MTQsLTQuNTUxIC0zMi40NjEsLTI4LjMyIDE2LjU3LC00Ljg0NCIgc3R5bGU9ImZpbGw6I2ZmZmZmZjtmaWxsLW9wYWNpdHk6MTtmaWxsLXJ1bGU6bm9uemVybztzdHJva2U6bm9uZSIgaWQ9InBhdGgzNiIvPjwvZz48L2c+PC9nPjwvZz48L3N2Zz4=;fillColor=#A8DADC;strokeColor=#457B9D;fontColor=#1D3557;" vertex="1" parent="1">
          <mxGeometry x="287.5" y="150" width="50" height="34" as="geometry" />
        </mxCell>
        <mxCell id="MO61QK-5C1BGWu0sTS1N-9" style="edgeStyle=orthogonalEdgeStyle;rounded=0;orthogonalLoop=1;jettySize=auto;html=1;entryX=0;entryY=0.5;entryDx=0;entryDy=0;endArrow=none;endFill=0;exitX=1;exitY=0.25;exitDx=0;exitDy=0;labelBackgroundColor=none;strokeColor=#457B9D;fontColor=default;" edge="1" parent="1" source="MO61QK-5C1BGWu0sTS1N-2" target="MO61QK-5C1BGWu0sTS1N-8">
          <mxGeometry relative="1" as="geometry">
            <Array as="points">
              <mxPoint x="410" y="88" />
              <mxPoint x="410" y="40" />
            </Array>
          </mxGeometry>
        </mxCell>
        <mxCell id="MO61QK-5C1BGWu0sTS1N-10" style="edgeStyle=orthogonalEdgeStyle;rounded=0;orthogonalLoop=1;jettySize=auto;html=1;entryX=0;entryY=0.5;entryDx=0;entryDy=0;endArrow=none;endFill=0;exitX=1;exitY=0.5;exitDx=0;exitDy=0;labelBackgroundColor=none;strokeColor=#457B9D;fontColor=default;" edge="1" parent="1" source="MO61QK-5C1BGWu0sTS1N-2" target="MO61QK-5C1BGWu0sTS1N-7">
          <mxGeometry relative="1" as="geometry">
            <Array as="points">
              <mxPoint x="410" y="97" />
              <mxPoint x="410" y="150" />
            </Array>
          </mxGeometry>
        </mxCell>
        <mxCell id="MO61QK-5C1BGWu0sTS1N-13" style="edgeStyle=orthogonalEdgeStyle;rounded=0;orthogonalLoop=1;jettySize=auto;html=1;entryX=1;entryY=0.5;entryDx=0;entryDy=0;endArrow=none;endFill=0;exitX=0;exitY=0.25;exitDx=0;exitDy=0;labelBackgroundColor=none;strokeColor=#457B9D;fontColor=default;" edge="1" parent="1" source="MO61QK-5C1BGWu0sTS1N-2" target="MO61QK-5C1BGWu0sTS1N-12">
          <mxGeometry relative="1" as="geometry">
            <Array as="points">
              <mxPoint x="220" y="88" />
              <mxPoint x="220" y="40" />
            </Array>
          </mxGeometry>
        </mxCell>
        <mxCell id="MO61QK-5C1BGWu0sTS1N-14" style="edgeStyle=orthogonalEdgeStyle;rounded=0;orthogonalLoop=1;jettySize=auto;html=1;entryX=1;entryY=0.5;entryDx=0;entryDy=0;endArrow=none;endFill=0;exitX=0;exitY=0.5;exitDx=0;exitDy=0;labelBackgroundColor=none;strokeColor=#457B9D;fontColor=default;" edge="1" parent="1" source="MO61QK-5C1BGWu0sTS1N-2" target="MO61QK-5C1BGWu0sTS1N-11">
          <mxGeometry relative="1" as="geometry">
            <Array as="points">
              <mxPoint x="220" y="97" />
              <mxPoint x="220" y="150" />
            </Array>
          </mxGeometry>
        </mxCell>
        <mxCell id="MO61QK-5C1BGWu0sTS1N-2" value="" style="shape=image;verticalLabelPosition=bottom;labelBackgroundColor=none;verticalAlign=top;aspect=fixed;imageAspect=0;image=data:image/svg+xml,PHN2ZyB4bWxucz0iaHR0cDovL3d3dy53My5vcmcvMjAwMC9zdmciIHZlcnNpb249IjEuMSIgaWQ9InN2ZzIiIHhtbDpzcGFjZT0icHJlc2VydmUiIHdpZHRoPSI2NS4wODAwMDIiIGhlaWdodD0iMzIuNzQ2NjY2IiB2aWV3Qm94PSIwIDAgNjUuMDgwMDAyIDMyLjc0NjY2NiI+PG1ldGFkYXRhIGlkPSJtZXRhZGF0YTgiPmltYWdlL3N2Zyt4bWw8L21ldGFkYXRhPjxkZWZzIGlkPSJkZWZzNiIvPjxnIGlkPSJnMTAiIHRyYW5zZm9ybT0ibWF0cml4KDEuMzMzMzMzMywwLDAsLTEuMzMzMzMzMywwLDMyLjc0NjY2NykiPjxnIGlkPSJnMTIiIHRyYW5zZm9ybT0ic2NhbGUoMC4xKSI+PHBhdGggZD0ibSA2LjU4MjAzLDguNzU3ODEgaCAzNTcuMTg0IHYgMTE1Ljk1NyBIIDYuNTgyMDMgWiIgc3R5bGU9ImZpbGw6IzAzNjk5ODtmaWxsLW9wYWNpdHk6MTtmaWxsLXJ1bGU6bm9uemVybztzdHJva2U6bm9uZSIgaWQ9InBhdGgxNCIvPjxwYXRoIGQ9Ik0gMzYzLjc2Niw4Ljc1NzgxIFYgMTI0LjcxNSBIIDYuNTgyMDMgViA4Ljc1NzgxIFoiIHN0eWxlPSJmaWxsOm5vbmU7c3Ryb2tlOiNmZmZmZmY7c3Ryb2tlLXdpZHRoOjMuOTk5OTM5OTI7c3Ryb2tlLWxpbmVjYXA6YnV0dDtzdHJva2UtbGluZWpvaW46bWl0ZXI7c3Ryb2tlLW1pdGVybGltaXQ6NDtzdHJva2UtZGFzaGFycmF5Om5vbmU7c3Ryb2tlLW9wYWNpdHk6MSIgaWQ9InBhdGgxNiIvPjxwYXRoIGQ9Ik0gNS42NDQ1MywxMjQuMTMzIDE0OS45MjIsMjQxLjA2MyBIIDQ4My4yMTkgTCAzNjMuNDM0LDEyNC4xMzMgSCA1LjY0NDUzIiBzdHlsZT0iZmlsbDojMDM2OTk4O2ZpbGwtb3BhY2l0eToxO2ZpbGwtcnVsZTpub256ZXJvO3N0cm9rZTpub25lIiBpZD0icGF0aDE4Ii8+PHBhdGggZD0iTSA1LjY0NDUzLDEyNC4xMzMgMTQ5LjkyMiwyNDEuMDYzIEggNDgzLjIxOSBMIDM2My40MzQsMTI0LjEzMyBaIiBzdHlsZT0iZmlsbDpub25lO3N0cm9rZTojZmZmZmZmO3N0cm9rZS13aWR0aDozLjk5OTkzOTkyO3N0cm9rZS1saW5lY2FwOmJ1dHQ7c3Ryb2tlLWxpbmVqb2luOm1pdGVyO3N0cm9rZS1taXRlcmxpbWl0OjQ7c3Ryb2tlLWRhc2hhcnJheTpub25lO3N0cm9rZS1vcGFjaXR5OjEiIGlkPSJwYXRoMjAiLz48cGF0aCBkPSJNIDM2My41Nyw1LjEwNTQ3IDQ4Mi44ODcsMTM0LjAyMyA0ODIuOTY1LDI0MC44NTkgMzYzLjU3LDEyNC4yOTcgViA1LjEwNTQ3IiBzdHlsZT0iZmlsbDojMDM2OTk4O2ZpbGwtb3BhY2l0eToxO2ZpbGwtcnVsZTpub256ZXJvO3N0cm9rZTpub25lIiBpZD0icGF0aDIyIi8+PHBhdGggZD0iTSAzNjMuNTcsNS4xMDU0NyA0ODIuODg3LDEzNC4wMjMgNDgyLjk2NSwyNDAuODU5IDM2My41NywxMjQuMjk3IFoiIHN0eWxlPSJmaWxsOm5vbmU7c3Ryb2tlOiNmZmZmZmY7c3Ryb2tlLXdpZHRoOjMuOTk5OTM5OTI7c3Ryb2tlLWxpbmVjYXA6YnV0dDtzdHJva2UtbGluZWpvaW46bWl0ZXI7c3Ryb2tlLW1pdGVybGltaXQ6NDtzdHJva2UtZGFzaGFycmF5Om5vbmU7c3Ryb2tlLW9wYWNpdHk6MSIgaWQ9InBhdGgyNCIvPjxwYXRoIGQ9Im0gMjE1LjAxNiwxNTQuNTUxIC02LjkzNCwtNS42ODQgaCAtODkuMDc4IGwgLTguODg3LC04Ljg3OSAtMjQuMTQwNCwxMC41MiA0OC41NTQ0LDEzLjg4NyAtOC41OTMsLTkuODQ0IGggODkuMDc4IiBzdHlsZT0iZmlsbDojZmZmZmZmO2ZpbGwtb3BhY2l0eToxO2ZpbGwtcnVsZTpub256ZXJvO3N0cm9rZTpub25lIiBpZD0icGF0aDI2Ii8+PHBhdGggZD0ibSAyODUuMDE2LDE5OC4zMDEgLTYuOTM0LC01LjY4NCBoIC04OS4wNzggbCAtOC44ODcsLTguODc5IC0yNC4xNCwxMC41MiA0OC41NTQsMTMuODg3IC04LjU5MywtOS44NDQgaCA4OS4wNzgiIHN0eWxlPSJmaWxsOiNmZmZmZmY7ZmlsbC1vcGFjaXR5OjE7ZmlsbC1ydWxlOm5vbnplcm87c3Ryb2tlOm5vbmUiIGlkPSJwYXRoMjgiLz48cGF0aCBkPSJtIDIzMC43MzgsMTcwLjAwOCA2LjkxNCw1LjY4MyBoIDg5LjEwMiBsIDguODg3LDguODc5IDI0LjE0LC0xMC41MTkgLTQ4LjU1NCwtMTMuODg3IDguNTkzLDkuODQ0IGggLTg5LjA4MiIgc3R5bGU9ImZpbGw6I2ZmZmZmZjtmaWxsLW9wYWNpdHk6MTtmaWxsLXJ1bGU6bm9uemVybztzdHJva2U6bm9uZSIgaWQ9InBhdGgzMCIvPjxwYXRoIGQ9Im0gMjc2Ljk4OCwyMTMuNzU4IDYuOTE0LDUuNjgzIGggODkuMTAyIGwgOC44ODcsOC44NzkgMjQuMTQsLTEwLjUxOSAtNDguNTU0LC0xMy44ODcgOC41OTMsOS44NDQgaCAtODkuMDgyIiBzdHlsZT0iZmlsbDojZmZmZmZmO2ZpbGwtb3BhY2l0eToxO2ZpbGwtcnVsZTpub256ZXJvO3N0cm9rZTpub25lIiBpZD0icGF0aDMyIi8+PC9nPjwvZz48L3N2Zz4=;fillColor=#A8DADC;strokeColor=#457B9D;fontColor=#1D3557;" vertex="1" parent="1">
          <mxGeometry x="280" y="80" width="65" height="33" as="geometry" />
        </mxCell>
        <mxCell id="MO61QK-5C1BGWu0sTS1N-7" value="" style="shape=image;verticalLabelPosition=bottom;labelBackgroundColor=none;verticalAlign=top;aspect=fixed;imageAspect=0;image=data:image/svg+xml,PHN2ZyB4bWxucz0iaHR0cDovL3d3dy53My5vcmcvMjAwMC9zdmciIHZlcnNpb249IjEuMSIgaWQ9InN2ZzIiIHhtbDpzcGFjZT0icHJlc2VydmUiIHdpZHRoPSI1Ny45MDY2NjYiIGhlaWdodD0iMzkuNzg2NjY3IiB2aWV3Qm94PSIwIDAgNTcuOTA2NjY2IDM5Ljc4NjY2NyI+PG1ldGFkYXRhIGlkPSJtZXRhZGF0YTgiPmltYWdlL3N2Zyt4bWw8L21ldGFkYXRhPjxkZWZzIGlkPSJkZWZzNiI+PGNsaXBQYXRoIGNsaXBQYXRoVW5pdHM9InVzZXJTcGFjZU9uVXNlIiBpZD0iY2xpcFBhdGgyMCI+PHBhdGggZD0iTSAwLDI5OCBIIDQzMCBWIDAgSCAwIFoiIGlkPSJwYXRoMTgiLz48L2NsaXBQYXRoPjwvZGVmcz48ZyBpZD0iZzEwIiB0cmFuc2Zvcm09Im1hdHJpeCgxLjMzMzMzMzMsMCwwLC0xLjMzMzMzMzMsMCwzOS43ODY2NjcpIj48ZyBpZD0iZzEyIiB0cmFuc2Zvcm09InNjYWxlKDAuMSkiPjxnIGlkPSJnMTQiPjxnIGlkPSJnMTYiIGNsaXAtcGF0aD0idXJsKCNjbGlwUGF0aDIwKSI+PHBhdGggZD0ibSA0MjEuNzM4LDI5My42OTUgMTAuNDEsLTEzLjQ3NiAtMjguMTY0LC0xNTQuMzUyIC0xMi44NzEsNy45NjUgMzAuNjI1LDE1OS44NjMiIHN0eWxlPSJmaWxsOiMwMjcwOWY7ZmlsbC1vcGFjaXR5OjE7ZmlsbC1ydWxlOm5vbnplcm87c3Ryb2tlOm5vbmUiIGlkPSJwYXRoMjIiLz48cGF0aCBkPSJtIDQyMS43MzgsMjkzLjY5NSAxMC40MSwtMTMuNDc2IC0yOC4xNjQsLTE1NC4zNTIgLTEyLjg3MSw3Ljk2NSB6IiBzdHlsZT0iZmlsbDpub25lO3N0cm9rZTojZmZmZmZmO3N0cm9rZS13aWR0aDozLjk5OTkzOTkyO3N0cm9rZS1saW5lY2FwOmJ1dHQ7c3Ryb2tlLWxpbmVqb2luOm1pdGVyO3N0cm9rZS1taXRlcmxpbWl0OjQ7c3Ryb2tlLWRhc2hhcnJheTpub25lO3N0cm9rZS1vcGFjaXR5OjEiIGlkPSJwYXRoMjQiLz48cGF0aCBkPSJtIDEyMC4zOTUsMTMzLjgzMiAxMS42NCwtNy45NjUgaCAyNzEuOTQ5IGwgLTEyLjg3MSw3Ljk2NSBIIDEyMC4zOTUiIHN0eWxlPSJmaWxsOiMwMDAwMDA7ZmlsbC1vcGFjaXR5OjE7ZmlsbC1ydWxlOm5vbnplcm87c3Ryb2tlOm5vbmUiIGlkPSJwYXRoMjYiLz48cGF0aCBkPSJtIDEyMC4zOTUsMTMzLjgzMiAxMS42NCwtNy45NjUgaCAyNzEuOTQ5IGwgLTEyLjg3MSw3Ljk2NSB6IiBzdHlsZT0iZmlsbDpub25lO3N0cm9rZTojZmZmZmZmO3N0cm9rZS13aWR0aDoxLjk5OTk2OTk2O3N0cm9rZS1saW5lY2FwOmJ1dHQ7c3Ryb2tlLWxpbmVqb2luOm1pdGVyO3N0cm9rZS1taXRlcmxpbWl0OjQ7c3Ryb2tlLWRhc2hhcnJheTpub25lO3N0cm9rZS1vcGFjaXR5OjEiIGlkPSJwYXRoMjgiLz48cGF0aCBkPSJNIDM5My41NzQsMTIxLjI3MyBWIDk0LjAyMzQgbCAtNy4wNTEsLTYuMTI4OSBjIDAsMCAtMTYuNTQzLC00Ljg5ODQgLTEyLjg3MSwtMTQuNjk1MyBMIDI5OS44NjMsNC41ODk4NCBWIDM0LjYwOTQgbCA5My43MTEsODYuNjYzNiIgc3R5bGU9ImZpbGw6IzAyNzA5ZjtmaWxsLW9wYWNpdHk6MTtmaWxsLXJ1bGU6bm9uemVybztzdHJva2U6bm9uZSIgaWQ9InBhdGgzMCIvPjxwYXRoIGQ9Ik0gMzkzLjU3NCwxMjEuMjczIFYgOTQuMDIzNCBsIC03LjA1MSwtNi4xMjg5IGMgMCwwIC0xNi41NDMsLTQuODk4NCAtMTIuODcxLC0xNC42OTUzIEwgMjk5Ljg2Myw0LjU4OTg0IFYgMzQuNjA5NCBaIiBzdHlsZT0iZmlsbDpub25lO3N0cm9rZTojZmZmZmZmO3N0cm9rZS13aWR0aDozLjk5OTkzOTkyO3N0cm9rZS1saW5lY2FwOmJ1dHQ7c3Ryb2tlLWxpbmVqb2luOm1pdGVyO3N0cm9rZS1taXRlcmxpbWl0OjQ7c3Ryb2tlLWRhc2hhcnJheTpub25lO3N0cm9rZS1vcGFjaXR5OjEiIGlkPSJwYXRoMzIiLz48cGF0aCBkPSJtIDYuMTc1NzgsNC41ODk4NCBoIDI5My42ODggdiAzMC4wMTk1IEggNi4xNzU3OCBaIiBzdHlsZT0iZmlsbDojMDI3MDlmO2ZpbGwtb3BhY2l0eToxO2ZpbGwtcnVsZTpub256ZXJvO3N0cm9rZTpub25lIiBpZD0icGF0aDM0Ii8+PHBhdGggZD0iTSA2LjE3NTc4LDM0LjYwOTQgViA0LjU4OTg0IEggMjk5Ljg2MyBWIDM0LjYwOTQgSCA2LjE3NTc4IiBzdHlsZT0iZmlsbDpub25lO3N0cm9rZTojZmZmZmZmO3N0cm9rZS13aWR0aDozLjk5OTkzOTkyO3N0cm9rZS1saW5lY2FwOmJ1dHQ7c3Ryb2tlLWxpbmVqb2luOm1pdGVyO3N0cm9rZS1taXRlcmxpbWl0OjQ7c3Ryb2tlLWRhc2hhcnJheTpub25lO3N0cm9rZS1vcGFjaXR5OjEiIGlkPSJwYXRoMzYiLz48cGF0aCBkPSJtIDEyMy40NjEsMTE5LjQzOCAyNzAuMTEzLDEuODM1IC05My43MTEsLTg2LjY2MzYgSCA2LjE3NTc4IEwgMTIzLjQ2MSwxMTkuNDM4IiBzdHlsZT0iZmlsbDojMDI3MDlmO2ZpbGwtb3BhY2l0eToxO2ZpbGwtcnVsZTpub256ZXJvO3N0cm9rZTpub25lIiBpZD0icGF0aDM4Ii8+PHBhdGggZD0ibSAxMjMuNDYxLDExOS40MzggMjcwLjExMywxLjgzNSAtOTMuNzExLC04Ni42NjM2IEggNi4xNzU3OCBaIiBzdHlsZT0iZmlsbDpub25lO3N0cm9rZTojZmZmZmZmO3N0cm9rZS13aWR0aDozLjk5OTkzOTkyO3N0cm9rZS1saW5lY2FwOmJ1dHQ7c3Ryb2tlLWxpbmVqb2luOm1pdGVyO3N0cm9rZS1taXRlcmxpbWl0OjQ7c3Ryb2tlLWRhc2hhcnJheTpub25lO3N0cm9rZS1vcGFjaXR5OjEiIGlkPSJwYXRoNDAiLz48cGF0aCBkPSJtIDM5MS4xMTMsMTMzLjgzMiAzMC42MjUsMTU5Ljg2MyBIIDE1NS4zMTYgTCAxMjAuMzk1LDEzMy44MzIgaCAyNzAuNzE4IiBzdHlsZT0iZmlsbDojMDI3MDlmO2ZpbGwtb3BhY2l0eToxO2ZpbGwtcnVsZTpub256ZXJvO3N0cm9rZTpub25lIiBpZD0icGF0aDQyIi8+PHBhdGggZD0ibSAzOTEuMTEzLDEzMy44MzIgMzAuNjI1LDE1OS44NjMgSCAxNTUuMzE2IEwgMTIwLjM5NSwxMzMuODMyIFoiIHN0eWxlPSJmaWxsOm5vbmU7c3Ryb2tlOiNmZmZmZmY7c3Ryb2tlLXdpZHRoOjMuOTk5OTM5OTI7c3Ryb2tlLWxpbmVjYXA6YnV0dDtzdHJva2UtbGluZWpvaW46bWl0ZXI7c3Ryb2tlLW1pdGVybGltaXQ6NDtzdHJva2UtZGFzaGFycmF5Om5vbmU7c3Ryb2tlLW9wYWNpdHk6MSIgaWQ9InBhdGg0NCIvPjxwYXRoIGQ9Ik0gMzY4LjUxNiwxNTEuNzE5IDM5Mi4wOSwyNzEuNzcgSCAxNzUuNDUzIEwgMTUxLjg3OSwxNTEuNzE5IGggMjE2LjYzNyIgc3R5bGU9ImZpbGw6IzAyNzA5ZjtmaWxsLW9wYWNpdHk6MTtmaWxsLXJ1bGU6bm9uemVybztzdHJva2U6bm9uZSIgaWQ9InBhdGg0NiIvPjxwYXRoIGQ9Ik0gMzY4LjUxNiwxNTEuNzE5IDM5Mi4wOSwyNzEuNzcgSCAxNzUuNDUzIEwgMTUxLjg3OSwxNTEuNzE5IFoiIHN0eWxlPSJmaWxsOm5vbmU7c3Ryb2tlOiNmZmZmZmY7c3Ryb2tlLXdpZHRoOjMuOTk5OTM5OTI7c3Ryb2tlLWxpbmVjYXA6YnV0dDtzdHJva2UtbGluZWpvaW46bWl0ZXI7c3Ryb2tlLW1pdGVybGltaXQ6NDtzdHJva2UtZGFzaGFycmF5Om5vbmU7c3Ryb2tlLW9wYWNpdHk6MSIgaWQ9InBhdGg0OCIvPjxwYXRoIGQ9Ik0gMTI5LjgwOSwxMTcuNTE2IDYxLjY4MzYsNjIuNTExNyIgc3R5bGU9ImZpbGw6bm9uZTtzdHJva2U6I2ZmZmZmZjtzdHJva2Utd2lkdGg6MS4wMDAwNTk5NjtzdHJva2UtbGluZWNhcDpidXR0O3N0cm9rZS1saW5lam9pbjpyb3VuZDtzdHJva2UtbWl0ZXJsaW1pdDo0O3N0cm9rZS1kYXNoYXJyYXk6bm9uZTtzdHJva2Utb3BhY2l0eToxIiBpZD0icGF0aDUwIi8+PHBhdGggZD0iTSAxNTEuNjg0LDExNy41MTYgODMuNTU4Niw2Mi41MTE3IiBzdHlsZT0iZmlsbDpub25lO3N0cm9rZTojZmZmZmZmO3N0cm9rZS13aWR0aDoxLjAwMDA1OTk2O3N0cm9rZS1saW5lY2FwOmJ1dHQ7c3Ryb2tlLWxpbmVqb2luOnJvdW5kO3N0cm9rZS1taXRlcmxpbWl0OjQ7c3Ryb2tlLWRhc2hhcnJheTpub25lO3N0cm9rZS1vcGFjaXR5OjEiIGlkPSJwYXRoNTIiLz48cGF0aCBkPSJNIDE3My41NTksMTE3LjUxNiAxMDUuNDM0LDYyLjUxMTciIHN0eWxlPSJmaWxsOm5vbmU7c3Ryb2tlOiNmZmZmZmY7c3Ryb2tlLXdpZHRoOjEuMDAwMDU5OTY7c3Ryb2tlLWxpbmVjYXA6YnV0dDtzdHJva2UtbGluZWpvaW46cm91bmQ7c3Ryb2tlLW1pdGVybGltaXQ6NDtzdHJva2UtZGFzaGFycmF5Om5vbmU7c3Ryb2tlLW9wYWNpdHk6MSIgaWQ9InBhdGg1NCIvPjxwYXRoIGQ9Ik0gMTk1LjQzNCwxMTcuNTE2IDEyNy4zMDksNjIuNTExNyIgc3R5bGU9ImZpbGw6bm9uZTtzdHJva2U6I2ZmZmZmZjtzdHJva2Utd2lkdGg6MS4wMDAwNTk5NjtzdHJva2UtbGluZWNhcDpidXR0O3N0cm9rZS1saW5lam9pbjpyb3VuZDtzdHJva2UtbWl0ZXJsaW1pdDo0O3N0cm9rZS1kYXNoYXJyYXk6bm9uZTtzdHJva2Utb3BhY2l0eToxIiBpZD0icGF0aDU2Ii8+PHBhdGggZD0iTSAyMTcuMzA1LDExNy41MTYgMTQ5LjE4NCw2Mi41MTE3IiBzdHlsZT0iZmlsbDpub25lO3N0cm9rZTojZmZmZmZmO3N0cm9rZS13aWR0aDoxLjAwMDA1OTk2O3N0cm9rZS1saW5lY2FwOmJ1dHQ7c3Ryb2tlLWxpbmVqb2luOnJvdW5kO3N0cm9rZS1taXRlcmxpbWl0OjQ7c3Ryb2tlLWRhc2hhcnJheTpub25lO3N0cm9rZS1vcGFjaXR5OjEiIGlkPSJwYXRoNTgiLz48cGF0aCBkPSJNIDIzOS4xOCwxMTcuNTE2IDE3MS4wNTksNjIuNTExNyIgc3R5bGU9ImZpbGw6bm9uZTtzdHJva2U6I2ZmZmZmZjtzdHJva2Utd2lkdGg6MS4wMDAwNTk5NjtzdHJva2UtbGluZWNhcDpidXR0O3N0cm9rZS1saW5lam9pbjpyb3VuZDtzdHJva2UtbWl0ZXJsaW1pdDo0O3N0cm9rZS1kYXNoYXJyYXk6bm9uZTtzdHJva2Utb3BhY2l0eToxIiBpZD0icGF0aDYwIi8+PHBhdGggZD0iTSAyNjEuMDU1LDExNy41MTYgMTkyLjkzNCw2Mi41MTE3IiBzdHlsZT0iZmlsbDpub25lO3N0cm9rZTojZmZmZmZmO3N0cm9rZS13aWR0aDoxLjAwMDA1OTk2O3N0cm9rZS1saW5lY2FwOmJ1dHQ7c3Ryb2tlLWxpbmVqb2luOnJvdW5kO3N0cm9rZS1taXRlcmxpbWl0OjQ7c3Ryb2tlLWRhc2hhcnJheTpub25lO3N0cm9rZS1vcGFjaXR5OjEiIGlkPSJwYXRoNjIiLz48cGF0aCBkPSJNIDI4Mi45MywxMTcuNTE2IDIxNC44MDUsNjIuNTExNyIgc3R5bGU9ImZpbGw6bm9uZTtzdHJva2U6I2ZmZmZmZjtzdHJva2Utd2lkdGg6MS4wMDAwNTk5NjtzdHJva2UtbGluZWNhcDpidXR0O3N0cm9rZS1saW5lam9pbjpyb3VuZDtzdHJva2UtbWl0ZXJsaW1pdDo0O3N0cm9rZS1kYXNoYXJyYXk6bm9uZTtzdHJva2Utb3BhY2l0eToxIiBpZD0icGF0aDY0Ii8+PHBhdGggZD0iTSAzMDQuODA1LDExNy41MTYgMjM2LjY4LDYyLjUxMTciIHN0eWxlPSJmaWxsOm5vbmU7c3Ryb2tlOiNmZmZmZmY7c3Ryb2tlLXdpZHRoOjEuMDAwMDU5OTY7c3Ryb2tlLWxpbmVjYXA6YnV0dDtzdHJva2UtbGluZWpvaW46cm91bmQ7c3Ryb2tlLW1pdGVybGltaXQ6NDtzdHJva2UtZGFzaGFycmF5Om5vbmU7c3Ryb2tlLW9wYWNpdHk6MSIgaWQ9InBhdGg2NiIvPjxwYXRoIGQ9Ik0gMzI2LjY4LDExNy41MTYgMjU4LjU1NSw2Mi41MTE3IiBzdHlsZT0iZmlsbDpub25lO3N0cm9rZTojZmZmZmZmO3N0cm9rZS13aWR0aDoxLjAwMDA1OTk2O3N0cm9rZS1saW5lY2FwOmJ1dHQ7c3Ryb2tlLWxpbmVqb2luOnJvdW5kO3N0cm9rZS1taXRlcmxpbWl0OjQ7c3Ryb2tlLWRhc2hhcnJheTpub25lO3N0cm9rZS1vcGFjaXR5OjEiIGlkPSJwYXRoNjgiLz48cGF0aCBkPSJNIDM0OC41NTUsMTE3LjUxNiAyODAuNDMsNjIuNTExNyIgc3R5bGU9ImZpbGw6bm9uZTtzdHJva2U6I2ZmZmZmZjtzdHJva2Utd2lkdGg6MS4wMDAwNTk5NjtzdHJva2UtbGluZWNhcDpidXR0O3N0cm9rZS1saW5lam9pbjpyb3VuZDtzdHJva2UtbWl0ZXJsaW1pdDo0O3N0cm9rZS1kYXNoYXJyYXk6bm9uZTtzdHJva2Utb3BhY2l0eToxIiBpZD0icGF0aDcwIi8+PHBhdGggZD0iTSAzNzAuNDMsMTE3LjUxNiAzMDIuMzA1LDYyLjUxMTciIHN0eWxlPSJmaWxsOm5vbmU7c3Ryb2tlOiNmZmZmZmY7c3Ryb2tlLXdpZHRoOjEuMDAwMDU5OTY7c3Ryb2tlLWxpbmVjYXA6YnV0dDtzdHJva2UtbGluZWpvaW46cm91bmQ7c3Ryb2tlLW1pdGVybGltaXQ6NDtzdHJva2UtZGFzaGFycmF5Om5vbmU7c3Ryb2tlLW9wYWNpdHk6MSIgaWQ9InBhdGg3MiIvPjxwYXRoIGQ9Ik0gNjkuMzAwOCw2OC4zMTI1IEggMzExLjgxNiIgc3R5bGU9ImZpbGw6bm9uZTtzdHJva2U6I2ZmZmZmZjtzdHJva2Utd2lkdGg6MS4wMDAwNTk5NjtzdHJva2UtbGluZWNhcDpidXR0O3N0cm9rZS1saW5lam9pbjpyb3VuZDtzdHJva2UtbWl0ZXJsaW1pdDo0O3N0cm9rZS1kYXNoYXJyYXk6bm9uZTtzdHJva2Utb3BhY2l0eToxIiBpZD0icGF0aDc0Ii8+PHBhdGggZD0iTSA4NS42MDk0LDgwLjkxOCBIIDMyNC4zNzUiIHN0eWxlPSJmaWxsOm5vbmU7c3Ryb2tlOiNmZmZmZmY7c3Ryb2tlLXdpZHRoOjEuMDAwMDU5OTY7c3Ryb2tlLWxpbmVjYXA6YnV0dDtzdHJva2UtbGluZWpvaW46cm91bmQ7c3Ryb2tlLW1pdGVybGltaXQ6NDtzdHJva2UtZGFzaGFycmF5Om5vbmU7c3Ryb2tlLW9wYWNpdHk6MSIgaWQ9InBhdGg3NiIvPjxwYXRoIGQ9Ik0gMTAyLjUyMyw5My41MTk1IEggMzQwLjY2NCIgc3R5bGU9ImZpbGw6bm9uZTtzdHJva2U6I2ZmZmZmZjtzdHJva2Utd2lkdGg6MS4wMDAwNTk5NjtzdHJva2UtbGluZWNhcDpidXR0O3N0cm9rZS1saW5lam9pbjpyb3VuZDtzdHJva2UtbWl0ZXJsaW1pdDo0O3N0cm9rZS1kYXNoYXJyYXk6bm9uZTtzdHJva2Utb3BhY2l0eToxIiBpZD0icGF0aDc4Ii8+PHBhdGggZD0iTSAxMTcuNTgyLDEwNi4xMjkgSCAzNTcuNTk4IiBzdHlsZT0iZmlsbDpub25lO3N0cm9rZTojZmZmZmZmO3N0cm9rZS13aWR0aDoxLjAwMDA1OTk2O3N0cm9rZS1saW5lY2FwOmJ1dHQ7c3Ryb2tlLWxpbmVqb2luOnJvdW5kO3N0cm9rZS1taXRlcmxpbWl0OjQ7c3Ryb2tlLWRhc2hhcnJheTpub25lO3N0cm9rZS1vcGFjaXR5OjEiIGlkPSJwYXRoODAiLz48L2c+PC9nPjwvZz48L2c+PC9zdmc+;fillColor=#A8DADC;strokeColor=#457B9D;fontColor=#1D3557;" vertex="1" parent="1">
          <mxGeometry x="446" y="130" width="58" height="40" as="geometry" />
        </mxCell>
        <mxCell id="MO61QK-5C1BGWu0sTS1N-8" value="" style="shape=image;verticalLabelPosition=bottom;labelBackgroundColor=none;verticalAlign=top;aspect=fixed;imageAspect=0;image=data:image/svg+xml,PHN2ZyB4bWxucz0iaHR0cDovL3d3dy53My5vcmcvMjAwMC9zdmciIHZlcnNpb249IjEuMSIgaWQ9InN2ZzIiIHhtbDpzcGFjZT0icHJlc2VydmUiIHdpZHRoPSI1Ny45MDY2NjYiIGhlaWdodD0iMzkuNzg2NjY3IiB2aWV3Qm94PSIwIDAgNTcuOTA2NjY2IDM5Ljc4NjY2NyI+PG1ldGFkYXRhIGlkPSJtZXRhZGF0YTgiPmltYWdlL3N2Zyt4bWw8L21ldGFkYXRhPjxkZWZzIGlkPSJkZWZzNiI+PGNsaXBQYXRoIGNsaXBQYXRoVW5pdHM9InVzZXJTcGFjZU9uVXNlIiBpZD0iY2xpcFBhdGgyMCI+PHBhdGggZD0iTSAwLDI5OCBIIDQzMCBWIDAgSCAwIFoiIGlkPSJwYXRoMTgiLz48L2NsaXBQYXRoPjwvZGVmcz48ZyBpZD0iZzEwIiB0cmFuc2Zvcm09Im1hdHJpeCgxLjMzMzMzMzMsMCwwLC0xLjMzMzMzMzMsMCwzOS43ODY2NjcpIj48ZyBpZD0iZzEyIiB0cmFuc2Zvcm09InNjYWxlKDAuMSkiPjxnIGlkPSJnMTQiPjxnIGlkPSJnMTYiIGNsaXAtcGF0aD0idXJsKCNjbGlwUGF0aDIwKSI+PHBhdGggZD0ibSA0MjEuNzM4LDI5My42OTUgMTAuNDEsLTEzLjQ3NiAtMjguMTY0LC0xNTQuMzUyIC0xMi44NzEsNy45NjUgMzAuNjI1LDE1OS44NjMiIHN0eWxlPSJmaWxsOiMwMjcwOWY7ZmlsbC1vcGFjaXR5OjE7ZmlsbC1ydWxlOm5vbnplcm87c3Ryb2tlOm5vbmUiIGlkPSJwYXRoMjIiLz48cGF0aCBkPSJtIDQyMS43MzgsMjkzLjY5NSAxMC40MSwtMTMuNDc2IC0yOC4xNjQsLTE1NC4zNTIgLTEyLjg3MSw3Ljk2NSB6IiBzdHlsZT0iZmlsbDpub25lO3N0cm9rZTojZmZmZmZmO3N0cm9rZS13aWR0aDozLjk5OTkzOTkyO3N0cm9rZS1saW5lY2FwOmJ1dHQ7c3Ryb2tlLWxpbmVqb2luOm1pdGVyO3N0cm9rZS1taXRlcmxpbWl0OjQ7c3Ryb2tlLWRhc2hhcnJheTpub25lO3N0cm9rZS1vcGFjaXR5OjEiIGlkPSJwYXRoMjQiLz48cGF0aCBkPSJtIDEyMC4zOTUsMTMzLjgzMiAxMS42NCwtNy45NjUgaCAyNzEuOTQ5IGwgLTEyLjg3MSw3Ljk2NSBIIDEyMC4zOTUiIHN0eWxlPSJmaWxsOiMwMDAwMDA7ZmlsbC1vcGFjaXR5OjE7ZmlsbC1ydWxlOm5vbnplcm87c3Ryb2tlOm5vbmUiIGlkPSJwYXRoMjYiLz48cGF0aCBkPSJtIDEyMC4zOTUsMTMzLjgzMiAxMS42NCwtNy45NjUgaCAyNzEuOTQ5IGwgLTEyLjg3MSw3Ljk2NSB6IiBzdHlsZT0iZmlsbDpub25lO3N0cm9rZTojZmZmZmZmO3N0cm9rZS13aWR0aDoxLjk5OTk2OTk2O3N0cm9rZS1saW5lY2FwOmJ1dHQ7c3Ryb2tlLWxpbmVqb2luOm1pdGVyO3N0cm9rZS1taXRlcmxpbWl0OjQ7c3Ryb2tlLWRhc2hhcnJheTpub25lO3N0cm9rZS1vcGFjaXR5OjEiIGlkPSJwYXRoMjgiLz48cGF0aCBkPSJNIDM5My41NzQsMTIxLjI3MyBWIDk0LjAyMzQgbCAtNy4wNTEsLTYuMTI4OSBjIDAsMCAtMTYuNTQzLC00Ljg5ODQgLTEyLjg3MSwtMTQuNjk1MyBMIDI5OS44NjMsNC41ODk4NCBWIDM0LjYwOTQgbCA5My43MTEsODYuNjYzNiIgc3R5bGU9ImZpbGw6IzAyNzA5ZjtmaWxsLW9wYWNpdHk6MTtmaWxsLXJ1bGU6bm9uemVybztzdHJva2U6bm9uZSIgaWQ9InBhdGgzMCIvPjxwYXRoIGQ9Ik0gMzkzLjU3NCwxMjEuMjczIFYgOTQuMDIzNCBsIC03LjA1MSwtNi4xMjg5IGMgMCwwIC0xNi41NDMsLTQuODk4NCAtMTIuODcxLC0xNC42OTUzIEwgMjk5Ljg2Myw0LjU4OTg0IFYgMzQuNjA5NCBaIiBzdHlsZT0iZmlsbDpub25lO3N0cm9rZTojZmZmZmZmO3N0cm9rZS13aWR0aDozLjk5OTkzOTkyO3N0cm9rZS1saW5lY2FwOmJ1dHQ7c3Ryb2tlLWxpbmVqb2luOm1pdGVyO3N0cm9rZS1taXRlcmxpbWl0OjQ7c3Ryb2tlLWRhc2hhcnJheTpub25lO3N0cm9rZS1vcGFjaXR5OjEiIGlkPSJwYXRoMzIiLz48cGF0aCBkPSJtIDYuMTc1NzgsNC41ODk4NCBoIDI5My42ODggdiAzMC4wMTk1IEggNi4xNzU3OCBaIiBzdHlsZT0iZmlsbDojMDI3MDlmO2ZpbGwtb3BhY2l0eToxO2ZpbGwtcnVsZTpub256ZXJvO3N0cm9rZTpub25lIiBpZD0icGF0aDM0Ii8+PHBhdGggZD0iTSA2LjE3NTc4LDM0LjYwOTQgViA0LjU4OTg0IEggMjk5Ljg2MyBWIDM0LjYwOTQgSCA2LjE3NTc4IiBzdHlsZT0iZmlsbDpub25lO3N0cm9rZTojZmZmZmZmO3N0cm9rZS13aWR0aDozLjk5OTkzOTkyO3N0cm9rZS1saW5lY2FwOmJ1dHQ7c3Ryb2tlLWxpbmVqb2luOm1pdGVyO3N0cm9rZS1taXRlcmxpbWl0OjQ7c3Ryb2tlLWRhc2hhcnJheTpub25lO3N0cm9rZS1vcGFjaXR5OjEiIGlkPSJwYXRoMzYiLz48cGF0aCBkPSJtIDEyMy40NjEsMTE5LjQzOCAyNzAuMTEzLDEuODM1IC05My43MTEsLTg2LjY2MzYgSCA2LjE3NTc4IEwgMTIzLjQ2MSwxMTkuNDM4IiBzdHlsZT0iZmlsbDojMDI3MDlmO2ZpbGwtb3BhY2l0eToxO2ZpbGwtcnVsZTpub256ZXJvO3N0cm9rZTpub25lIiBpZD0icGF0aDM4Ii8+PHBhdGggZD0ibSAxMjMuNDYxLDExOS40MzggMjcwLjExMywxLjgzNSAtOTMuNzExLC04Ni42NjM2IEggNi4xNzU3OCBaIiBzdHlsZT0iZmlsbDpub25lO3N0cm9rZTojZmZmZmZmO3N0cm9rZS13aWR0aDozLjk5OTkzOTkyO3N0cm9rZS1saW5lY2FwOmJ1dHQ7c3Ryb2tlLWxpbmVqb2luOm1pdGVyO3N0cm9rZS1taXRlcmxpbWl0OjQ7c3Ryb2tlLWRhc2hhcnJheTpub25lO3N0cm9rZS1vcGFjaXR5OjEiIGlkPSJwYXRoNDAiLz48cGF0aCBkPSJtIDM5MS4xMTMsMTMzLjgzMiAzMC42MjUsMTU5Ljg2MyBIIDE1NS4zMTYgTCAxMjAuMzk1LDEzMy44MzIgaCAyNzAuNzE4IiBzdHlsZT0iZmlsbDojMDI3MDlmO2ZpbGwtb3BhY2l0eToxO2ZpbGwtcnVsZTpub256ZXJvO3N0cm9rZTpub25lIiBpZD0icGF0aDQyIi8+PHBhdGggZD0ibSAzOTEuMTEzLDEzMy44MzIgMzAuNjI1LDE1OS44NjMgSCAxNTUuMzE2IEwgMTIwLjM5NSwxMzMuODMyIFoiIHN0eWxlPSJmaWxsOm5vbmU7c3Ryb2tlOiNmZmZmZmY7c3Ryb2tlLXdpZHRoOjMuOTk5OTM5OTI7c3Ryb2tlLWxpbmVjYXA6YnV0dDtzdHJva2UtbGluZWpvaW46bWl0ZXI7c3Ryb2tlLW1pdGVybGltaXQ6NDtzdHJva2UtZGFzaGFycmF5Om5vbmU7c3Ryb2tlLW9wYWNpdHk6MSIgaWQ9InBhdGg0NCIvPjxwYXRoIGQ9Ik0gMzY4LjUxNiwxNTEuNzE5IDM5Mi4wOSwyNzEuNzcgSCAxNzUuNDUzIEwgMTUxLjg3OSwxNTEuNzE5IGggMjE2LjYzNyIgc3R5bGU9ImZpbGw6IzAyNzA5ZjtmaWxsLW9wYWNpdHk6MTtmaWxsLXJ1bGU6bm9uemVybztzdHJva2U6bm9uZSIgaWQ9InBhdGg0NiIvPjxwYXRoIGQ9Ik0gMzY4LjUxNiwxNTEuNzE5IDM5Mi4wOSwyNzEuNzcgSCAxNzUuNDUzIEwgMTUxLjg3OSwxNTEuNzE5IFoiIHN0eWxlPSJmaWxsOm5vbmU7c3Ryb2tlOiNmZmZmZmY7c3Ryb2tlLXdpZHRoOjMuOTk5OTM5OTI7c3Ryb2tlLWxpbmVjYXA6YnV0dDtzdHJva2UtbGluZWpvaW46bWl0ZXI7c3Ryb2tlLW1pdGVybGltaXQ6NDtzdHJva2UtZGFzaGFycmF5Om5vbmU7c3Ryb2tlLW9wYWNpdHk6MSIgaWQ9InBhdGg0OCIvPjxwYXRoIGQ9Ik0gMTI5LjgwOSwxMTcuNTE2IDYxLjY4MzYsNjIuNTExNyIgc3R5bGU9ImZpbGw6bm9uZTtzdHJva2U6I2ZmZmZmZjtzdHJva2Utd2lkdGg6MS4wMDAwNTk5NjtzdHJva2UtbGluZWNhcDpidXR0O3N0cm9rZS1saW5lam9pbjpyb3VuZDtzdHJva2UtbWl0ZXJsaW1pdDo0O3N0cm9rZS1kYXNoYXJyYXk6bm9uZTtzdHJva2Utb3BhY2l0eToxIiBpZD0icGF0aDUwIi8+PHBhdGggZD0iTSAxNTEuNjg0LDExNy41MTYgODMuNTU4Niw2Mi41MTE3IiBzdHlsZT0iZmlsbDpub25lO3N0cm9rZTojZmZmZmZmO3N0cm9rZS13aWR0aDoxLjAwMDA1OTk2O3N0cm9rZS1saW5lY2FwOmJ1dHQ7c3Ryb2tlLWxpbmVqb2luOnJvdW5kO3N0cm9rZS1taXRlcmxpbWl0OjQ7c3Ryb2tlLWRhc2hhcnJheTpub25lO3N0cm9rZS1vcGFjaXR5OjEiIGlkPSJwYXRoNTIiLz48cGF0aCBkPSJNIDE3My41NTksMTE3LjUxNiAxMDUuNDM0LDYyLjUxMTciIHN0eWxlPSJmaWxsOm5vbmU7c3Ryb2tlOiNmZmZmZmY7c3Ryb2tlLXdpZHRoOjEuMDAwMDU5OTY7c3Ryb2tlLWxpbmVjYXA6YnV0dDtzdHJva2UtbGluZWpvaW46cm91bmQ7c3Ryb2tlLW1pdGVybGltaXQ6NDtzdHJva2UtZGFzaGFycmF5Om5vbmU7c3Ryb2tlLW9wYWNpdHk6MSIgaWQ9InBhdGg1NCIvPjxwYXRoIGQ9Ik0gMTk1LjQzNCwxMTcuNTE2IDEyNy4zMDksNjIuNTExNyIgc3R5bGU9ImZpbGw6bm9uZTtzdHJva2U6I2ZmZmZmZjtzdHJva2Utd2lkdGg6MS4wMDAwNTk5NjtzdHJva2UtbGluZWNhcDpidXR0O3N0cm9rZS1saW5lam9pbjpyb3VuZDtzdHJva2UtbWl0ZXJsaW1pdDo0O3N0cm9rZS1kYXNoYXJyYXk6bm9uZTtzdHJva2Utb3BhY2l0eToxIiBpZD0icGF0aDU2Ii8+PHBhdGggZD0iTSAyMTcuMzA1LDExNy41MTYgMTQ5LjE4NCw2Mi41MTE3IiBzdHlsZT0iZmlsbDpub25lO3N0cm9rZTojZmZmZmZmO3N0cm9rZS13aWR0aDoxLjAwMDA1OTk2O3N0cm9rZS1saW5lY2FwOmJ1dHQ7c3Ryb2tlLWxpbmVqb2luOnJvdW5kO3N0cm9rZS1taXRlcmxpbWl0OjQ7c3Ryb2tlLWRhc2hhcnJheTpub25lO3N0cm9rZS1vcGFjaXR5OjEiIGlkPSJwYXRoNTgiLz48cGF0aCBkPSJNIDIzOS4xOCwxMTcuNTE2IDE3MS4wNTksNjIuNTExNyIgc3R5bGU9ImZpbGw6bm9uZTtzdHJva2U6I2ZmZmZmZjtzdHJva2Utd2lkdGg6MS4wMDAwNTk5NjtzdHJva2UtbGluZWNhcDpidXR0O3N0cm9rZS1saW5lam9pbjpyb3VuZDtzdHJva2UtbWl0ZXJsaW1pdDo0O3N0cm9rZS1kYXNoYXJyYXk6bm9uZTtzdHJva2Utb3BhY2l0eToxIiBpZD0icGF0aDYwIi8+PHBhdGggZD0iTSAyNjEuMDU1LDExNy41MTYgMTkyLjkzNCw2Mi41MTE3IiBzdHlsZT0iZmlsbDpub25lO3N0cm9rZTojZmZmZmZmO3N0cm9rZS13aWR0aDoxLjAwMDA1OTk2O3N0cm9rZS1saW5lY2FwOmJ1dHQ7c3Ryb2tlLWxpbmVqb2luOnJvdW5kO3N0cm9rZS1taXRlcmxpbWl0OjQ7c3Ryb2tlLWRhc2hhcnJheTpub25lO3N0cm9rZS1vcGFjaXR5OjEiIGlkPSJwYXRoNjIiLz48cGF0aCBkPSJNIDI4Mi45MywxMTcuNTE2IDIxNC44MDUsNjIuNTExNyIgc3R5bGU9ImZpbGw6bm9uZTtzdHJva2U6I2ZmZmZmZjtzdHJva2Utd2lkdGg6MS4wMDAwNTk5NjtzdHJva2UtbGluZWNhcDpidXR0O3N0cm9rZS1saW5lam9pbjpyb3VuZDtzdHJva2UtbWl0ZXJsaW1pdDo0O3N0cm9rZS1kYXNoYXJyYXk6bm9uZTtzdHJva2Utb3BhY2l0eToxIiBpZD0icGF0aDY0Ii8+PHBhdGggZD0iTSAzMDQuODA1LDExNy41MTYgMjM2LjY4LDYyLjUxMTciIHN0eWxlPSJmaWxsOm5vbmU7c3Ryb2tlOiNmZmZmZmY7c3Ryb2tlLXdpZHRoOjEuMDAwMDU5OTY7c3Ryb2tlLWxpbmVjYXA6YnV0dDtzdHJva2UtbGluZWpvaW46cm91bmQ7c3Ryb2tlLW1pdGVybGltaXQ6NDtzdHJva2UtZGFzaGFycmF5Om5vbmU7c3Ryb2tlLW9wYWNpdHk6MSIgaWQ9InBhdGg2NiIvPjxwYXRoIGQ9Ik0gMzI2LjY4LDExNy41MTYgMjU4LjU1NSw2Mi41MTE3IiBzdHlsZT0iZmlsbDpub25lO3N0cm9rZTojZmZmZmZmO3N0cm9rZS13aWR0aDoxLjAwMDA1OTk2O3N0cm9rZS1saW5lY2FwOmJ1dHQ7c3Ryb2tlLWxpbmVqb2luOnJvdW5kO3N0cm9rZS1taXRlcmxpbWl0OjQ7c3Ryb2tlLWRhc2hhcnJheTpub25lO3N0cm9rZS1vcGFjaXR5OjEiIGlkPSJwYXRoNjgiLz48cGF0aCBkPSJNIDM0OC41NTUsMTE3LjUxNiAyODAuNDMsNjIuNTExNyIgc3R5bGU9ImZpbGw6bm9uZTtzdHJva2U6I2ZmZmZmZjtzdHJva2Utd2lkdGg6MS4wMDAwNTk5NjtzdHJva2UtbGluZWNhcDpidXR0O3N0cm9rZS1saW5lam9pbjpyb3VuZDtzdHJva2UtbWl0ZXJsaW1pdDo0O3N0cm9rZS1kYXNoYXJyYXk6bm9uZTtzdHJva2Utb3BhY2l0eToxIiBpZD0icGF0aDcwIi8+PHBhdGggZD0iTSAzNzAuNDMsMTE3LjUxNiAzMDIuMzA1LDYyLjUxMTciIHN0eWxlPSJmaWxsOm5vbmU7c3Ryb2tlOiNmZmZmZmY7c3Ryb2tlLXdpZHRoOjEuMDAwMDU5OTY7c3Ryb2tlLWxpbmVjYXA6YnV0dDtzdHJva2UtbGluZWpvaW46cm91bmQ7c3Ryb2tlLW1pdGVybGltaXQ6NDtzdHJva2UtZGFzaGFycmF5Om5vbmU7c3Ryb2tlLW9wYWNpdHk6MSIgaWQ9InBhdGg3MiIvPjxwYXRoIGQ9Ik0gNjkuMzAwOCw2OC4zMTI1IEggMzExLjgxNiIgc3R5bGU9ImZpbGw6bm9uZTtzdHJva2U6I2ZmZmZmZjtzdHJva2Utd2lkdGg6MS4wMDAwNTk5NjtzdHJva2UtbGluZWNhcDpidXR0O3N0cm9rZS1saW5lam9pbjpyb3VuZDtzdHJva2UtbWl0ZXJsaW1pdDo0O3N0cm9rZS1kYXNoYXJyYXk6bm9uZTtzdHJva2Utb3BhY2l0eToxIiBpZD0icGF0aDc0Ii8+PHBhdGggZD0iTSA4NS42MDk0LDgwLjkxOCBIIDMyNC4zNzUiIHN0eWxlPSJmaWxsOm5vbmU7c3Ryb2tlOiNmZmZmZmY7c3Ryb2tlLXdpZHRoOjEuMDAwMDU5OTY7c3Ryb2tlLWxpbmVjYXA6YnV0dDtzdHJva2UtbGluZWpvaW46cm91bmQ7c3Ryb2tlLW1pdGVybGltaXQ6NDtzdHJva2UtZGFzaGFycmF5Om5vbmU7c3Ryb2tlLW9wYWNpdHk6MSIgaWQ9InBhdGg3NiIvPjxwYXRoIGQ9Ik0gMTAyLjUyMyw5My41MTk1IEggMzQwLjY2NCIgc3R5bGU9ImZpbGw6bm9uZTtzdHJva2U6I2ZmZmZmZjtzdHJva2Utd2lkdGg6MS4wMDAwNTk5NjtzdHJva2UtbGluZWNhcDpidXR0O3N0cm9rZS1saW5lam9pbjpyb3VuZDtzdHJva2UtbWl0ZXJsaW1pdDo0O3N0cm9rZS1kYXNoYXJyYXk6bm9uZTtzdHJva2Utb3BhY2l0eToxIiBpZD0icGF0aDc4Ii8+PHBhdGggZD0iTSAxMTcuNTgyLDEwNi4xMjkgSCAzNTcuNTk4IiBzdHlsZT0iZmlsbDpub25lO3N0cm9rZTojZmZmZmZmO3N0cm9rZS13aWR0aDoxLjAwMDA1OTk2O3N0cm9rZS1saW5lY2FwOmJ1dHQ7c3Ryb2tlLWxpbmVqb2luOnJvdW5kO3N0cm9rZS1taXRlcmxpbWl0OjQ7c3Ryb2tlLWRhc2hhcnJheTpub25lO3N0cm9rZS1vcGFjaXR5OjEiIGlkPSJwYXRoODAiLz48L2c+PC9nPjwvZz48L2c+PC9zdmc+;direction=east;fillColor=#A8DADC;strokeColor=#457B9D;fontColor=#1D3557;" vertex="1" parent="1">
          <mxGeometry x="446" y="20" width="58" height="40" as="geometry" />
        </mxCell>
        <mxCell id="MO61QK-5C1BGWu0sTS1N-11" value="" style="shape=image;verticalLabelPosition=bottom;labelBackgroundColor=none;verticalAlign=top;aspect=fixed;imageAspect=0;image=data:image/svg+xml,PHN2ZyB4bWxucz0iaHR0cDovL3d3dy53My5vcmcvMjAwMC9zdmciIHZlcnNpb249IjEuMSIgaWQ9InN2ZzIiIHhtbDpzcGFjZT0icHJlc2VydmUiIHdpZHRoPSI1Ny45MDY2NjYiIGhlaWdodD0iMzkuNzg2NjY3IiB2aWV3Qm94PSIwIDAgNTcuOTA2NjY2IDM5Ljc4NjY2NyI+PG1ldGFkYXRhIGlkPSJtZXRhZGF0YTgiPmltYWdlL3N2Zyt4bWw8L21ldGFkYXRhPjxkZWZzIGlkPSJkZWZzNiI+PGNsaXBQYXRoIGNsaXBQYXRoVW5pdHM9InVzZXJTcGFjZU9uVXNlIiBpZD0iY2xpcFBhdGgyMCI+PHBhdGggZD0iTSAwLDI5OCBIIDQzMCBWIDAgSCAwIFoiIGlkPSJwYXRoMTgiLz48L2NsaXBQYXRoPjwvZGVmcz48ZyBpZD0iZzEwIiB0cmFuc2Zvcm09Im1hdHJpeCgxLjMzMzMzMzMsMCwwLC0xLjMzMzMzMzMsMCwzOS43ODY2NjcpIj48ZyBpZD0iZzEyIiB0cmFuc2Zvcm09InNjYWxlKDAuMSkiPjxnIGlkPSJnMTQiPjxnIGlkPSJnMTYiIGNsaXAtcGF0aD0idXJsKCNjbGlwUGF0aDIwKSI+PHBhdGggZD0ibSA0MjEuNzM4LDI5My42OTUgMTAuNDEsLTEzLjQ3NiAtMjguMTY0LC0xNTQuMzUyIC0xMi44NzEsNy45NjUgMzAuNjI1LDE1OS44NjMiIHN0eWxlPSJmaWxsOiMwMjcwOWY7ZmlsbC1vcGFjaXR5OjE7ZmlsbC1ydWxlOm5vbnplcm87c3Ryb2tlOm5vbmUiIGlkPSJwYXRoMjIiLz48cGF0aCBkPSJtIDQyMS43MzgsMjkzLjY5NSAxMC40MSwtMTMuNDc2IC0yOC4xNjQsLTE1NC4zNTIgLTEyLjg3MSw3Ljk2NSB6IiBzdHlsZT0iZmlsbDpub25lO3N0cm9rZTojZmZmZmZmO3N0cm9rZS13aWR0aDozLjk5OTkzOTkyO3N0cm9rZS1saW5lY2FwOmJ1dHQ7c3Ryb2tlLWxpbmVqb2luOm1pdGVyO3N0cm9rZS1taXRlcmxpbWl0OjQ7c3Ryb2tlLWRhc2hhcnJheTpub25lO3N0cm9rZS1vcGFjaXR5OjEiIGlkPSJwYXRoMjQiLz48cGF0aCBkPSJtIDEyMC4zOTUsMTMzLjgzMiAxMS42NCwtNy45NjUgaCAyNzEuOTQ5IGwgLTEyLjg3MSw3Ljk2NSBIIDEyMC4zOTUiIHN0eWxlPSJmaWxsOiMwMDAwMDA7ZmlsbC1vcGFjaXR5OjE7ZmlsbC1ydWxlOm5vbnplcm87c3Ryb2tlOm5vbmUiIGlkPSJwYXRoMjYiLz48cGF0aCBkPSJtIDEyMC4zOTUsMTMzLjgzMiAxMS42NCwtNy45NjUgaCAyNzEuOTQ5IGwgLTEyLjg3MSw3Ljk2NSB6IiBzdHlsZT0iZmlsbDpub25lO3N0cm9rZTojZmZmZmZmO3N0cm9rZS13aWR0aDoxLjk5OTk2OTk2O3N0cm9rZS1saW5lY2FwOmJ1dHQ7c3Ryb2tlLWxpbmVqb2luOm1pdGVyO3N0cm9rZS1taXRlcmxpbWl0OjQ7c3Ryb2tlLWRhc2hhcnJheTpub25lO3N0cm9rZS1vcGFjaXR5OjEiIGlkPSJwYXRoMjgiLz48cGF0aCBkPSJNIDM5My41NzQsMTIxLjI3MyBWIDk0LjAyMzQgbCAtNy4wNTEsLTYuMTI4OSBjIDAsMCAtMTYuNTQzLC00Ljg5ODQgLTEyLjg3MSwtMTQuNjk1MyBMIDI5OS44NjMsNC41ODk4NCBWIDM0LjYwOTQgbCA5My43MTEsODYuNjYzNiIgc3R5bGU9ImZpbGw6IzAyNzA5ZjtmaWxsLW9wYWNpdHk6MTtmaWxsLXJ1bGU6bm9uemVybztzdHJva2U6bm9uZSIgaWQ9InBhdGgzMCIvPjxwYXRoIGQ9Ik0gMzkzLjU3NCwxMjEuMjczIFYgOTQuMDIzNCBsIC03LjA1MSwtNi4xMjg5IGMgMCwwIC0xNi41NDMsLTQuODk4NCAtMTIuODcxLC0xNC42OTUzIEwgMjk5Ljg2Myw0LjU4OTg0IFYgMzQuNjA5NCBaIiBzdHlsZT0iZmlsbDpub25lO3N0cm9rZTojZmZmZmZmO3N0cm9rZS13aWR0aDozLjk5OTkzOTkyO3N0cm9rZS1saW5lY2FwOmJ1dHQ7c3Ryb2tlLWxpbmVqb2luOm1pdGVyO3N0cm9rZS1taXRlcmxpbWl0OjQ7c3Ryb2tlLWRhc2hhcnJheTpub25lO3N0cm9rZS1vcGFjaXR5OjEiIGlkPSJwYXRoMzIiLz48cGF0aCBkPSJtIDYuMTc1NzgsNC41ODk4NCBoIDI5My42ODggdiAzMC4wMTk1IEggNi4xNzU3OCBaIiBzdHlsZT0iZmlsbDojMDI3MDlmO2ZpbGwtb3BhY2l0eToxO2ZpbGwtcnVsZTpub256ZXJvO3N0cm9rZTpub25lIiBpZD0icGF0aDM0Ii8+PHBhdGggZD0iTSA2LjE3NTc4LDM0LjYwOTQgViA0LjU4OTg0IEggMjk5Ljg2MyBWIDM0LjYwOTQgSCA2LjE3NTc4IiBzdHlsZT0iZmlsbDpub25lO3N0cm9rZTojZmZmZmZmO3N0cm9rZS13aWR0aDozLjk5OTkzOTkyO3N0cm9rZS1saW5lY2FwOmJ1dHQ7c3Ryb2tlLWxpbmVqb2luOm1pdGVyO3N0cm9rZS1taXRlcmxpbWl0OjQ7c3Ryb2tlLWRhc2hhcnJheTpub25lO3N0cm9rZS1vcGFjaXR5OjEiIGlkPSJwYXRoMzYiLz48cGF0aCBkPSJtIDEyMy40NjEsMTE5LjQzOCAyNzAuMTEzLDEuODM1IC05My43MTEsLTg2LjY2MzYgSCA2LjE3NTc4IEwgMTIzLjQ2MSwxMTkuNDM4IiBzdHlsZT0iZmlsbDojMDI3MDlmO2ZpbGwtb3BhY2l0eToxO2ZpbGwtcnVsZTpub256ZXJvO3N0cm9rZTpub25lIiBpZD0icGF0aDM4Ii8+PHBhdGggZD0ibSAxMjMuNDYxLDExOS40MzggMjcwLjExMywxLjgzNSAtOTMuNzExLC04Ni42NjM2IEggNi4xNzU3OCBaIiBzdHlsZT0iZmlsbDpub25lO3N0cm9rZTojZmZmZmZmO3N0cm9rZS13aWR0aDozLjk5OTkzOTkyO3N0cm9rZS1saW5lY2FwOmJ1dHQ7c3Ryb2tlLWxpbmVqb2luOm1pdGVyO3N0cm9rZS1taXRlcmxpbWl0OjQ7c3Ryb2tlLWRhc2hhcnJheTpub25lO3N0cm9rZS1vcGFjaXR5OjEiIGlkPSJwYXRoNDAiLz48cGF0aCBkPSJtIDM5MS4xMTMsMTMzLjgzMiAzMC42MjUsMTU5Ljg2MyBIIDE1NS4zMTYgTCAxMjAuMzk1LDEzMy44MzIgaCAyNzAuNzE4IiBzdHlsZT0iZmlsbDojMDI3MDlmO2ZpbGwtb3BhY2l0eToxO2ZpbGwtcnVsZTpub256ZXJvO3N0cm9rZTpub25lIiBpZD0icGF0aDQyIi8+PHBhdGggZD0ibSAzOTEuMTEzLDEzMy44MzIgMzAuNjI1LDE1OS44NjMgSCAxNTUuMzE2IEwgMTIwLjM5NSwxMzMuODMyIFoiIHN0eWxlPSJmaWxsOm5vbmU7c3Ryb2tlOiNmZmZmZmY7c3Ryb2tlLXdpZHRoOjMuOTk5OTM5OTI7c3Ryb2tlLWxpbmVjYXA6YnV0dDtzdHJva2UtbGluZWpvaW46bWl0ZXI7c3Ryb2tlLW1pdGVybGltaXQ6NDtzdHJva2UtZGFzaGFycmF5Om5vbmU7c3Ryb2tlLW9wYWNpdHk6MSIgaWQ9InBhdGg0NCIvPjxwYXRoIGQ9Ik0gMzY4LjUxNiwxNTEuNzE5IDM5Mi4wOSwyNzEuNzcgSCAxNzUuNDUzIEwgMTUxLjg3OSwxNTEuNzE5IGggMjE2LjYzNyIgc3R5bGU9ImZpbGw6IzAyNzA5ZjtmaWxsLW9wYWNpdHk6MTtmaWxsLXJ1bGU6bm9uemVybztzdHJva2U6bm9uZSIgaWQ9InBhdGg0NiIvPjxwYXRoIGQ9Ik0gMzY4LjUxNiwxNTEuNzE5IDM5Mi4wOSwyNzEuNzcgSCAxNzUuNDUzIEwgMTUxLjg3OSwxNTEuNzE5IFoiIHN0eWxlPSJmaWxsOm5vbmU7c3Ryb2tlOiNmZmZmZmY7c3Ryb2tlLXdpZHRoOjMuOTk5OTM5OTI7c3Ryb2tlLWxpbmVjYXA6YnV0dDtzdHJva2UtbGluZWpvaW46bWl0ZXI7c3Ryb2tlLW1pdGVybGltaXQ6NDtzdHJva2UtZGFzaGFycmF5Om5vbmU7c3Ryb2tlLW9wYWNpdHk6MSIgaWQ9InBhdGg0OCIvPjxwYXRoIGQ9Ik0gMTI5LjgwOSwxMTcuNTE2IDYxLjY4MzYsNjIuNTExNyIgc3R5bGU9ImZpbGw6bm9uZTtzdHJva2U6I2ZmZmZmZjtzdHJva2Utd2lkdGg6MS4wMDAwNTk5NjtzdHJva2UtbGluZWNhcDpidXR0O3N0cm9rZS1saW5lam9pbjpyb3VuZDtzdHJva2UtbWl0ZXJsaW1pdDo0O3N0cm9rZS1kYXNoYXJyYXk6bm9uZTtzdHJva2Utb3BhY2l0eToxIiBpZD0icGF0aDUwIi8+PHBhdGggZD0iTSAxNTEuNjg0LDExNy41MTYgODMuNTU4Niw2Mi41MTE3IiBzdHlsZT0iZmlsbDpub25lO3N0cm9rZTojZmZmZmZmO3N0cm9rZS13aWR0aDoxLjAwMDA1OTk2O3N0cm9rZS1saW5lY2FwOmJ1dHQ7c3Ryb2tlLWxpbmVqb2luOnJvdW5kO3N0cm9rZS1taXRlcmxpbWl0OjQ7c3Ryb2tlLWRhc2hhcnJheTpub25lO3N0cm9rZS1vcGFjaXR5OjEiIGlkPSJwYXRoNTIiLz48cGF0aCBkPSJNIDE3My41NTksMTE3LjUxNiAxMDUuNDM0LDYyLjUxMTciIHN0eWxlPSJmaWxsOm5vbmU7c3Ryb2tlOiNmZmZmZmY7c3Ryb2tlLXdpZHRoOjEuMDAwMDU5OTY7c3Ryb2tlLWxpbmVjYXA6YnV0dDtzdHJva2UtbGluZWpvaW46cm91bmQ7c3Ryb2tlLW1pdGVybGltaXQ6NDtzdHJva2UtZGFzaGFycmF5Om5vbmU7c3Ryb2tlLW9wYWNpdHk6MSIgaWQ9InBhdGg1NCIvPjxwYXRoIGQ9Ik0gMTk1LjQzNCwxMTcuNTE2IDEyNy4zMDksNjIuNTExNyIgc3R5bGU9ImZpbGw6bm9uZTtzdHJva2U6I2ZmZmZmZjtzdHJva2Utd2lkdGg6MS4wMDAwNTk5NjtzdHJva2UtbGluZWNhcDpidXR0O3N0cm9rZS1saW5lam9pbjpyb3VuZDtzdHJva2UtbWl0ZXJsaW1pdDo0O3N0cm9rZS1kYXNoYXJyYXk6bm9uZTtzdHJva2Utb3BhY2l0eToxIiBpZD0icGF0aDU2Ii8+PHBhdGggZD0iTSAyMTcuMzA1LDExNy41MTYgMTQ5LjE4NCw2Mi41MTE3IiBzdHlsZT0iZmlsbDpub25lO3N0cm9rZTojZmZmZmZmO3N0cm9rZS13aWR0aDoxLjAwMDA1OTk2O3N0cm9rZS1saW5lY2FwOmJ1dHQ7c3Ryb2tlLWxpbmVqb2luOnJvdW5kO3N0cm9rZS1taXRlcmxpbWl0OjQ7c3Ryb2tlLWRhc2hhcnJheTpub25lO3N0cm9rZS1vcGFjaXR5OjEiIGlkPSJwYXRoNTgiLz48cGF0aCBkPSJNIDIzOS4xOCwxMTcuNTE2IDE3MS4wNTksNjIuNTExNyIgc3R5bGU9ImZpbGw6bm9uZTtzdHJva2U6I2ZmZmZmZjtzdHJva2Utd2lkdGg6MS4wMDAwNTk5NjtzdHJva2UtbGluZWNhcDpidXR0O3N0cm9rZS1saW5lam9pbjpyb3VuZDtzdHJva2UtbWl0ZXJsaW1pdDo0O3N0cm9rZS1kYXNoYXJyYXk6bm9uZTtzdHJva2Utb3BhY2l0eToxIiBpZD0icGF0aDYwIi8+PHBhdGggZD0iTSAyNjEuMDU1LDExNy41MTYgMTkyLjkzNCw2Mi41MTE3IiBzdHlsZT0iZmlsbDpub25lO3N0cm9rZTojZmZmZmZmO3N0cm9rZS13aWR0aDoxLjAwMDA1OTk2O3N0cm9rZS1saW5lY2FwOmJ1dHQ7c3Ryb2tlLWxpbmVqb2luOnJvdW5kO3N0cm9rZS1taXRlcmxpbWl0OjQ7c3Ryb2tlLWRhc2hhcnJheTpub25lO3N0cm9rZS1vcGFjaXR5OjEiIGlkPSJwYXRoNjIiLz48cGF0aCBkPSJNIDI4Mi45MywxMTcuNTE2IDIxNC44MDUsNjIuNTExNyIgc3R5bGU9ImZpbGw6bm9uZTtzdHJva2U6I2ZmZmZmZjtzdHJva2Utd2lkdGg6MS4wMDAwNTk5NjtzdHJva2UtbGluZWNhcDpidXR0O3N0cm9rZS1saW5lam9pbjpyb3VuZDtzdHJva2UtbWl0ZXJsaW1pdDo0O3N0cm9rZS1kYXNoYXJyYXk6bm9uZTtzdHJva2Utb3BhY2l0eToxIiBpZD0icGF0aDY0Ii8+PHBhdGggZD0iTSAzMDQuODA1LDExNy41MTYgMjM2LjY4LDYyLjUxMTciIHN0eWxlPSJmaWxsOm5vbmU7c3Ryb2tlOiNmZmZmZmY7c3Ryb2tlLXdpZHRoOjEuMDAwMDU5OTY7c3Ryb2tlLWxpbmVjYXA6YnV0dDtzdHJva2UtbGluZWpvaW46cm91bmQ7c3Ryb2tlLW1pdGVybGltaXQ6NDtzdHJva2UtZGFzaGFycmF5Om5vbmU7c3Ryb2tlLW9wYWNpdHk6MSIgaWQ9InBhdGg2NiIvPjxwYXRoIGQ9Ik0gMzI2LjY4LDExNy41MTYgMjU4LjU1NSw2Mi41MTE3IiBzdHlsZT0iZmlsbDpub25lO3N0cm9rZTojZmZmZmZmO3N0cm9rZS13aWR0aDoxLjAwMDA1OTk2O3N0cm9rZS1saW5lY2FwOmJ1dHQ7c3Ryb2tlLWxpbmVqb2luOnJvdW5kO3N0cm9rZS1taXRlcmxpbWl0OjQ7c3Ryb2tlLWRhc2hhcnJheTpub25lO3N0cm9rZS1vcGFjaXR5OjEiIGlkPSJwYXRoNjgiLz48cGF0aCBkPSJNIDM0OC41NTUsMTE3LjUxNiAyODAuNDMsNjIuNTExNyIgc3R5bGU9ImZpbGw6bm9uZTtzdHJva2U6I2ZmZmZmZjtzdHJva2Utd2lkdGg6MS4wMDAwNTk5NjtzdHJva2UtbGluZWNhcDpidXR0O3N0cm9rZS1saW5lam9pbjpyb3VuZDtzdHJva2UtbWl0ZXJsaW1pdDo0O3N0cm9rZS1kYXNoYXJyYXk6bm9uZTtzdHJva2Utb3BhY2l0eToxIiBpZD0icGF0aDcwIi8+PHBhdGggZD0iTSAzNzAuNDMsMTE3LjUxNiAzMDIuMzA1LDYyLjUxMTciIHN0eWxlPSJmaWxsOm5vbmU7c3Ryb2tlOiNmZmZmZmY7c3Ryb2tlLXdpZHRoOjEuMDAwMDU5OTY7c3Ryb2tlLWxpbmVjYXA6YnV0dDtzdHJva2UtbGluZWpvaW46cm91bmQ7c3Ryb2tlLW1pdGVybGltaXQ6NDtzdHJva2UtZGFzaGFycmF5Om5vbmU7c3Ryb2tlLW9wYWNpdHk6MSIgaWQ9InBhdGg3MiIvPjxwYXRoIGQ9Ik0gNjkuMzAwOCw2OC4zMTI1IEggMzExLjgxNiIgc3R5bGU9ImZpbGw6bm9uZTtzdHJva2U6I2ZmZmZmZjtzdHJva2Utd2lkdGg6MS4wMDAwNTk5NjtzdHJva2UtbGluZWNhcDpidXR0O3N0cm9rZS1saW5lam9pbjpyb3VuZDtzdHJva2UtbWl0ZXJsaW1pdDo0O3N0cm9rZS1kYXNoYXJyYXk6bm9uZTtzdHJva2Utb3BhY2l0eToxIiBpZD0icGF0aDc0Ii8+PHBhdGggZD0iTSA4NS42MDk0LDgwLjkxOCBIIDMyNC4zNzUiIHN0eWxlPSJmaWxsOm5vbmU7c3Ryb2tlOiNmZmZmZmY7c3Ryb2tlLXdpZHRoOjEuMDAwMDU5OTY7c3Ryb2tlLWxpbmVjYXA6YnV0dDtzdHJva2UtbGluZWpvaW46cm91bmQ7c3Ryb2tlLW1pdGVybGltaXQ6NDtzdHJva2UtZGFzaGFycmF5Om5vbmU7c3Ryb2tlLW9wYWNpdHk6MSIgaWQ9InBhdGg3NiIvPjxwYXRoIGQ9Ik0gMTAyLjUyMyw5My41MTk1IEggMzQwLjY2NCIgc3R5bGU9ImZpbGw6bm9uZTtzdHJva2U6I2ZmZmZmZjtzdHJva2Utd2lkdGg6MS4wMDAwNTk5NjtzdHJva2UtbGluZWNhcDpidXR0O3N0cm9rZS1saW5lam9pbjpyb3VuZDtzdHJva2UtbWl0ZXJsaW1pdDo0O3N0cm9rZS1kYXNoYXJyYXk6bm9uZTtzdHJva2Utb3BhY2l0eToxIiBpZD0icGF0aDc4Ii8+PHBhdGggZD0iTSAxMTcuNTgyLDEwNi4xMjkgSCAzNTcuNTk4IiBzdHlsZT0iZmlsbDpub25lO3N0cm9rZTojZmZmZmZmO3N0cm9rZS13aWR0aDoxLjAwMDA1OTk2O3N0cm9rZS1saW5lY2FwOmJ1dHQ7c3Ryb2tlLWxpbmVqb2luOnJvdW5kO3N0cm9rZS1taXRlcmxpbWl0OjQ7c3Ryb2tlLWRhc2hhcnJheTpub25lO3N0cm9rZS1vcGFjaXR5OjEiIGlkPSJwYXRoODAiLz48L2c+PC9nPjwvZz48L2c+PC9zdmc+;fillColor=#A8DADC;strokeColor=#457B9D;fontColor=#1D3557;" vertex="1" parent="1">
          <mxGeometry x="130" y="130" width="58" height="40" as="geometry" />
        </mxCell>
        <mxCell id="MO61QK-5C1BGWu0sTS1N-12" value="" style="shape=image;verticalLabelPosition=bottom;labelBackgroundColor=none;verticalAlign=top;aspect=fixed;imageAspect=0;image=data:image/svg+xml,PHN2ZyB4bWxucz0iaHR0cDovL3d3dy53My5vcmcvMjAwMC9zdmciIHZlcnNpb249IjEuMSIgaWQ9InN2ZzIiIHhtbDpzcGFjZT0icHJlc2VydmUiIHdpZHRoPSI1Ny45MDY2NjYiIGhlaWdodD0iMzkuNzg2NjY3IiB2aWV3Qm94PSIwIDAgNTcuOTA2NjY2IDM5Ljc4NjY2NyI+PG1ldGFkYXRhIGlkPSJtZXRhZGF0YTgiPmltYWdlL3N2Zyt4bWw8L21ldGFkYXRhPjxkZWZzIGlkPSJkZWZzNiI+PGNsaXBQYXRoIGNsaXBQYXRoVW5pdHM9InVzZXJTcGFjZU9uVXNlIiBpZD0iY2xpcFBhdGgyMCI+PHBhdGggZD0iTSAwLDI5OCBIIDQzMCBWIDAgSCAwIFoiIGlkPSJwYXRoMTgiLz48L2NsaXBQYXRoPjwvZGVmcz48ZyBpZD0iZzEwIiB0cmFuc2Zvcm09Im1hdHJpeCgxLjMzMzMzMzMsMCwwLC0xLjMzMzMzMzMsMCwzOS43ODY2NjcpIj48ZyBpZD0iZzEyIiB0cmFuc2Zvcm09InNjYWxlKDAuMSkiPjxnIGlkPSJnMTQiPjxnIGlkPSJnMTYiIGNsaXAtcGF0aD0idXJsKCNjbGlwUGF0aDIwKSI+PHBhdGggZD0ibSA0MjEuNzM4LDI5My42OTUgMTAuNDEsLTEzLjQ3NiAtMjguMTY0LC0xNTQuMzUyIC0xMi44NzEsNy45NjUgMzAuNjI1LDE1OS44NjMiIHN0eWxlPSJmaWxsOiMwMjcwOWY7ZmlsbC1vcGFjaXR5OjE7ZmlsbC1ydWxlOm5vbnplcm87c3Ryb2tlOm5vbmUiIGlkPSJwYXRoMjIiLz48cGF0aCBkPSJtIDQyMS43MzgsMjkzLjY5NSAxMC40MSwtMTMuNDc2IC0yOC4xNjQsLTE1NC4zNTIgLTEyLjg3MSw3Ljk2NSB6IiBzdHlsZT0iZmlsbDpub25lO3N0cm9rZTojZmZmZmZmO3N0cm9rZS13aWR0aDozLjk5OTkzOTkyO3N0cm9rZS1saW5lY2FwOmJ1dHQ7c3Ryb2tlLWxpbmVqb2luOm1pdGVyO3N0cm9rZS1taXRlcmxpbWl0OjQ7c3Ryb2tlLWRhc2hhcnJheTpub25lO3N0cm9rZS1vcGFjaXR5OjEiIGlkPSJwYXRoMjQiLz48cGF0aCBkPSJtIDEyMC4zOTUsMTMzLjgzMiAxMS42NCwtNy45NjUgaCAyNzEuOTQ5IGwgLTEyLjg3MSw3Ljk2NSBIIDEyMC4zOTUiIHN0eWxlPSJmaWxsOiMwMDAwMDA7ZmlsbC1vcGFjaXR5OjE7ZmlsbC1ydWxlOm5vbnplcm87c3Ryb2tlOm5vbmUiIGlkPSJwYXRoMjYiLz48cGF0aCBkPSJtIDEyMC4zOTUsMTMzLjgzMiAxMS42NCwtNy45NjUgaCAyNzEuOTQ5IGwgLTEyLjg3MSw3Ljk2NSB6IiBzdHlsZT0iZmlsbDpub25lO3N0cm9rZTojZmZmZmZmO3N0cm9rZS13aWR0aDoxLjk5OTk2OTk2O3N0cm9rZS1saW5lY2FwOmJ1dHQ7c3Ryb2tlLWxpbmVqb2luOm1pdGVyO3N0cm9rZS1taXRlcmxpbWl0OjQ7c3Ryb2tlLWRhc2hhcnJheTpub25lO3N0cm9rZS1vcGFjaXR5OjEiIGlkPSJwYXRoMjgiLz48cGF0aCBkPSJNIDM5My41NzQsMTIxLjI3MyBWIDk0LjAyMzQgbCAtNy4wNTEsLTYuMTI4OSBjIDAsMCAtMTYuNTQzLC00Ljg5ODQgLTEyLjg3MSwtMTQuNjk1MyBMIDI5OS44NjMsNC41ODk4NCBWIDM0LjYwOTQgbCA5My43MTEsODYuNjYzNiIgc3R5bGU9ImZpbGw6IzAyNzA5ZjtmaWxsLW9wYWNpdHk6MTtmaWxsLXJ1bGU6bm9uemVybztzdHJva2U6bm9uZSIgaWQ9InBhdGgzMCIvPjxwYXRoIGQ9Ik0gMzkzLjU3NCwxMjEuMjczIFYgOTQuMDIzNCBsIC03LjA1MSwtNi4xMjg5IGMgMCwwIC0xNi41NDMsLTQuODk4NCAtMTIuODcxLC0xNC42OTUzIEwgMjk5Ljg2Myw0LjU4OTg0IFYgMzQuNjA5NCBaIiBzdHlsZT0iZmlsbDpub25lO3N0cm9rZTojZmZmZmZmO3N0cm9rZS13aWR0aDozLjk5OTkzOTkyO3N0cm9rZS1saW5lY2FwOmJ1dHQ7c3Ryb2tlLWxpbmVqb2luOm1pdGVyO3N0cm9rZS1taXRlcmxpbWl0OjQ7c3Ryb2tlLWRhc2hhcnJheTpub25lO3N0cm9rZS1vcGFjaXR5OjEiIGlkPSJwYXRoMzIiLz48cGF0aCBkPSJtIDYuMTc1NzgsNC41ODk4NCBoIDI5My42ODggdiAzMC4wMTk1IEggNi4xNzU3OCBaIiBzdHlsZT0iZmlsbDojMDI3MDlmO2ZpbGwtb3BhY2l0eToxO2ZpbGwtcnVsZTpub256ZXJvO3N0cm9rZTpub25lIiBpZD0icGF0aDM0Ii8+PHBhdGggZD0iTSA2LjE3NTc4LDM0LjYwOTQgViA0LjU4OTg0IEggMjk5Ljg2MyBWIDM0LjYwOTQgSCA2LjE3NTc4IiBzdHlsZT0iZmlsbDpub25lO3N0cm9rZTojZmZmZmZmO3N0cm9rZS13aWR0aDozLjk5OTkzOTkyO3N0cm9rZS1saW5lY2FwOmJ1dHQ7c3Ryb2tlLWxpbmVqb2luOm1pdGVyO3N0cm9rZS1taXRlcmxpbWl0OjQ7c3Ryb2tlLWRhc2hhcnJheTpub25lO3N0cm9rZS1vcGFjaXR5OjEiIGlkPSJwYXRoMzYiLz48cGF0aCBkPSJtIDEyMy40NjEsMTE5LjQzOCAyNzAuMTEzLDEuODM1IC05My43MTEsLTg2LjY2MzYgSCA2LjE3NTc4IEwgMTIzLjQ2MSwxMTkuNDM4IiBzdHlsZT0iZmlsbDojMDI3MDlmO2ZpbGwtb3BhY2l0eToxO2ZpbGwtcnVsZTpub256ZXJvO3N0cm9rZTpub25lIiBpZD0icGF0aDM4Ii8+PHBhdGggZD0ibSAxMjMuNDYxLDExOS40MzggMjcwLjExMywxLjgzNSAtOTMuNzExLC04Ni42NjM2IEggNi4xNzU3OCBaIiBzdHlsZT0iZmlsbDpub25lO3N0cm9rZTojZmZmZmZmO3N0cm9rZS13aWR0aDozLjk5OTkzOTkyO3N0cm9rZS1saW5lY2FwOmJ1dHQ7c3Ryb2tlLWxpbmVqb2luOm1pdGVyO3N0cm9rZS1taXRlcmxpbWl0OjQ7c3Ryb2tlLWRhc2hhcnJheTpub25lO3N0cm9rZS1vcGFjaXR5OjEiIGlkPSJwYXRoNDAiLz48cGF0aCBkPSJtIDM5MS4xMTMsMTMzLjgzMiAzMC42MjUsMTU5Ljg2MyBIIDE1NS4zMTYgTCAxMjAuMzk1LDEzMy44MzIgaCAyNzAuNzE4IiBzdHlsZT0iZmlsbDojMDI3MDlmO2ZpbGwtb3BhY2l0eToxO2ZpbGwtcnVsZTpub256ZXJvO3N0cm9rZTpub25lIiBpZD0icGF0aDQyIi8+PHBhdGggZD0ibSAzOTEuMTEzLDEzMy44MzIgMzAuNjI1LDE1OS44NjMgSCAxNTUuMzE2IEwgMTIwLjM5NSwxMzMuODMyIFoiIHN0eWxlPSJmaWxsOm5vbmU7c3Ryb2tlOiNmZmZmZmY7c3Ryb2tlLXdpZHRoOjMuOTk5OTM5OTI7c3Ryb2tlLWxpbmVjYXA6YnV0dDtzdHJva2UtbGluZWpvaW46bWl0ZXI7c3Ryb2tlLW1pdGVybGltaXQ6NDtzdHJva2UtZGFzaGFycmF5Om5vbmU7c3Ryb2tlLW9wYWNpdHk6MSIgaWQ9InBhdGg0NCIvPjxwYXRoIGQ9Ik0gMzY4LjUxNiwxNTEuNzE5IDM5Mi4wOSwyNzEuNzcgSCAxNzUuNDUzIEwgMTUxLjg3OSwxNTEuNzE5IGggMjE2LjYzNyIgc3R5bGU9ImZpbGw6IzAyNzA5ZjtmaWxsLW9wYWNpdHk6MTtmaWxsLXJ1bGU6bm9uemVybztzdHJva2U6bm9uZSIgaWQ9InBhdGg0NiIvPjxwYXRoIGQ9Ik0gMzY4LjUxNiwxNTEuNzE5IDM5Mi4wOSwyNzEuNzcgSCAxNzUuNDUzIEwgMTUxLjg3OSwxNTEuNzE5IFoiIHN0eWxlPSJmaWxsOm5vbmU7c3Ryb2tlOiNmZmZmZmY7c3Ryb2tlLXdpZHRoOjMuOTk5OTM5OTI7c3Ryb2tlLWxpbmVjYXA6YnV0dDtzdHJva2UtbGluZWpvaW46bWl0ZXI7c3Ryb2tlLW1pdGVybGltaXQ6NDtzdHJva2UtZGFzaGFycmF5Om5vbmU7c3Ryb2tlLW9wYWNpdHk6MSIgaWQ9InBhdGg0OCIvPjxwYXRoIGQ9Ik0gMTI5LjgwOSwxMTcuNTE2IDYxLjY4MzYsNjIuNTExNyIgc3R5bGU9ImZpbGw6bm9uZTtzdHJva2U6I2ZmZmZmZjtzdHJva2Utd2lkdGg6MS4wMDAwNTk5NjtzdHJva2UtbGluZWNhcDpidXR0O3N0cm9rZS1saW5lam9pbjpyb3VuZDtzdHJva2UtbWl0ZXJsaW1pdDo0O3N0cm9rZS1kYXNoYXJyYXk6bm9uZTtzdHJva2Utb3BhY2l0eToxIiBpZD0icGF0aDUwIi8+PHBhdGggZD0iTSAxNTEuNjg0LDExNy41MTYgODMuNTU4Niw2Mi41MTE3IiBzdHlsZT0iZmlsbDpub25lO3N0cm9rZTojZmZmZmZmO3N0cm9rZS13aWR0aDoxLjAwMDA1OTk2O3N0cm9rZS1saW5lY2FwOmJ1dHQ7c3Ryb2tlLWxpbmVqb2luOnJvdW5kO3N0cm9rZS1taXRlcmxpbWl0OjQ7c3Ryb2tlLWRhc2hhcnJheTpub25lO3N0cm9rZS1vcGFjaXR5OjEiIGlkPSJwYXRoNTIiLz48cGF0aCBkPSJNIDE3My41NTksMTE3LjUxNiAxMDUuNDM0LDYyLjUxMTciIHN0eWxlPSJmaWxsOm5vbmU7c3Ryb2tlOiNmZmZmZmY7c3Ryb2tlLXdpZHRoOjEuMDAwMDU5OTY7c3Ryb2tlLWxpbmVjYXA6YnV0dDtzdHJva2UtbGluZWpvaW46cm91bmQ7c3Ryb2tlLW1pdGVybGltaXQ6NDtzdHJva2UtZGFzaGFycmF5Om5vbmU7c3Ryb2tlLW9wYWNpdHk6MSIgaWQ9InBhdGg1NCIvPjxwYXRoIGQ9Ik0gMTk1LjQzNCwxMTcuNTE2IDEyNy4zMDksNjIuNTExNyIgc3R5bGU9ImZpbGw6bm9uZTtzdHJva2U6I2ZmZmZmZjtzdHJva2Utd2lkdGg6MS4wMDAwNTk5NjtzdHJva2UtbGluZWNhcDpidXR0O3N0cm9rZS1saW5lam9pbjpyb3VuZDtzdHJva2UtbWl0ZXJsaW1pdDo0O3N0cm9rZS1kYXNoYXJyYXk6bm9uZTtzdHJva2Utb3BhY2l0eToxIiBpZD0icGF0aDU2Ii8+PHBhdGggZD0iTSAyMTcuMzA1LDExNy41MTYgMTQ5LjE4NCw2Mi41MTE3IiBzdHlsZT0iZmlsbDpub25lO3N0cm9rZTojZmZmZmZmO3N0cm9rZS13aWR0aDoxLjAwMDA1OTk2O3N0cm9rZS1saW5lY2FwOmJ1dHQ7c3Ryb2tlLWxpbmVqb2luOnJvdW5kO3N0cm9rZS1taXRlcmxpbWl0OjQ7c3Ryb2tlLWRhc2hhcnJheTpub25lO3N0cm9rZS1vcGFjaXR5OjEiIGlkPSJwYXRoNTgiLz48cGF0aCBkPSJNIDIzOS4xOCwxMTcuNTE2IDE3MS4wNTksNjIuNTExNyIgc3R5bGU9ImZpbGw6bm9uZTtzdHJva2U6I2ZmZmZmZjtzdHJva2Utd2lkdGg6MS4wMDAwNTk5NjtzdHJva2UtbGluZWNhcDpidXR0O3N0cm9rZS1saW5lam9pbjpyb3VuZDtzdHJva2UtbWl0ZXJsaW1pdDo0O3N0cm9rZS1kYXNoYXJyYXk6bm9uZTtzdHJva2Utb3BhY2l0eToxIiBpZD0icGF0aDYwIi8+PHBhdGggZD0iTSAyNjEuMDU1LDExNy41MTYgMTkyLjkzNCw2Mi41MTE3IiBzdHlsZT0iZmlsbDpub25lO3N0cm9rZTojZmZmZmZmO3N0cm9rZS13aWR0aDoxLjAwMDA1OTk2O3N0cm9rZS1saW5lY2FwOmJ1dHQ7c3Ryb2tlLWxpbmVqb2luOnJvdW5kO3N0cm9rZS1taXRlcmxpbWl0OjQ7c3Ryb2tlLWRhc2hhcnJheTpub25lO3N0cm9rZS1vcGFjaXR5OjEiIGlkPSJwYXRoNjIiLz48cGF0aCBkPSJNIDI4Mi45MywxMTcuNTE2IDIxNC44MDUsNjIuNTExNyIgc3R5bGU9ImZpbGw6bm9uZTtzdHJva2U6I2ZmZmZmZjtzdHJva2Utd2lkdGg6MS4wMDAwNTk5NjtzdHJva2UtbGluZWNhcDpidXR0O3N0cm9rZS1saW5lam9pbjpyb3VuZDtzdHJva2UtbWl0ZXJsaW1pdDo0O3N0cm9rZS1kYXNoYXJyYXk6bm9uZTtzdHJva2Utb3BhY2l0eToxIiBpZD0icGF0aDY0Ii8+PHBhdGggZD0iTSAzMDQuODA1LDExNy41MTYgMjM2LjY4LDYyLjUxMTciIHN0eWxlPSJmaWxsOm5vbmU7c3Ryb2tlOiNmZmZmZmY7c3Ryb2tlLXdpZHRoOjEuMDAwMDU5OTY7c3Ryb2tlLWxpbmVjYXA6YnV0dDtzdHJva2UtbGluZWpvaW46cm91bmQ7c3Ryb2tlLW1pdGVybGltaXQ6NDtzdHJva2UtZGFzaGFycmF5Om5vbmU7c3Ryb2tlLW9wYWNpdHk6MSIgaWQ9InBhdGg2NiIvPjxwYXRoIGQ9Ik0gMzI2LjY4LDExNy41MTYgMjU4LjU1NSw2Mi41MTE3IiBzdHlsZT0iZmlsbDpub25lO3N0cm9rZTojZmZmZmZmO3N0cm9rZS13aWR0aDoxLjAwMDA1OTk2O3N0cm9rZS1saW5lY2FwOmJ1dHQ7c3Ryb2tlLWxpbmVqb2luOnJvdW5kO3N0cm9rZS1taXRlcmxpbWl0OjQ7c3Ryb2tlLWRhc2hhcnJheTpub25lO3N0cm9rZS1vcGFjaXR5OjEiIGlkPSJwYXRoNjgiLz48cGF0aCBkPSJNIDM0OC41NTUsMTE3LjUxNiAyODAuNDMsNjIuNTExNyIgc3R5bGU9ImZpbGw6bm9uZTtzdHJva2U6I2ZmZmZmZjtzdHJva2Utd2lkdGg6MS4wMDAwNTk5NjtzdHJva2UtbGluZWNhcDpidXR0O3N0cm9rZS1saW5lam9pbjpyb3VuZDtzdHJva2UtbWl0ZXJsaW1pdDo0O3N0cm9rZS1kYXNoYXJyYXk6bm9uZTtzdHJva2Utb3BhY2l0eToxIiBpZD0icGF0aDcwIi8+PHBhdGggZD0iTSAzNzAuNDMsMTE3LjUxNiAzMDIuMzA1LDYyLjUxMTciIHN0eWxlPSJmaWxsOm5vbmU7c3Ryb2tlOiNmZmZmZmY7c3Ryb2tlLXdpZHRoOjEuMDAwMDU5OTY7c3Ryb2tlLWxpbmVjYXA6YnV0dDtzdHJva2UtbGluZWpvaW46cm91bmQ7c3Ryb2tlLW1pdGVybGltaXQ6NDtzdHJva2UtZGFzaGFycmF5Om5vbmU7c3Ryb2tlLW9wYWNpdHk6MSIgaWQ9InBhdGg3MiIvPjxwYXRoIGQ9Ik0gNjkuMzAwOCw2OC4zMTI1IEggMzExLjgxNiIgc3R5bGU9ImZpbGw6bm9uZTtzdHJva2U6I2ZmZmZmZjtzdHJva2Utd2lkdGg6MS4wMDAwNTk5NjtzdHJva2UtbGluZWNhcDpidXR0O3N0cm9rZS1saW5lam9pbjpyb3VuZDtzdHJva2UtbWl0ZXJsaW1pdDo0O3N0cm9rZS1kYXNoYXJyYXk6bm9uZTtzdHJva2Utb3BhY2l0eToxIiBpZD0icGF0aDc0Ii8+PHBhdGggZD0iTSA4NS42MDk0LDgwLjkxOCBIIDMyNC4zNzUiIHN0eWxlPSJmaWxsOm5vbmU7c3Ryb2tlOiNmZmZmZmY7c3Ryb2tlLXdpZHRoOjEuMDAwMDU5OTY7c3Ryb2tlLWxpbmVjYXA6YnV0dDtzdHJva2UtbGluZWpvaW46cm91bmQ7c3Ryb2tlLW1pdGVybGltaXQ6NDtzdHJva2UtZGFzaGFycmF5Om5vbmU7c3Ryb2tlLW9wYWNpdHk6MSIgaWQ9InBhdGg3NiIvPjxwYXRoIGQ9Ik0gMTAyLjUyMyw5My41MTk1IEggMzQwLjY2NCIgc3R5bGU9ImZpbGw6bm9uZTtzdHJva2U6I2ZmZmZmZjtzdHJva2Utd2lkdGg6MS4wMDAwNTk5NjtzdHJva2UtbGluZWNhcDpidXR0O3N0cm9rZS1saW5lam9pbjpyb3VuZDtzdHJva2UtbWl0ZXJsaW1pdDo0O3N0cm9rZS1kYXNoYXJyYXk6bm9uZTtzdHJva2Utb3BhY2l0eToxIiBpZD0icGF0aDc4Ii8+PHBhdGggZD0iTSAxMTcuNTgyLDEwNi4xMjkgSCAzNTcuNTk4IiBzdHlsZT0iZmlsbDpub25lO3N0cm9rZTojZmZmZmZmO3N0cm9rZS13aWR0aDoxLjAwMDA1OTk2O3N0cm9rZS1saW5lY2FwOmJ1dHQ7c3Ryb2tlLWxpbmVqb2luOnJvdW5kO3N0cm9rZS1taXRlcmxpbWl0OjQ7c3Ryb2tlLWRhc2hhcnJheTpub25lO3N0cm9rZS1vcGFjaXR5OjEiIGlkPSJwYXRoODAiLz48L2c+PC9nPjwvZz48L2c+PC9zdmc+;fillColor=#A8DADC;strokeColor=#457B9D;fontColor=#1D3557;" vertex="1" parent="1">
          <mxGeometry x="130" y="20" width="58" height="40" as="geometry" />
        </mxCell>
        <mxCell id="MO61QK-5C1BGWu0sTS1N-15" style="edgeStyle=orthogonalEdgeStyle;rounded=0;orthogonalLoop=1;jettySize=auto;html=1;entryX=1;entryY=0.25;entryDx=0;entryDy=0;endArrow=none;endFill=0;labelBackgroundColor=none;strokeColor=#457B9D;fontColor=default;" edge="1" parent="1" source="MO61QK-5C1BGWu0sTS1N-17" target="MO61QK-5C1BGWu0sTS1N-22">
          <mxGeometry relative="1" as="geometry">
            <Array as="points">
              <mxPoint x="380" y="360" />
              <mxPoint x="380" y="438" />
            </Array>
          </mxGeometry>
        </mxCell>
        <mxCell id="MO61QK-5C1BGWu0sTS1N-16" style="edgeStyle=orthogonalEdgeStyle;rounded=0;orthogonalLoop=1;jettySize=auto;html=1;entryX=0;entryY=0.25;entryDx=0;entryDy=0;endArrow=none;endFill=0;labelBackgroundColor=none;strokeColor=#457B9D;fontColor=default;" edge="1" parent="1" source="MO61QK-5C1BGWu0sTS1N-17" target="MO61QK-5C1BGWu0sTS1N-22">
          <mxGeometry relative="1" as="geometry">
            <Array as="points">
              <mxPoint x="250" y="360" />
              <mxPoint x="250" y="438" />
            </Array>
          </mxGeometry>
        </mxCell>
        <mxCell id="MO61QK-5C1BGWu0sTS1N-30" style="edgeStyle=orthogonalEdgeStyle;rounded=0;orthogonalLoop=1;jettySize=auto;html=1;entryX=0.5;entryY=1;entryDx=0;entryDy=0;endArrow=none;endFill=0;labelBackgroundColor=none;strokeColor=#457B9D;fontColor=default;" edge="1" parent="1" source="MO61QK-5C1BGWu0sTS1N-17" target="MO61QK-5C1BGWu0sTS1N-27">
          <mxGeometry relative="1" as="geometry" />
        </mxCell>
        <mxCell id="MO61QK-5C1BGWu0sTS1N-17" value="" style="shape=image;verticalLabelPosition=bottom;labelBackgroundColor=none;verticalAlign=top;aspect=fixed;imageAspect=0;image=data:image/svg+xml,PHN2ZyB4bWxucz0iaHR0cDovL3d3dy53My5vcmcvMjAwMC9zdmciIHZlcnNpb249IjEuMSIgaWQ9InN2ZzIiIHhtbDpzcGFjZT0icHJlc2VydmUiIHdpZHRoPSI0OS41NDY2NjUiIGhlaWdodD0iMzMuNTczMzM0IiB2aWV3Qm94PSIwIDAgNDkuNTQ2NjY1IDMzLjU3MzMzNCI+PG1ldGFkYXRhIGlkPSJtZXRhZGF0YTgiPmltYWdlL3N2Zyt4bWw8L21ldGFkYXRhPjxkZWZzIGlkPSJkZWZzNiI+PGNsaXBQYXRoIGNsaXBQYXRoVW5pdHM9InVzZXJTcGFjZU9uVXNlIiBpZD0iY2xpcFBhdGgyMCI+PHBhdGggZD0ibSAwLDEuNzk2ODggaCAzNzAgdiAyNTAgSCAwIFoiIGlkPSJwYXRoMTgiLz48L2NsaXBQYXRoPjwvZGVmcz48ZyBpZD0iZzEwIiB0cmFuc2Zvcm09Im1hdHJpeCgxLjMzMzMzMzMsMCwwLC0xLjMzMzMzMzMsMCwzMy41NzMzMzMpIj48ZyBpZD0iZzEyIiB0cmFuc2Zvcm09InNjYWxlKDAuMSkiPjxnIGlkPSJnMTQiPjxnIGlkPSJnMTYiIGNsaXAtcGF0aD0idXJsKCNjbGlwUGF0aDIwKSI+PHBhdGggZD0ibSAzNjkuODU1LDE3OC4yODEgYyAwLC0zOS41MDQgLTgyLjM0MywtNzEuNTIzIC0xODMuOTI1LC03MS41MjMgQyA4NC4zNDc3LDEwNi43NTggMiwxMzguNzc3IDIsMTc4LjI4MSBWIDczLjUxNTYgYyAwLC0zOS41IDgyLjM0NzcsLTcxLjUyMzQxIDE4My45MywtNzEuNTIzNDEgMTAxLjU4MiwwIDE4My45MjUsMzIuMDIzNDEgMTgzLjkyNSw3MS41MjM0MSBWIDE3OC4yODEiIHN0eWxlPSJmaWxsOiMwMjZjOWI7ZmlsbC1vcGFjaXR5OjE7ZmlsbC1ydWxlOm5vbnplcm87c3Ryb2tlOm5vbmUiIGlkPSJwYXRoMjIiLz48cGF0aCBkPSJtIDM2OS44NTUsMTc4LjI4MSBjIDAsLTM5LjUwNCAtODIuMzQzLC03MS41MjMgLTE4My45MjUsLTcxLjUyMyBDIDg0LjM0NzcsMTA2Ljc1OCAyLDEzOC43NzcgMiwxNzguMjgxIFYgNzMuNTE1NiBjIDAsLTM5LjUgODIuMzQ3NywtNzEuNTIzNDEgMTgzLjkzLC03MS41MjM0MSAxMDEuNTgyLDAgMTgzLjkyNSwzMi4wMjM0MSAxODMuOTI1LDcxLjUyMzQxIHoiIHN0eWxlPSJmaWxsOm5vbmU7c3Ryb2tlOiNmZmZmZmY7c3Ryb2tlLXdpZHRoOjQ7c3Ryb2tlLWxpbmVjYXA6YnV0dDtzdHJva2UtbGluZWpvaW46bWl0ZXI7c3Ryb2tlLW1pdGVybGltaXQ6NDtzdHJva2UtZGFzaGFycmF5Om5vbmU7c3Ryb2tlLW9wYWNpdHk6MSIgaWQ9InBhdGgyNCIvPjxwYXRoIGQ9Im0gMTg1LjkzLDEwNi43NTggYyAxMDEuNTgyLDAgMTgzLjkyNSwzMi4wMTkgMTgzLjkyNSw3MS41MjMgMCwzOS41MTIgLTgyLjM0Myw3MS41MjQgLTE4My45MjUsNzEuNTI0IEMgODQuMzQ3NywyNDkuODA1IDIsMjE3Ljc5MyAyLDE3OC4yODEgMiwxMzguNzc3IDg0LjM0NzcsMTA2Ljc1OCAxODUuOTMsMTA2Ljc1OCIgc3R5bGU9ImZpbGw6IzAyNmM5YjtmaWxsLW9wYWNpdHk6MTtmaWxsLXJ1bGU6bm9uemVybztzdHJva2U6bm9uZSIgaWQ9InBhdGgyNiIvPjxwYXRoIGQ9Im0gMTg1LjkzLDEwNi43NTggYyAxMDEuNTgyLDAgMTgzLjkyNSwzMi4wMTkgMTgzLjkyNSw3MS41MjMgMCwzOS41MTIgLTgyLjM0Myw3MS41MjQgLTE4My45MjUsNzEuNTI0IEMgODQuMzQ3NywyNDkuODA1IDIsMjE3Ljc5MyAyLDE3OC4yODEgMiwxMzguNzc3IDg0LjM0NzcsMTA2Ljc1OCAxODUuOTMsMTA2Ljc1OCBaIiBzdHlsZT0iZmlsbDpub25lO3N0cm9rZTojZmZmZmZmO3N0cm9rZS13aWR0aDo0O3N0cm9rZS1saW5lY2FwOmJ1dHQ7c3Ryb2tlLWxpbmVqb2luOm1pdGVyO3N0cm9rZS1taXRlcmxpbWl0OjQ7c3Ryb2tlLWRhc2hhcnJheTpub25lO3N0cm9rZS1vcGFjaXR5OjEiIGlkPSJwYXRoMjgiLz48cGF0aCBkPSJtIDE0My45MjYsMjA2LjI1IDE1LjE4MywtMjIuNzgxIC01Ny40MjEsLTEzLjI3NCAxMi41NSwxMC40NSAtODguNzQ5NywxNS4xNjggMjIuMjY1NiwxNi42ODcgODUuNjM3MSwtMTQuNSAxMC41MzUsOC4yNSIgc3R5bGU9ImZpbGw6I2ZmZmZmZjtmaWxsLW9wYWNpdHk6MTtmaWxsLXJ1bGU6bm9uemVybztzdHJva2U6bm9uZSIgaWQ9InBhdGgzMCIvPjxwYXRoIGQ9Im0gMjI0LjcyNywxNTEuMDA4IC0xMC4zNjQsMjMuNDg0IDUxLjc5NywxMC4zNTIgLTguOTgsLTguMDQ3IDg2LjMyOCwtMTQuNzQ2IC0yMC43MTUsLTE2LjU3MSAtODUuODEzLDE2LjExNCAtMTIuMjUzLC0xMC41ODYiIHN0eWxlPSJmaWxsOiNmZmZmZmY7ZmlsbC1vcGFjaXR5OjE7ZmlsbC1ydWxlOm5vbnplcm87c3Ryb2tlOm5vbmUiIGlkPSJwYXRoMzIiLz48cGF0aCBkPSJtIDE5Ni40MDYsMjE4LjY5MSA1OC4wMiwxNS44NzkgMC42NzksLTI0Ljg2MyAtMTQuNSwyLjc2NiAtMjguMzA4LC0yMy40ODkgLTI3LjAyNCwzLjk0NiAyOS4yMzEsMjIuOTY4IC0xOC4wOTgsMi43OTMiIHN0eWxlPSJmaWxsOiNmZmZmZmY7ZmlsbC1vcGFjaXR5OjE7ZmlsbC1ydWxlOm5vbnplcm87c3Ryb2tlOm5vbmUiIGlkPSJwYXRoMzQiLz48cGF0aCBkPSJtIDE3MS41NDMsMTI5LjU5IC01NS4yNDIsLTEwLjM1MiAtMi4wNzEsMjUuNTQ3IDE1Ljg3NSwtMy40NDUgMzAuNDE1LDI1Ljk2NSAyNi45MTQsLTQuNTUxIC0zMi40NjEsLTI4LjMyIDE2LjU3LC00Ljg0NCIgc3R5bGU9ImZpbGw6I2ZmZmZmZjtmaWxsLW9wYWNpdHk6MTtmaWxsLXJ1bGU6bm9uemVybztzdHJva2U6bm9uZSIgaWQ9InBhdGgzNiIvPjwvZz48L2c+PC9nPjwvZz48L3N2Zz4=;fillColor=#A8DADC;strokeColor=#457B9D;fontColor=#1D3557;" vertex="1" parent="1">
          <mxGeometry x="287.5" y="340" width="50" height="34" as="geometry" />
        </mxCell>
        <mxCell id="MO61QK-5C1BGWu0sTS1N-18" style="edgeStyle=orthogonalEdgeStyle;rounded=0;orthogonalLoop=1;jettySize=auto;html=1;entryX=0;entryY=0.5;entryDx=0;entryDy=0;endArrow=none;endFill=0;labelBackgroundColor=none;strokeColor=#457B9D;fontColor=default;" edge="1" parent="1" source="MO61QK-5C1BGWu0sTS1N-22" target="MO61QK-5C1BGWu0sTS1N-24">
          <mxGeometry relative="1" as="geometry">
            <Array as="points">
              <mxPoint x="410" y="447" />
              <mxPoint x="410" y="390" />
            </Array>
          </mxGeometry>
        </mxCell>
        <mxCell id="MO61QK-5C1BGWu0sTS1N-19" style="edgeStyle=orthogonalEdgeStyle;rounded=0;orthogonalLoop=1;jettySize=auto;html=1;entryX=0;entryY=0.5;entryDx=0;entryDy=0;endArrow=none;endFill=0;exitX=1;exitY=0.75;exitDx=0;exitDy=0;labelBackgroundColor=none;strokeColor=#457B9D;fontColor=default;" edge="1" parent="1" source="MO61QK-5C1BGWu0sTS1N-22" target="MO61QK-5C1BGWu0sTS1N-23">
          <mxGeometry relative="1" as="geometry">
            <Array as="points">
              <mxPoint x="410" y="455" />
              <mxPoint x="410" y="506" />
            </Array>
          </mxGeometry>
        </mxCell>
        <mxCell id="MO61QK-5C1BGWu0sTS1N-20" style="edgeStyle=orthogonalEdgeStyle;rounded=0;orthogonalLoop=1;jettySize=auto;html=1;entryX=1;entryY=0.5;entryDx=0;entryDy=0;endArrow=none;endFill=0;labelBackgroundColor=none;strokeColor=#457B9D;fontColor=default;" edge="1" parent="1" source="MO61QK-5C1BGWu0sTS1N-22" target="MO61QK-5C1BGWu0sTS1N-26">
          <mxGeometry relative="1" as="geometry">
            <Array as="points">
              <mxPoint x="220" y="447" />
              <mxPoint x="220" y="390" />
            </Array>
          </mxGeometry>
        </mxCell>
        <mxCell id="MO61QK-5C1BGWu0sTS1N-21" style="edgeStyle=orthogonalEdgeStyle;rounded=0;orthogonalLoop=1;jettySize=auto;html=1;entryX=1;entryY=0.5;entryDx=0;entryDy=0;endArrow=none;endFill=0;exitX=0;exitY=0.75;exitDx=0;exitDy=0;labelBackgroundColor=none;strokeColor=#457B9D;fontColor=default;" edge="1" parent="1" source="MO61QK-5C1BGWu0sTS1N-22" target="MO61QK-5C1BGWu0sTS1N-25">
          <mxGeometry relative="1" as="geometry">
            <Array as="points">
              <mxPoint x="220" y="455" />
              <mxPoint x="220" y="506" />
            </Array>
          </mxGeometry>
        </mxCell>
        <mxCell id="MO61QK-5C1BGWu0sTS1N-22" value="" style="shape=image;verticalLabelPosition=bottom;labelBackgroundColor=none;verticalAlign=top;aspect=fixed;imageAspect=0;image=data:image/svg+xml,PHN2ZyB4bWxucz0iaHR0cDovL3d3dy53My5vcmcvMjAwMC9zdmciIHZlcnNpb249IjEuMSIgaWQ9InN2ZzIiIHhtbDpzcGFjZT0icHJlc2VydmUiIHdpZHRoPSI2NS4wODAwMDIiIGhlaWdodD0iMzIuNzQ2NjY2IiB2aWV3Qm94PSIwIDAgNjUuMDgwMDAyIDMyLjc0NjY2NiI+PG1ldGFkYXRhIGlkPSJtZXRhZGF0YTgiPmltYWdlL3N2Zyt4bWw8L21ldGFkYXRhPjxkZWZzIGlkPSJkZWZzNiIvPjxnIGlkPSJnMTAiIHRyYW5zZm9ybT0ibWF0cml4KDEuMzMzMzMzMywwLDAsLTEuMzMzMzMzMywwLDMyLjc0NjY2NykiPjxnIGlkPSJnMTIiIHRyYW5zZm9ybT0ic2NhbGUoMC4xKSI+PHBhdGggZD0ibSA2LjU4MjAzLDguNzU3ODEgaCAzNTcuMTg0IHYgMTE1Ljk1NyBIIDYuNTgyMDMgWiIgc3R5bGU9ImZpbGw6IzAzNjk5ODtmaWxsLW9wYWNpdHk6MTtmaWxsLXJ1bGU6bm9uemVybztzdHJva2U6bm9uZSIgaWQ9InBhdGgxNCIvPjxwYXRoIGQ9Ik0gMzYzLjc2Niw4Ljc1NzgxIFYgMTI0LjcxNSBIIDYuNTgyMDMgViA4Ljc1NzgxIFoiIHN0eWxlPSJmaWxsOm5vbmU7c3Ryb2tlOiNmZmZmZmY7c3Ryb2tlLXdpZHRoOjMuOTk5OTM5OTI7c3Ryb2tlLWxpbmVjYXA6YnV0dDtzdHJva2UtbGluZWpvaW46bWl0ZXI7c3Ryb2tlLW1pdGVybGltaXQ6NDtzdHJva2UtZGFzaGFycmF5Om5vbmU7c3Ryb2tlLW9wYWNpdHk6MSIgaWQ9InBhdGgxNiIvPjxwYXRoIGQ9Ik0gNS42NDQ1MywxMjQuMTMzIDE0OS45MjIsMjQxLjA2MyBIIDQ4My4yMTkgTCAzNjMuNDM0LDEyNC4xMzMgSCA1LjY0NDUzIiBzdHlsZT0iZmlsbDojMDM2OTk4O2ZpbGwtb3BhY2l0eToxO2ZpbGwtcnVsZTpub256ZXJvO3N0cm9rZTpub25lIiBpZD0icGF0aDE4Ii8+PHBhdGggZD0iTSA1LjY0NDUzLDEyNC4xMzMgMTQ5LjkyMiwyNDEuMDYzIEggNDgzLjIxOSBMIDM2My40MzQsMTI0LjEzMyBaIiBzdHlsZT0iZmlsbDpub25lO3N0cm9rZTojZmZmZmZmO3N0cm9rZS13aWR0aDozLjk5OTkzOTkyO3N0cm9rZS1saW5lY2FwOmJ1dHQ7c3Ryb2tlLWxpbmVqb2luOm1pdGVyO3N0cm9rZS1taXRlcmxpbWl0OjQ7c3Ryb2tlLWRhc2hhcnJheTpub25lO3N0cm9rZS1vcGFjaXR5OjEiIGlkPSJwYXRoMjAiLz48cGF0aCBkPSJNIDM2My41Nyw1LjEwNTQ3IDQ4Mi44ODcsMTM0LjAyMyA0ODIuOTY1LDI0MC44NTkgMzYzLjU3LDEyNC4yOTcgViA1LjEwNTQ3IiBzdHlsZT0iZmlsbDojMDM2OTk4O2ZpbGwtb3BhY2l0eToxO2ZpbGwtcnVsZTpub256ZXJvO3N0cm9rZTpub25lIiBpZD0icGF0aDIyIi8+PHBhdGggZD0iTSAzNjMuNTcsNS4xMDU0NyA0ODIuODg3LDEzNC4wMjMgNDgyLjk2NSwyNDAuODU5IDM2My41NywxMjQuMjk3IFoiIHN0eWxlPSJmaWxsOm5vbmU7c3Ryb2tlOiNmZmZmZmY7c3Ryb2tlLXdpZHRoOjMuOTk5OTM5OTI7c3Ryb2tlLWxpbmVjYXA6YnV0dDtzdHJva2UtbGluZWpvaW46bWl0ZXI7c3Ryb2tlLW1pdGVybGltaXQ6NDtzdHJva2UtZGFzaGFycmF5Om5vbmU7c3Ryb2tlLW9wYWNpdHk6MSIgaWQ9InBhdGgyNCIvPjxwYXRoIGQ9Im0gMjE1LjAxNiwxNTQuNTUxIC02LjkzNCwtNS42ODQgaCAtODkuMDc4IGwgLTguODg3LC04Ljg3OSAtMjQuMTQwNCwxMC41MiA0OC41NTQ0LDEzLjg4NyAtOC41OTMsLTkuODQ0IGggODkuMDc4IiBzdHlsZT0iZmlsbDojZmZmZmZmO2ZpbGwtb3BhY2l0eToxO2ZpbGwtcnVsZTpub256ZXJvO3N0cm9rZTpub25lIiBpZD0icGF0aDI2Ii8+PHBhdGggZD0ibSAyODUuMDE2LDE5OC4zMDEgLTYuOTM0LC01LjY4NCBoIC04OS4wNzggbCAtOC44ODcsLTguODc5IC0yNC4xNCwxMC41MiA0OC41NTQsMTMuODg3IC04LjU5MywtOS44NDQgaCA4OS4wNzgiIHN0eWxlPSJmaWxsOiNmZmZmZmY7ZmlsbC1vcGFjaXR5OjE7ZmlsbC1ydWxlOm5vbnplcm87c3Ryb2tlOm5vbmUiIGlkPSJwYXRoMjgiLz48cGF0aCBkPSJtIDIzMC43MzgsMTcwLjAwOCA2LjkxNCw1LjY4MyBoIDg5LjEwMiBsIDguODg3LDguODc5IDI0LjE0LC0xMC41MTkgLTQ4LjU1NCwtMTMuODg3IDguNTkzLDkuODQ0IGggLTg5LjA4MiIgc3R5bGU9ImZpbGw6I2ZmZmZmZjtmaWxsLW9wYWNpdHk6MTtmaWxsLXJ1bGU6bm9uemVybztzdHJva2U6bm9uZSIgaWQ9InBhdGgzMCIvPjxwYXRoIGQ9Im0gMjc2Ljk4OCwyMTMuNzU4IDYuOTE0LDUuNjgzIGggODkuMTAyIGwgOC44ODcsOC44NzkgMjQuMTQsLTEwLjUxOSAtNDguNTU0LC0xMy44ODcgOC41OTMsOS44NDQgaCAtODkuMDgyIiBzdHlsZT0iZmlsbDojZmZmZmZmO2ZpbGwtb3BhY2l0eToxO2ZpbGwtcnVsZTpub256ZXJvO3N0cm9rZTpub25lIiBpZD0icGF0aDMyIi8+PC9nPjwvZz48L3N2Zz4=;fillColor=#A8DADC;strokeColor=#457B9D;fontColor=#1D3557;" vertex="1" parent="1">
          <mxGeometry x="280" y="430" width="65" height="33" as="geometry" />
        </mxCell>
        <mxCell id="MO61QK-5C1BGWu0sTS1N-23" value="" style="shape=image;verticalLabelPosition=bottom;labelBackgroundColor=none;verticalAlign=top;aspect=fixed;imageAspect=0;image=data:image/svg+xml,PHN2ZyB4bWxucz0iaHR0cDovL3d3dy53My5vcmcvMjAwMC9zdmciIHZlcnNpb249IjEuMSIgaWQ9InN2ZzIiIHhtbDpzcGFjZT0icHJlc2VydmUiIHdpZHRoPSI1Ny45MDY2NjYiIGhlaWdodD0iMzkuNzg2NjY3IiB2aWV3Qm94PSIwIDAgNTcuOTA2NjY2IDM5Ljc4NjY2NyI+PG1ldGFkYXRhIGlkPSJtZXRhZGF0YTgiPmltYWdlL3N2Zyt4bWw8L21ldGFkYXRhPjxkZWZzIGlkPSJkZWZzNiI+PGNsaXBQYXRoIGNsaXBQYXRoVW5pdHM9InVzZXJTcGFjZU9uVXNlIiBpZD0iY2xpcFBhdGgyMCI+PHBhdGggZD0iTSAwLDI5OCBIIDQzMCBWIDAgSCAwIFoiIGlkPSJwYXRoMTgiLz48L2NsaXBQYXRoPjwvZGVmcz48ZyBpZD0iZzEwIiB0cmFuc2Zvcm09Im1hdHJpeCgxLjMzMzMzMzMsMCwwLC0xLjMzMzMzMzMsMCwzOS43ODY2NjcpIj48ZyBpZD0iZzEyIiB0cmFuc2Zvcm09InNjYWxlKDAuMSkiPjxnIGlkPSJnMTQiPjxnIGlkPSJnMTYiIGNsaXAtcGF0aD0idXJsKCNjbGlwUGF0aDIwKSI+PHBhdGggZD0ibSA0MjEuNzM4LDI5My42OTUgMTAuNDEsLTEzLjQ3NiAtMjguMTY0LC0xNTQuMzUyIC0xMi44NzEsNy45NjUgMzAuNjI1LDE1OS44NjMiIHN0eWxlPSJmaWxsOiMwMjcwOWY7ZmlsbC1vcGFjaXR5OjE7ZmlsbC1ydWxlOm5vbnplcm87c3Ryb2tlOm5vbmUiIGlkPSJwYXRoMjIiLz48cGF0aCBkPSJtIDQyMS43MzgsMjkzLjY5NSAxMC40MSwtMTMuNDc2IC0yOC4xNjQsLTE1NC4zNTIgLTEyLjg3MSw3Ljk2NSB6IiBzdHlsZT0iZmlsbDpub25lO3N0cm9rZTojZmZmZmZmO3N0cm9rZS13aWR0aDozLjk5OTkzOTkyO3N0cm9rZS1saW5lY2FwOmJ1dHQ7c3Ryb2tlLWxpbmVqb2luOm1pdGVyO3N0cm9rZS1taXRlcmxpbWl0OjQ7c3Ryb2tlLWRhc2hhcnJheTpub25lO3N0cm9rZS1vcGFjaXR5OjEiIGlkPSJwYXRoMjQiLz48cGF0aCBkPSJtIDEyMC4zOTUsMTMzLjgzMiAxMS42NCwtNy45NjUgaCAyNzEuOTQ5IGwgLTEyLjg3MSw3Ljk2NSBIIDEyMC4zOTUiIHN0eWxlPSJmaWxsOiMwMDAwMDA7ZmlsbC1vcGFjaXR5OjE7ZmlsbC1ydWxlOm5vbnplcm87c3Ryb2tlOm5vbmUiIGlkPSJwYXRoMjYiLz48cGF0aCBkPSJtIDEyMC4zOTUsMTMzLjgzMiAxMS42NCwtNy45NjUgaCAyNzEuOTQ5IGwgLTEyLjg3MSw3Ljk2NSB6IiBzdHlsZT0iZmlsbDpub25lO3N0cm9rZTojZmZmZmZmO3N0cm9rZS13aWR0aDoxLjk5OTk2OTk2O3N0cm9rZS1saW5lY2FwOmJ1dHQ7c3Ryb2tlLWxpbmVqb2luOm1pdGVyO3N0cm9rZS1taXRlcmxpbWl0OjQ7c3Ryb2tlLWRhc2hhcnJheTpub25lO3N0cm9rZS1vcGFjaXR5OjEiIGlkPSJwYXRoMjgiLz48cGF0aCBkPSJNIDM5My41NzQsMTIxLjI3MyBWIDk0LjAyMzQgbCAtNy4wNTEsLTYuMTI4OSBjIDAsMCAtMTYuNTQzLC00Ljg5ODQgLTEyLjg3MSwtMTQuNjk1MyBMIDI5OS44NjMsNC41ODk4NCBWIDM0LjYwOTQgbCA5My43MTEsODYuNjYzNiIgc3R5bGU9ImZpbGw6IzAyNzA5ZjtmaWxsLW9wYWNpdHk6MTtmaWxsLXJ1bGU6bm9uemVybztzdHJva2U6bm9uZSIgaWQ9InBhdGgzMCIvPjxwYXRoIGQ9Ik0gMzkzLjU3NCwxMjEuMjczIFYgOTQuMDIzNCBsIC03LjA1MSwtNi4xMjg5IGMgMCwwIC0xNi41NDMsLTQuODk4NCAtMTIuODcxLC0xNC42OTUzIEwgMjk5Ljg2Myw0LjU4OTg0IFYgMzQuNjA5NCBaIiBzdHlsZT0iZmlsbDpub25lO3N0cm9rZTojZmZmZmZmO3N0cm9rZS13aWR0aDozLjk5OTkzOTkyO3N0cm9rZS1saW5lY2FwOmJ1dHQ7c3Ryb2tlLWxpbmVqb2luOm1pdGVyO3N0cm9rZS1taXRlcmxpbWl0OjQ7c3Ryb2tlLWRhc2hhcnJheTpub25lO3N0cm9rZS1vcGFjaXR5OjEiIGlkPSJwYXRoMzIiLz48cGF0aCBkPSJtIDYuMTc1NzgsNC41ODk4NCBoIDI5My42ODggdiAzMC4wMTk1IEggNi4xNzU3OCBaIiBzdHlsZT0iZmlsbDojMDI3MDlmO2ZpbGwtb3BhY2l0eToxO2ZpbGwtcnVsZTpub256ZXJvO3N0cm9rZTpub25lIiBpZD0icGF0aDM0Ii8+PHBhdGggZD0iTSA2LjE3NTc4LDM0LjYwOTQgViA0LjU4OTg0IEggMjk5Ljg2MyBWIDM0LjYwOTQgSCA2LjE3NTc4IiBzdHlsZT0iZmlsbDpub25lO3N0cm9rZTojZmZmZmZmO3N0cm9rZS13aWR0aDozLjk5OTkzOTkyO3N0cm9rZS1saW5lY2FwOmJ1dHQ7c3Ryb2tlLWxpbmVqb2luOm1pdGVyO3N0cm9rZS1taXRlcmxpbWl0OjQ7c3Ryb2tlLWRhc2hhcnJheTpub25lO3N0cm9rZS1vcGFjaXR5OjEiIGlkPSJwYXRoMzYiLz48cGF0aCBkPSJtIDEyMy40NjEsMTE5LjQzOCAyNzAuMTEzLDEuODM1IC05My43MTEsLTg2LjY2MzYgSCA2LjE3NTc4IEwgMTIzLjQ2MSwxMTkuNDM4IiBzdHlsZT0iZmlsbDojMDI3MDlmO2ZpbGwtb3BhY2l0eToxO2ZpbGwtcnVsZTpub256ZXJvO3N0cm9rZTpub25lIiBpZD0icGF0aDM4Ii8+PHBhdGggZD0ibSAxMjMuNDYxLDExOS40MzggMjcwLjExMywxLjgzNSAtOTMuNzExLC04Ni42NjM2IEggNi4xNzU3OCBaIiBzdHlsZT0iZmlsbDpub25lO3N0cm9rZTojZmZmZmZmO3N0cm9rZS13aWR0aDozLjk5OTkzOTkyO3N0cm9rZS1saW5lY2FwOmJ1dHQ7c3Ryb2tlLWxpbmVqb2luOm1pdGVyO3N0cm9rZS1taXRlcmxpbWl0OjQ7c3Ryb2tlLWRhc2hhcnJheTpub25lO3N0cm9rZS1vcGFjaXR5OjEiIGlkPSJwYXRoNDAiLz48cGF0aCBkPSJtIDM5MS4xMTMsMTMzLjgzMiAzMC42MjUsMTU5Ljg2MyBIIDE1NS4zMTYgTCAxMjAuMzk1LDEzMy44MzIgaCAyNzAuNzE4IiBzdHlsZT0iZmlsbDojMDI3MDlmO2ZpbGwtb3BhY2l0eToxO2ZpbGwtcnVsZTpub256ZXJvO3N0cm9rZTpub25lIiBpZD0icGF0aDQyIi8+PHBhdGggZD0ibSAzOTEuMTEzLDEzMy44MzIgMzAuNjI1LDE1OS44NjMgSCAxNTUuMzE2IEwgMTIwLjM5NSwxMzMuODMyIFoiIHN0eWxlPSJmaWxsOm5vbmU7c3Ryb2tlOiNmZmZmZmY7c3Ryb2tlLXdpZHRoOjMuOTk5OTM5OTI7c3Ryb2tlLWxpbmVjYXA6YnV0dDtzdHJva2UtbGluZWpvaW46bWl0ZXI7c3Ryb2tlLW1pdGVybGltaXQ6NDtzdHJva2UtZGFzaGFycmF5Om5vbmU7c3Ryb2tlLW9wYWNpdHk6MSIgaWQ9InBhdGg0NCIvPjxwYXRoIGQ9Ik0gMzY4LjUxNiwxNTEuNzE5IDM5Mi4wOSwyNzEuNzcgSCAxNzUuNDUzIEwgMTUxLjg3OSwxNTEuNzE5IGggMjE2LjYzNyIgc3R5bGU9ImZpbGw6IzAyNzA5ZjtmaWxsLW9wYWNpdHk6MTtmaWxsLXJ1bGU6bm9uemVybztzdHJva2U6bm9uZSIgaWQ9InBhdGg0NiIvPjxwYXRoIGQ9Ik0gMzY4LjUxNiwxNTEuNzE5IDM5Mi4wOSwyNzEuNzcgSCAxNzUuNDUzIEwgMTUxLjg3OSwxNTEuNzE5IFoiIHN0eWxlPSJmaWxsOm5vbmU7c3Ryb2tlOiNmZmZmZmY7c3Ryb2tlLXdpZHRoOjMuOTk5OTM5OTI7c3Ryb2tlLWxpbmVjYXA6YnV0dDtzdHJva2UtbGluZWpvaW46bWl0ZXI7c3Ryb2tlLW1pdGVybGltaXQ6NDtzdHJva2UtZGFzaGFycmF5Om5vbmU7c3Ryb2tlLW9wYWNpdHk6MSIgaWQ9InBhdGg0OCIvPjxwYXRoIGQ9Ik0gMTI5LjgwOSwxMTcuNTE2IDYxLjY4MzYsNjIuNTExNyIgc3R5bGU9ImZpbGw6bm9uZTtzdHJva2U6I2ZmZmZmZjtzdHJva2Utd2lkdGg6MS4wMDAwNTk5NjtzdHJva2UtbGluZWNhcDpidXR0O3N0cm9rZS1saW5lam9pbjpyb3VuZDtzdHJva2UtbWl0ZXJsaW1pdDo0O3N0cm9rZS1kYXNoYXJyYXk6bm9uZTtzdHJva2Utb3BhY2l0eToxIiBpZD0icGF0aDUwIi8+PHBhdGggZD0iTSAxNTEuNjg0LDExNy41MTYgODMuNTU4Niw2Mi41MTE3IiBzdHlsZT0iZmlsbDpub25lO3N0cm9rZTojZmZmZmZmO3N0cm9rZS13aWR0aDoxLjAwMDA1OTk2O3N0cm9rZS1saW5lY2FwOmJ1dHQ7c3Ryb2tlLWxpbmVqb2luOnJvdW5kO3N0cm9rZS1taXRlcmxpbWl0OjQ7c3Ryb2tlLWRhc2hhcnJheTpub25lO3N0cm9rZS1vcGFjaXR5OjEiIGlkPSJwYXRoNTIiLz48cGF0aCBkPSJNIDE3My41NTksMTE3LjUxNiAxMDUuNDM0LDYyLjUxMTciIHN0eWxlPSJmaWxsOm5vbmU7c3Ryb2tlOiNmZmZmZmY7c3Ryb2tlLXdpZHRoOjEuMDAwMDU5OTY7c3Ryb2tlLWxpbmVjYXA6YnV0dDtzdHJva2UtbGluZWpvaW46cm91bmQ7c3Ryb2tlLW1pdGVybGltaXQ6NDtzdHJva2UtZGFzaGFycmF5Om5vbmU7c3Ryb2tlLW9wYWNpdHk6MSIgaWQ9InBhdGg1NCIvPjxwYXRoIGQ9Ik0gMTk1LjQzNCwxMTcuNTE2IDEyNy4zMDksNjIuNTExNyIgc3R5bGU9ImZpbGw6bm9uZTtzdHJva2U6I2ZmZmZmZjtzdHJva2Utd2lkdGg6MS4wMDAwNTk5NjtzdHJva2UtbGluZWNhcDpidXR0O3N0cm9rZS1saW5lam9pbjpyb3VuZDtzdHJva2UtbWl0ZXJsaW1pdDo0O3N0cm9rZS1kYXNoYXJyYXk6bm9uZTtzdHJva2Utb3BhY2l0eToxIiBpZD0icGF0aDU2Ii8+PHBhdGggZD0iTSAyMTcuMzA1LDExNy41MTYgMTQ5LjE4NCw2Mi41MTE3IiBzdHlsZT0iZmlsbDpub25lO3N0cm9rZTojZmZmZmZmO3N0cm9rZS13aWR0aDoxLjAwMDA1OTk2O3N0cm9rZS1saW5lY2FwOmJ1dHQ7c3Ryb2tlLWxpbmVqb2luOnJvdW5kO3N0cm9rZS1taXRlcmxpbWl0OjQ7c3Ryb2tlLWRhc2hhcnJheTpub25lO3N0cm9rZS1vcGFjaXR5OjEiIGlkPSJwYXRoNTgiLz48cGF0aCBkPSJNIDIzOS4xOCwxMTcuNTE2IDE3MS4wNTksNjIuNTExNyIgc3R5bGU9ImZpbGw6bm9uZTtzdHJva2U6I2ZmZmZmZjtzdHJva2Utd2lkdGg6MS4wMDAwNTk5NjtzdHJva2UtbGluZWNhcDpidXR0O3N0cm9rZS1saW5lam9pbjpyb3VuZDtzdHJva2UtbWl0ZXJsaW1pdDo0O3N0cm9rZS1kYXNoYXJyYXk6bm9uZTtzdHJva2Utb3BhY2l0eToxIiBpZD0icGF0aDYwIi8+PHBhdGggZD0iTSAyNjEuMDU1LDExNy41MTYgMTkyLjkzNCw2Mi41MTE3IiBzdHlsZT0iZmlsbDpub25lO3N0cm9rZTojZmZmZmZmO3N0cm9rZS13aWR0aDoxLjAwMDA1OTk2O3N0cm9rZS1saW5lY2FwOmJ1dHQ7c3Ryb2tlLWxpbmVqb2luOnJvdW5kO3N0cm9rZS1taXRlcmxpbWl0OjQ7c3Ryb2tlLWRhc2hhcnJheTpub25lO3N0cm9rZS1vcGFjaXR5OjEiIGlkPSJwYXRoNjIiLz48cGF0aCBkPSJNIDI4Mi45MywxMTcuNTE2IDIxNC44MDUsNjIuNTExNyIgc3R5bGU9ImZpbGw6bm9uZTtzdHJva2U6I2ZmZmZmZjtzdHJva2Utd2lkdGg6MS4wMDAwNTk5NjtzdHJva2UtbGluZWNhcDpidXR0O3N0cm9rZS1saW5lam9pbjpyb3VuZDtzdHJva2UtbWl0ZXJsaW1pdDo0O3N0cm9rZS1kYXNoYXJyYXk6bm9uZTtzdHJva2Utb3BhY2l0eToxIiBpZD0icGF0aDY0Ii8+PHBhdGggZD0iTSAzMDQuODA1LDExNy41MTYgMjM2LjY4LDYyLjUxMTciIHN0eWxlPSJmaWxsOm5vbmU7c3Ryb2tlOiNmZmZmZmY7c3Ryb2tlLXdpZHRoOjEuMDAwMDU5OTY7c3Ryb2tlLWxpbmVjYXA6YnV0dDtzdHJva2UtbGluZWpvaW46cm91bmQ7c3Ryb2tlLW1pdGVybGltaXQ6NDtzdHJva2UtZGFzaGFycmF5Om5vbmU7c3Ryb2tlLW9wYWNpdHk6MSIgaWQ9InBhdGg2NiIvPjxwYXRoIGQ9Ik0gMzI2LjY4LDExNy41MTYgMjU4LjU1NSw2Mi41MTE3IiBzdHlsZT0iZmlsbDpub25lO3N0cm9rZTojZmZmZmZmO3N0cm9rZS13aWR0aDoxLjAwMDA1OTk2O3N0cm9rZS1saW5lY2FwOmJ1dHQ7c3Ryb2tlLWxpbmVqb2luOnJvdW5kO3N0cm9rZS1taXRlcmxpbWl0OjQ7c3Ryb2tlLWRhc2hhcnJheTpub25lO3N0cm9rZS1vcGFjaXR5OjEiIGlkPSJwYXRoNjgiLz48cGF0aCBkPSJNIDM0OC41NTUsMTE3LjUxNiAyODAuNDMsNjIuNTExNyIgc3R5bGU9ImZpbGw6bm9uZTtzdHJva2U6I2ZmZmZmZjtzdHJva2Utd2lkdGg6MS4wMDAwNTk5NjtzdHJva2UtbGluZWNhcDpidXR0O3N0cm9rZS1saW5lam9pbjpyb3VuZDtzdHJva2UtbWl0ZXJsaW1pdDo0O3N0cm9rZS1kYXNoYXJyYXk6bm9uZTtzdHJva2Utb3BhY2l0eToxIiBpZD0icGF0aDcwIi8+PHBhdGggZD0iTSAzNzAuNDMsMTE3LjUxNiAzMDIuMzA1LDYyLjUxMTciIHN0eWxlPSJmaWxsOm5vbmU7c3Ryb2tlOiNmZmZmZmY7c3Ryb2tlLXdpZHRoOjEuMDAwMDU5OTY7c3Ryb2tlLWxpbmVjYXA6YnV0dDtzdHJva2UtbGluZWpvaW46cm91bmQ7c3Ryb2tlLW1pdGVybGltaXQ6NDtzdHJva2UtZGFzaGFycmF5Om5vbmU7c3Ryb2tlLW9wYWNpdHk6MSIgaWQ9InBhdGg3MiIvPjxwYXRoIGQ9Ik0gNjkuMzAwOCw2OC4zMTI1IEggMzExLjgxNiIgc3R5bGU9ImZpbGw6bm9uZTtzdHJva2U6I2ZmZmZmZjtzdHJva2Utd2lkdGg6MS4wMDAwNTk5NjtzdHJva2UtbGluZWNhcDpidXR0O3N0cm9rZS1saW5lam9pbjpyb3VuZDtzdHJva2UtbWl0ZXJsaW1pdDo0O3N0cm9rZS1kYXNoYXJyYXk6bm9uZTtzdHJva2Utb3BhY2l0eToxIiBpZD0icGF0aDc0Ii8+PHBhdGggZD0iTSA4NS42MDk0LDgwLjkxOCBIIDMyNC4zNzUiIHN0eWxlPSJmaWxsOm5vbmU7c3Ryb2tlOiNmZmZmZmY7c3Ryb2tlLXdpZHRoOjEuMDAwMDU5OTY7c3Ryb2tlLWxpbmVjYXA6YnV0dDtzdHJva2UtbGluZWpvaW46cm91bmQ7c3Ryb2tlLW1pdGVybGltaXQ6NDtzdHJva2UtZGFzaGFycmF5Om5vbmU7c3Ryb2tlLW9wYWNpdHk6MSIgaWQ9InBhdGg3NiIvPjxwYXRoIGQ9Ik0gMTAyLjUyMyw5My41MTk1IEggMzQwLjY2NCIgc3R5bGU9ImZpbGw6bm9uZTtzdHJva2U6I2ZmZmZmZjtzdHJva2Utd2lkdGg6MS4wMDAwNTk5NjtzdHJva2UtbGluZWNhcDpidXR0O3N0cm9rZS1saW5lam9pbjpyb3VuZDtzdHJva2UtbWl0ZXJsaW1pdDo0O3N0cm9rZS1kYXNoYXJyYXk6bm9uZTtzdHJva2Utb3BhY2l0eToxIiBpZD0icGF0aDc4Ii8+PHBhdGggZD0iTSAxMTcuNTgyLDEwNi4xMjkgSCAzNTcuNTk4IiBzdHlsZT0iZmlsbDpub25lO3N0cm9rZTojZmZmZmZmO3N0cm9rZS13aWR0aDoxLjAwMDA1OTk2O3N0cm9rZS1saW5lY2FwOmJ1dHQ7c3Ryb2tlLWxpbmVqb2luOnJvdW5kO3N0cm9rZS1taXRlcmxpbWl0OjQ7c3Ryb2tlLWRhc2hhcnJheTpub25lO3N0cm9rZS1vcGFjaXR5OjEiIGlkPSJwYXRoODAiLz48L2c+PC9nPjwvZz48L2c+PC9zdmc+;fillColor=#A8DADC;strokeColor=#457B9D;fontColor=#1D3557;" vertex="1" parent="1">
          <mxGeometry x="446" y="486" width="58" height="40" as="geometry" />
        </mxCell>
        <mxCell id="MO61QK-5C1BGWu0sTS1N-24" value="" style="shape=image;verticalLabelPosition=bottom;labelBackgroundColor=none;verticalAlign=top;aspect=fixed;imageAspect=0;image=data:image/svg+xml,PHN2ZyB4bWxucz0iaHR0cDovL3d3dy53My5vcmcvMjAwMC9zdmciIHZlcnNpb249IjEuMSIgaWQ9InN2ZzIiIHhtbDpzcGFjZT0icHJlc2VydmUiIHdpZHRoPSI1Ny45MDY2NjYiIGhlaWdodD0iMzkuNzg2NjY3IiB2aWV3Qm94PSIwIDAgNTcuOTA2NjY2IDM5Ljc4NjY2NyI+PG1ldGFkYXRhIGlkPSJtZXRhZGF0YTgiPmltYWdlL3N2Zyt4bWw8L21ldGFkYXRhPjxkZWZzIGlkPSJkZWZzNiI+PGNsaXBQYXRoIGNsaXBQYXRoVW5pdHM9InVzZXJTcGFjZU9uVXNlIiBpZD0iY2xpcFBhdGgyMCI+PHBhdGggZD0iTSAwLDI5OCBIIDQzMCBWIDAgSCAwIFoiIGlkPSJwYXRoMTgiLz48L2NsaXBQYXRoPjwvZGVmcz48ZyBpZD0iZzEwIiB0cmFuc2Zvcm09Im1hdHJpeCgxLjMzMzMzMzMsMCwwLC0xLjMzMzMzMzMsMCwzOS43ODY2NjcpIj48ZyBpZD0iZzEyIiB0cmFuc2Zvcm09InNjYWxlKDAuMSkiPjxnIGlkPSJnMTQiPjxnIGlkPSJnMTYiIGNsaXAtcGF0aD0idXJsKCNjbGlwUGF0aDIwKSI+PHBhdGggZD0ibSA0MjEuNzM4LDI5My42OTUgMTAuNDEsLTEzLjQ3NiAtMjguMTY0LC0xNTQuMzUyIC0xMi44NzEsNy45NjUgMzAuNjI1LDE1OS44NjMiIHN0eWxlPSJmaWxsOiMwMjcwOWY7ZmlsbC1vcGFjaXR5OjE7ZmlsbC1ydWxlOm5vbnplcm87c3Ryb2tlOm5vbmUiIGlkPSJwYXRoMjIiLz48cGF0aCBkPSJtIDQyMS43MzgsMjkzLjY5NSAxMC40MSwtMTMuNDc2IC0yOC4xNjQsLTE1NC4zNTIgLTEyLjg3MSw3Ljk2NSB6IiBzdHlsZT0iZmlsbDpub25lO3N0cm9rZTojZmZmZmZmO3N0cm9rZS13aWR0aDozLjk5OTkzOTkyO3N0cm9rZS1saW5lY2FwOmJ1dHQ7c3Ryb2tlLWxpbmVqb2luOm1pdGVyO3N0cm9rZS1taXRlcmxpbWl0OjQ7c3Ryb2tlLWRhc2hhcnJheTpub25lO3N0cm9rZS1vcGFjaXR5OjEiIGlkPSJwYXRoMjQiLz48cGF0aCBkPSJtIDEyMC4zOTUsMTMzLjgzMiAxMS42NCwtNy45NjUgaCAyNzEuOTQ5IGwgLTEyLjg3MSw3Ljk2NSBIIDEyMC4zOTUiIHN0eWxlPSJmaWxsOiMwMDAwMDA7ZmlsbC1vcGFjaXR5OjE7ZmlsbC1ydWxlOm5vbnplcm87c3Ryb2tlOm5vbmUiIGlkPSJwYXRoMjYiLz48cGF0aCBkPSJtIDEyMC4zOTUsMTMzLjgzMiAxMS42NCwtNy45NjUgaCAyNzEuOTQ5IGwgLTEyLjg3MSw3Ljk2NSB6IiBzdHlsZT0iZmlsbDpub25lO3N0cm9rZTojZmZmZmZmO3N0cm9rZS13aWR0aDoxLjk5OTk2OTk2O3N0cm9rZS1saW5lY2FwOmJ1dHQ7c3Ryb2tlLWxpbmVqb2luOm1pdGVyO3N0cm9rZS1taXRlcmxpbWl0OjQ7c3Ryb2tlLWRhc2hhcnJheTpub25lO3N0cm9rZS1vcGFjaXR5OjEiIGlkPSJwYXRoMjgiLz48cGF0aCBkPSJNIDM5My41NzQsMTIxLjI3MyBWIDk0LjAyMzQgbCAtNy4wNTEsLTYuMTI4OSBjIDAsMCAtMTYuNTQzLC00Ljg5ODQgLTEyLjg3MSwtMTQuNjk1MyBMIDI5OS44NjMsNC41ODk4NCBWIDM0LjYwOTQgbCA5My43MTEsODYuNjYzNiIgc3R5bGU9ImZpbGw6IzAyNzA5ZjtmaWxsLW9wYWNpdHk6MTtmaWxsLXJ1bGU6bm9uemVybztzdHJva2U6bm9uZSIgaWQ9InBhdGgzMCIvPjxwYXRoIGQ9Ik0gMzkzLjU3NCwxMjEuMjczIFYgOTQuMDIzNCBsIC03LjA1MSwtNi4xMjg5IGMgMCwwIC0xNi41NDMsLTQuODk4NCAtMTIuODcxLC0xNC42OTUzIEwgMjk5Ljg2Myw0LjU4OTg0IFYgMzQuNjA5NCBaIiBzdHlsZT0iZmlsbDpub25lO3N0cm9rZTojZmZmZmZmO3N0cm9rZS13aWR0aDozLjk5OTkzOTkyO3N0cm9rZS1saW5lY2FwOmJ1dHQ7c3Ryb2tlLWxpbmVqb2luOm1pdGVyO3N0cm9rZS1taXRlcmxpbWl0OjQ7c3Ryb2tlLWRhc2hhcnJheTpub25lO3N0cm9rZS1vcGFjaXR5OjEiIGlkPSJwYXRoMzIiLz48cGF0aCBkPSJtIDYuMTc1NzgsNC41ODk4NCBoIDI5My42ODggdiAzMC4wMTk1IEggNi4xNzU3OCBaIiBzdHlsZT0iZmlsbDojMDI3MDlmO2ZpbGwtb3BhY2l0eToxO2ZpbGwtcnVsZTpub256ZXJvO3N0cm9rZTpub25lIiBpZD0icGF0aDM0Ii8+PHBhdGggZD0iTSA2LjE3NTc4LDM0LjYwOTQgViA0LjU4OTg0IEggMjk5Ljg2MyBWIDM0LjYwOTQgSCA2LjE3NTc4IiBzdHlsZT0iZmlsbDpub25lO3N0cm9rZTojZmZmZmZmO3N0cm9rZS13aWR0aDozLjk5OTkzOTkyO3N0cm9rZS1saW5lY2FwOmJ1dHQ7c3Ryb2tlLWxpbmVqb2luOm1pdGVyO3N0cm9rZS1taXRlcmxpbWl0OjQ7c3Ryb2tlLWRhc2hhcnJheTpub25lO3N0cm9rZS1vcGFjaXR5OjEiIGlkPSJwYXRoMzYiLz48cGF0aCBkPSJtIDEyMy40NjEsMTE5LjQzOCAyNzAuMTEzLDEuODM1IC05My43MTEsLTg2LjY2MzYgSCA2LjE3NTc4IEwgMTIzLjQ2MSwxMTkuNDM4IiBzdHlsZT0iZmlsbDojMDI3MDlmO2ZpbGwtb3BhY2l0eToxO2ZpbGwtcnVsZTpub256ZXJvO3N0cm9rZTpub25lIiBpZD0icGF0aDM4Ii8+PHBhdGggZD0ibSAxMjMuNDYxLDExOS40MzggMjcwLjExMywxLjgzNSAtOTMuNzExLC04Ni42NjM2IEggNi4xNzU3OCBaIiBzdHlsZT0iZmlsbDpub25lO3N0cm9rZTojZmZmZmZmO3N0cm9rZS13aWR0aDozLjk5OTkzOTkyO3N0cm9rZS1saW5lY2FwOmJ1dHQ7c3Ryb2tlLWxpbmVqb2luOm1pdGVyO3N0cm9rZS1taXRlcmxpbWl0OjQ7c3Ryb2tlLWRhc2hhcnJheTpub25lO3N0cm9rZS1vcGFjaXR5OjEiIGlkPSJwYXRoNDAiLz48cGF0aCBkPSJtIDM5MS4xMTMsMTMzLjgzMiAzMC42MjUsMTU5Ljg2MyBIIDE1NS4zMTYgTCAxMjAuMzk1LDEzMy44MzIgaCAyNzAuNzE4IiBzdHlsZT0iZmlsbDojMDI3MDlmO2ZpbGwtb3BhY2l0eToxO2ZpbGwtcnVsZTpub256ZXJvO3N0cm9rZTpub25lIiBpZD0icGF0aDQyIi8+PHBhdGggZD0ibSAzOTEuMTEzLDEzMy44MzIgMzAuNjI1LDE1OS44NjMgSCAxNTUuMzE2IEwgMTIwLjM5NSwxMzMuODMyIFoiIHN0eWxlPSJmaWxsOm5vbmU7c3Ryb2tlOiNmZmZmZmY7c3Ryb2tlLXdpZHRoOjMuOTk5OTM5OTI7c3Ryb2tlLWxpbmVjYXA6YnV0dDtzdHJva2UtbGluZWpvaW46bWl0ZXI7c3Ryb2tlLW1pdGVybGltaXQ6NDtzdHJva2UtZGFzaGFycmF5Om5vbmU7c3Ryb2tlLW9wYWNpdHk6MSIgaWQ9InBhdGg0NCIvPjxwYXRoIGQ9Ik0gMzY4LjUxNiwxNTEuNzE5IDM5Mi4wOSwyNzEuNzcgSCAxNzUuNDUzIEwgMTUxLjg3OSwxNTEuNzE5IGggMjE2LjYzNyIgc3R5bGU9ImZpbGw6IzAyNzA5ZjtmaWxsLW9wYWNpdHk6MTtmaWxsLXJ1bGU6bm9uemVybztzdHJva2U6bm9uZSIgaWQ9InBhdGg0NiIvPjxwYXRoIGQ9Ik0gMzY4LjUxNiwxNTEuNzE5IDM5Mi4wOSwyNzEuNzcgSCAxNzUuNDUzIEwgMTUxLjg3OSwxNTEuNzE5IFoiIHN0eWxlPSJmaWxsOm5vbmU7c3Ryb2tlOiNmZmZmZmY7c3Ryb2tlLXdpZHRoOjMuOTk5OTM5OTI7c3Ryb2tlLWxpbmVjYXA6YnV0dDtzdHJva2UtbGluZWpvaW46bWl0ZXI7c3Ryb2tlLW1pdGVybGltaXQ6NDtzdHJva2UtZGFzaGFycmF5Om5vbmU7c3Ryb2tlLW9wYWNpdHk6MSIgaWQ9InBhdGg0OCIvPjxwYXRoIGQ9Ik0gMTI5LjgwOSwxMTcuNTE2IDYxLjY4MzYsNjIuNTExNyIgc3R5bGU9ImZpbGw6bm9uZTtzdHJva2U6I2ZmZmZmZjtzdHJva2Utd2lkdGg6MS4wMDAwNTk5NjtzdHJva2UtbGluZWNhcDpidXR0O3N0cm9rZS1saW5lam9pbjpyb3VuZDtzdHJva2UtbWl0ZXJsaW1pdDo0O3N0cm9rZS1kYXNoYXJyYXk6bm9uZTtzdHJva2Utb3BhY2l0eToxIiBpZD0icGF0aDUwIi8+PHBhdGggZD0iTSAxNTEuNjg0LDExNy41MTYgODMuNTU4Niw2Mi41MTE3IiBzdHlsZT0iZmlsbDpub25lO3N0cm9rZTojZmZmZmZmO3N0cm9rZS13aWR0aDoxLjAwMDA1OTk2O3N0cm9rZS1saW5lY2FwOmJ1dHQ7c3Ryb2tlLWxpbmVqb2luOnJvdW5kO3N0cm9rZS1taXRlcmxpbWl0OjQ7c3Ryb2tlLWRhc2hhcnJheTpub25lO3N0cm9rZS1vcGFjaXR5OjEiIGlkPSJwYXRoNTIiLz48cGF0aCBkPSJNIDE3My41NTksMTE3LjUxNiAxMDUuNDM0LDYyLjUxMTciIHN0eWxlPSJmaWxsOm5vbmU7c3Ryb2tlOiNmZmZmZmY7c3Ryb2tlLXdpZHRoOjEuMDAwMDU5OTY7c3Ryb2tlLWxpbmVjYXA6YnV0dDtzdHJva2UtbGluZWpvaW46cm91bmQ7c3Ryb2tlLW1pdGVybGltaXQ6NDtzdHJva2UtZGFzaGFycmF5Om5vbmU7c3Ryb2tlLW9wYWNpdHk6MSIgaWQ9InBhdGg1NCIvPjxwYXRoIGQ9Ik0gMTk1LjQzNCwxMTcuNTE2IDEyNy4zMDksNjIuNTExNyIgc3R5bGU9ImZpbGw6bm9uZTtzdHJva2U6I2ZmZmZmZjtzdHJva2Utd2lkdGg6MS4wMDAwNTk5NjtzdHJva2UtbGluZWNhcDpidXR0O3N0cm9rZS1saW5lam9pbjpyb3VuZDtzdHJva2UtbWl0ZXJsaW1pdDo0O3N0cm9rZS1kYXNoYXJyYXk6bm9uZTtzdHJva2Utb3BhY2l0eToxIiBpZD0icGF0aDU2Ii8+PHBhdGggZD0iTSAyMTcuMzA1LDExNy41MTYgMTQ5LjE4NCw2Mi41MTE3IiBzdHlsZT0iZmlsbDpub25lO3N0cm9rZTojZmZmZmZmO3N0cm9rZS13aWR0aDoxLjAwMDA1OTk2O3N0cm9rZS1saW5lY2FwOmJ1dHQ7c3Ryb2tlLWxpbmVqb2luOnJvdW5kO3N0cm9rZS1taXRlcmxpbWl0OjQ7c3Ryb2tlLWRhc2hhcnJheTpub25lO3N0cm9rZS1vcGFjaXR5OjEiIGlkPSJwYXRoNTgiLz48cGF0aCBkPSJNIDIzOS4xOCwxMTcuNTE2IDE3MS4wNTksNjIuNTExNyIgc3R5bGU9ImZpbGw6bm9uZTtzdHJva2U6I2ZmZmZmZjtzdHJva2Utd2lkdGg6MS4wMDAwNTk5NjtzdHJva2UtbGluZWNhcDpidXR0O3N0cm9rZS1saW5lam9pbjpyb3VuZDtzdHJva2UtbWl0ZXJsaW1pdDo0O3N0cm9rZS1kYXNoYXJyYXk6bm9uZTtzdHJva2Utb3BhY2l0eToxIiBpZD0icGF0aDYwIi8+PHBhdGggZD0iTSAyNjEuMDU1LDExNy41MTYgMTkyLjkzNCw2Mi41MTE3IiBzdHlsZT0iZmlsbDpub25lO3N0cm9rZTojZmZmZmZmO3N0cm9rZS13aWR0aDoxLjAwMDA1OTk2O3N0cm9rZS1saW5lY2FwOmJ1dHQ7c3Ryb2tlLWxpbmVqb2luOnJvdW5kO3N0cm9rZS1taXRlcmxpbWl0OjQ7c3Ryb2tlLWRhc2hhcnJheTpub25lO3N0cm9rZS1vcGFjaXR5OjEiIGlkPSJwYXRoNjIiLz48cGF0aCBkPSJNIDI4Mi45MywxMTcuNTE2IDIxNC44MDUsNjIuNTExNyIgc3R5bGU9ImZpbGw6bm9uZTtzdHJva2U6I2ZmZmZmZjtzdHJva2Utd2lkdGg6MS4wMDAwNTk5NjtzdHJva2UtbGluZWNhcDpidXR0O3N0cm9rZS1saW5lam9pbjpyb3VuZDtzdHJva2UtbWl0ZXJsaW1pdDo0O3N0cm9rZS1kYXNoYXJyYXk6bm9uZTtzdHJva2Utb3BhY2l0eToxIiBpZD0icGF0aDY0Ii8+PHBhdGggZD0iTSAzMDQuODA1LDExNy41MTYgMjM2LjY4LDYyLjUxMTciIHN0eWxlPSJmaWxsOm5vbmU7c3Ryb2tlOiNmZmZmZmY7c3Ryb2tlLXdpZHRoOjEuMDAwMDU5OTY7c3Ryb2tlLWxpbmVjYXA6YnV0dDtzdHJva2UtbGluZWpvaW46cm91bmQ7c3Ryb2tlLW1pdGVybGltaXQ6NDtzdHJva2UtZGFzaGFycmF5Om5vbmU7c3Ryb2tlLW9wYWNpdHk6MSIgaWQ9InBhdGg2NiIvPjxwYXRoIGQ9Ik0gMzI2LjY4LDExNy41MTYgMjU4LjU1NSw2Mi41MTE3IiBzdHlsZT0iZmlsbDpub25lO3N0cm9rZTojZmZmZmZmO3N0cm9rZS13aWR0aDoxLjAwMDA1OTk2O3N0cm9rZS1saW5lY2FwOmJ1dHQ7c3Ryb2tlLWxpbmVqb2luOnJvdW5kO3N0cm9rZS1taXRlcmxpbWl0OjQ7c3Ryb2tlLWRhc2hhcnJheTpub25lO3N0cm9rZS1vcGFjaXR5OjEiIGlkPSJwYXRoNjgiLz48cGF0aCBkPSJNIDM0OC41NTUsMTE3LjUxNiAyODAuNDMsNjIuNTExNyIgc3R5bGU9ImZpbGw6bm9uZTtzdHJva2U6I2ZmZmZmZjtzdHJva2Utd2lkdGg6MS4wMDAwNTk5NjtzdHJva2UtbGluZWNhcDpidXR0O3N0cm9rZS1saW5lam9pbjpyb3VuZDtzdHJva2UtbWl0ZXJsaW1pdDo0O3N0cm9rZS1kYXNoYXJyYXk6bm9uZTtzdHJva2Utb3BhY2l0eToxIiBpZD0icGF0aDcwIi8+PHBhdGggZD0iTSAzNzAuNDMsMTE3LjUxNiAzMDIuMzA1LDYyLjUxMTciIHN0eWxlPSJmaWxsOm5vbmU7c3Ryb2tlOiNmZmZmZmY7c3Ryb2tlLXdpZHRoOjEuMDAwMDU5OTY7c3Ryb2tlLWxpbmVjYXA6YnV0dDtzdHJva2UtbGluZWpvaW46cm91bmQ7c3Ryb2tlLW1pdGVybGltaXQ6NDtzdHJva2UtZGFzaGFycmF5Om5vbmU7c3Ryb2tlLW9wYWNpdHk6MSIgaWQ9InBhdGg3MiIvPjxwYXRoIGQ9Ik0gNjkuMzAwOCw2OC4zMTI1IEggMzExLjgxNiIgc3R5bGU9ImZpbGw6bm9uZTtzdHJva2U6I2ZmZmZmZjtzdHJva2Utd2lkdGg6MS4wMDAwNTk5NjtzdHJva2UtbGluZWNhcDpidXR0O3N0cm9rZS1saW5lam9pbjpyb3VuZDtzdHJva2UtbWl0ZXJsaW1pdDo0O3N0cm9rZS1kYXNoYXJyYXk6bm9uZTtzdHJva2Utb3BhY2l0eToxIiBpZD0icGF0aDc0Ii8+PHBhdGggZD0iTSA4NS42MDk0LDgwLjkxOCBIIDMyNC4zNzUiIHN0eWxlPSJmaWxsOm5vbmU7c3Ryb2tlOiNmZmZmZmY7c3Ryb2tlLXdpZHRoOjEuMDAwMDU5OTY7c3Ryb2tlLWxpbmVjYXA6YnV0dDtzdHJva2UtbGluZWpvaW46cm91bmQ7c3Ryb2tlLW1pdGVybGltaXQ6NDtzdHJva2UtZGFzaGFycmF5Om5vbmU7c3Ryb2tlLW9wYWNpdHk6MSIgaWQ9InBhdGg3NiIvPjxwYXRoIGQ9Ik0gMTAyLjUyMyw5My41MTk1IEggMzQwLjY2NCIgc3R5bGU9ImZpbGw6bm9uZTtzdHJva2U6I2ZmZmZmZjtzdHJva2Utd2lkdGg6MS4wMDAwNTk5NjtzdHJva2UtbGluZWNhcDpidXR0O3N0cm9rZS1saW5lam9pbjpyb3VuZDtzdHJva2UtbWl0ZXJsaW1pdDo0O3N0cm9rZS1kYXNoYXJyYXk6bm9uZTtzdHJva2Utb3BhY2l0eToxIiBpZD0icGF0aDc4Ii8+PHBhdGggZD0iTSAxMTcuNTgyLDEwNi4xMjkgSCAzNTcuNTk4IiBzdHlsZT0iZmlsbDpub25lO3N0cm9rZTojZmZmZmZmO3N0cm9rZS13aWR0aDoxLjAwMDA1OTk2O3N0cm9rZS1saW5lY2FwOmJ1dHQ7c3Ryb2tlLWxpbmVqb2luOnJvdW5kO3N0cm9rZS1taXRlcmxpbWl0OjQ7c3Ryb2tlLWRhc2hhcnJheTpub25lO3N0cm9rZS1vcGFjaXR5OjEiIGlkPSJwYXRoODAiLz48L2c+PC9nPjwvZz48L2c+PC9zdmc+;fillColor=#A8DADC;strokeColor=#457B9D;fontColor=#1D3557;" vertex="1" parent="1">
          <mxGeometry x="446" y="370" width="58" height="40" as="geometry" />
        </mxCell>
        <mxCell id="MO61QK-5C1BGWu0sTS1N-25" value="" style="shape=image;verticalLabelPosition=bottom;labelBackgroundColor=none;verticalAlign=top;aspect=fixed;imageAspect=0;image=data:image/svg+xml,PHN2ZyB4bWxucz0iaHR0cDovL3d3dy53My5vcmcvMjAwMC9zdmciIHZlcnNpb249IjEuMSIgaWQ9InN2ZzIiIHhtbDpzcGFjZT0icHJlc2VydmUiIHdpZHRoPSI1Ny45MDY2NjYiIGhlaWdodD0iMzkuNzg2NjY3IiB2aWV3Qm94PSIwIDAgNTcuOTA2NjY2IDM5Ljc4NjY2NyI+PG1ldGFkYXRhIGlkPSJtZXRhZGF0YTgiPmltYWdlL3N2Zyt4bWw8L21ldGFkYXRhPjxkZWZzIGlkPSJkZWZzNiI+PGNsaXBQYXRoIGNsaXBQYXRoVW5pdHM9InVzZXJTcGFjZU9uVXNlIiBpZD0iY2xpcFBhdGgyMCI+PHBhdGggZD0iTSAwLDI5OCBIIDQzMCBWIDAgSCAwIFoiIGlkPSJwYXRoMTgiLz48L2NsaXBQYXRoPjwvZGVmcz48ZyBpZD0iZzEwIiB0cmFuc2Zvcm09Im1hdHJpeCgxLjMzMzMzMzMsMCwwLC0xLjMzMzMzMzMsMCwzOS43ODY2NjcpIj48ZyBpZD0iZzEyIiB0cmFuc2Zvcm09InNjYWxlKDAuMSkiPjxnIGlkPSJnMTQiPjxnIGlkPSJnMTYiIGNsaXAtcGF0aD0idXJsKCNjbGlwUGF0aDIwKSI+PHBhdGggZD0ibSA0MjEuNzM4LDI5My42OTUgMTAuNDEsLTEzLjQ3NiAtMjguMTY0LC0xNTQuMzUyIC0xMi44NzEsNy45NjUgMzAuNjI1LDE1OS44NjMiIHN0eWxlPSJmaWxsOiMwMjcwOWY7ZmlsbC1vcGFjaXR5OjE7ZmlsbC1ydWxlOm5vbnplcm87c3Ryb2tlOm5vbmUiIGlkPSJwYXRoMjIiLz48cGF0aCBkPSJtIDQyMS43MzgsMjkzLjY5NSAxMC40MSwtMTMuNDc2IC0yOC4xNjQsLTE1NC4zNTIgLTEyLjg3MSw3Ljk2NSB6IiBzdHlsZT0iZmlsbDpub25lO3N0cm9rZTojZmZmZmZmO3N0cm9rZS13aWR0aDozLjk5OTkzOTkyO3N0cm9rZS1saW5lY2FwOmJ1dHQ7c3Ryb2tlLWxpbmVqb2luOm1pdGVyO3N0cm9rZS1taXRlcmxpbWl0OjQ7c3Ryb2tlLWRhc2hhcnJheTpub25lO3N0cm9rZS1vcGFjaXR5OjEiIGlkPSJwYXRoMjQiLz48cGF0aCBkPSJtIDEyMC4zOTUsMTMzLjgzMiAxMS42NCwtNy45NjUgaCAyNzEuOTQ5IGwgLTEyLjg3MSw3Ljk2NSBIIDEyMC4zOTUiIHN0eWxlPSJmaWxsOiMwMDAwMDA7ZmlsbC1vcGFjaXR5OjE7ZmlsbC1ydWxlOm5vbnplcm87c3Ryb2tlOm5vbmUiIGlkPSJwYXRoMjYiLz48cGF0aCBkPSJtIDEyMC4zOTUsMTMzLjgzMiAxMS42NCwtNy45NjUgaCAyNzEuOTQ5IGwgLTEyLjg3MSw3Ljk2NSB6IiBzdHlsZT0iZmlsbDpub25lO3N0cm9rZTojZmZmZmZmO3N0cm9rZS13aWR0aDoxLjk5OTk2OTk2O3N0cm9rZS1saW5lY2FwOmJ1dHQ7c3Ryb2tlLWxpbmVqb2luOm1pdGVyO3N0cm9rZS1taXRlcmxpbWl0OjQ7c3Ryb2tlLWRhc2hhcnJheTpub25lO3N0cm9rZS1vcGFjaXR5OjEiIGlkPSJwYXRoMjgiLz48cGF0aCBkPSJNIDM5My41NzQsMTIxLjI3MyBWIDk0LjAyMzQgbCAtNy4wNTEsLTYuMTI4OSBjIDAsMCAtMTYuNTQzLC00Ljg5ODQgLTEyLjg3MSwtMTQuNjk1MyBMIDI5OS44NjMsNC41ODk4NCBWIDM0LjYwOTQgbCA5My43MTEsODYuNjYzNiIgc3R5bGU9ImZpbGw6IzAyNzA5ZjtmaWxsLW9wYWNpdHk6MTtmaWxsLXJ1bGU6bm9uemVybztzdHJva2U6bm9uZSIgaWQ9InBhdGgzMCIvPjxwYXRoIGQ9Ik0gMzkzLjU3NCwxMjEuMjczIFYgOTQuMDIzNCBsIC03LjA1MSwtNi4xMjg5IGMgMCwwIC0xNi41NDMsLTQuODk4NCAtMTIuODcxLC0xNC42OTUzIEwgMjk5Ljg2Myw0LjU4OTg0IFYgMzQuNjA5NCBaIiBzdHlsZT0iZmlsbDpub25lO3N0cm9rZTojZmZmZmZmO3N0cm9rZS13aWR0aDozLjk5OTkzOTkyO3N0cm9rZS1saW5lY2FwOmJ1dHQ7c3Ryb2tlLWxpbmVqb2luOm1pdGVyO3N0cm9rZS1taXRlcmxpbWl0OjQ7c3Ryb2tlLWRhc2hhcnJheTpub25lO3N0cm9rZS1vcGFjaXR5OjEiIGlkPSJwYXRoMzIiLz48cGF0aCBkPSJtIDYuMTc1NzgsNC41ODk4NCBoIDI5My42ODggdiAzMC4wMTk1IEggNi4xNzU3OCBaIiBzdHlsZT0iZmlsbDojMDI3MDlmO2ZpbGwtb3BhY2l0eToxO2ZpbGwtcnVsZTpub256ZXJvO3N0cm9rZTpub25lIiBpZD0icGF0aDM0Ii8+PHBhdGggZD0iTSA2LjE3NTc4LDM0LjYwOTQgViA0LjU4OTg0IEggMjk5Ljg2MyBWIDM0LjYwOTQgSCA2LjE3NTc4IiBzdHlsZT0iZmlsbDpub25lO3N0cm9rZTojZmZmZmZmO3N0cm9rZS13aWR0aDozLjk5OTkzOTkyO3N0cm9rZS1saW5lY2FwOmJ1dHQ7c3Ryb2tlLWxpbmVqb2luOm1pdGVyO3N0cm9rZS1taXRlcmxpbWl0OjQ7c3Ryb2tlLWRhc2hhcnJheTpub25lO3N0cm9rZS1vcGFjaXR5OjEiIGlkPSJwYXRoMzYiLz48cGF0aCBkPSJtIDEyMy40NjEsMTE5LjQzOCAyNzAuMTEzLDEuODM1IC05My43MTEsLTg2LjY2MzYgSCA2LjE3NTc4IEwgMTIzLjQ2MSwxMTkuNDM4IiBzdHlsZT0iZmlsbDojMDI3MDlmO2ZpbGwtb3BhY2l0eToxO2ZpbGwtcnVsZTpub256ZXJvO3N0cm9rZTpub25lIiBpZD0icGF0aDM4Ii8+PHBhdGggZD0ibSAxMjMuNDYxLDExOS40MzggMjcwLjExMywxLjgzNSAtOTMuNzExLC04Ni42NjM2IEggNi4xNzU3OCBaIiBzdHlsZT0iZmlsbDpub25lO3N0cm9rZTojZmZmZmZmO3N0cm9rZS13aWR0aDozLjk5OTkzOTkyO3N0cm9rZS1saW5lY2FwOmJ1dHQ7c3Ryb2tlLWxpbmVqb2luOm1pdGVyO3N0cm9rZS1taXRlcmxpbWl0OjQ7c3Ryb2tlLWRhc2hhcnJheTpub25lO3N0cm9rZS1vcGFjaXR5OjEiIGlkPSJwYXRoNDAiLz48cGF0aCBkPSJtIDM5MS4xMTMsMTMzLjgzMiAzMC42MjUsMTU5Ljg2MyBIIDE1NS4zMTYgTCAxMjAuMzk1LDEzMy44MzIgaCAyNzAuNzE4IiBzdHlsZT0iZmlsbDojMDI3MDlmO2ZpbGwtb3BhY2l0eToxO2ZpbGwtcnVsZTpub256ZXJvO3N0cm9rZTpub25lIiBpZD0icGF0aDQyIi8+PHBhdGggZD0ibSAzOTEuMTEzLDEzMy44MzIgMzAuNjI1LDE1OS44NjMgSCAxNTUuMzE2IEwgMTIwLjM5NSwxMzMuODMyIFoiIHN0eWxlPSJmaWxsOm5vbmU7c3Ryb2tlOiNmZmZmZmY7c3Ryb2tlLXdpZHRoOjMuOTk5OTM5OTI7c3Ryb2tlLWxpbmVjYXA6YnV0dDtzdHJva2UtbGluZWpvaW46bWl0ZXI7c3Ryb2tlLW1pdGVybGltaXQ6NDtzdHJva2UtZGFzaGFycmF5Om5vbmU7c3Ryb2tlLW9wYWNpdHk6MSIgaWQ9InBhdGg0NCIvPjxwYXRoIGQ9Ik0gMzY4LjUxNiwxNTEuNzE5IDM5Mi4wOSwyNzEuNzcgSCAxNzUuNDUzIEwgMTUxLjg3OSwxNTEuNzE5IGggMjE2LjYzNyIgc3R5bGU9ImZpbGw6IzAyNzA5ZjtmaWxsLW9wYWNpdHk6MTtmaWxsLXJ1bGU6bm9uemVybztzdHJva2U6bm9uZSIgaWQ9InBhdGg0NiIvPjxwYXRoIGQ9Ik0gMzY4LjUxNiwxNTEuNzE5IDM5Mi4wOSwyNzEuNzcgSCAxNzUuNDUzIEwgMTUxLjg3OSwxNTEuNzE5IFoiIHN0eWxlPSJmaWxsOm5vbmU7c3Ryb2tlOiNmZmZmZmY7c3Ryb2tlLXdpZHRoOjMuOTk5OTM5OTI7c3Ryb2tlLWxpbmVjYXA6YnV0dDtzdHJva2UtbGluZWpvaW46bWl0ZXI7c3Ryb2tlLW1pdGVybGltaXQ6NDtzdHJva2UtZGFzaGFycmF5Om5vbmU7c3Ryb2tlLW9wYWNpdHk6MSIgaWQ9InBhdGg0OCIvPjxwYXRoIGQ9Ik0gMTI5LjgwOSwxMTcuNTE2IDYxLjY4MzYsNjIuNTExNyIgc3R5bGU9ImZpbGw6bm9uZTtzdHJva2U6I2ZmZmZmZjtzdHJva2Utd2lkdGg6MS4wMDAwNTk5NjtzdHJva2UtbGluZWNhcDpidXR0O3N0cm9rZS1saW5lam9pbjpyb3VuZDtzdHJva2UtbWl0ZXJsaW1pdDo0O3N0cm9rZS1kYXNoYXJyYXk6bm9uZTtzdHJva2Utb3BhY2l0eToxIiBpZD0icGF0aDUwIi8+PHBhdGggZD0iTSAxNTEuNjg0LDExNy41MTYgODMuNTU4Niw2Mi41MTE3IiBzdHlsZT0iZmlsbDpub25lO3N0cm9rZTojZmZmZmZmO3N0cm9rZS13aWR0aDoxLjAwMDA1OTk2O3N0cm9rZS1saW5lY2FwOmJ1dHQ7c3Ryb2tlLWxpbmVqb2luOnJvdW5kO3N0cm9rZS1taXRlcmxpbWl0OjQ7c3Ryb2tlLWRhc2hhcnJheTpub25lO3N0cm9rZS1vcGFjaXR5OjEiIGlkPSJwYXRoNTIiLz48cGF0aCBkPSJNIDE3My41NTksMTE3LjUxNiAxMDUuNDM0LDYyLjUxMTciIHN0eWxlPSJmaWxsOm5vbmU7c3Ryb2tlOiNmZmZmZmY7c3Ryb2tlLXdpZHRoOjEuMDAwMDU5OTY7c3Ryb2tlLWxpbmVjYXA6YnV0dDtzdHJva2UtbGluZWpvaW46cm91bmQ7c3Ryb2tlLW1pdGVybGltaXQ6NDtzdHJva2UtZGFzaGFycmF5Om5vbmU7c3Ryb2tlLW9wYWNpdHk6MSIgaWQ9InBhdGg1NCIvPjxwYXRoIGQ9Ik0gMTk1LjQzNCwxMTcuNTE2IDEyNy4zMDksNjIuNTExNyIgc3R5bGU9ImZpbGw6bm9uZTtzdHJva2U6I2ZmZmZmZjtzdHJva2Utd2lkdGg6MS4wMDAwNTk5NjtzdHJva2UtbGluZWNhcDpidXR0O3N0cm9rZS1saW5lam9pbjpyb3VuZDtzdHJva2UtbWl0ZXJsaW1pdDo0O3N0cm9rZS1kYXNoYXJyYXk6bm9uZTtzdHJva2Utb3BhY2l0eToxIiBpZD0icGF0aDU2Ii8+PHBhdGggZD0iTSAyMTcuMzA1LDExNy41MTYgMTQ5LjE4NCw2Mi41MTE3IiBzdHlsZT0iZmlsbDpub25lO3N0cm9rZTojZmZmZmZmO3N0cm9rZS13aWR0aDoxLjAwMDA1OTk2O3N0cm9rZS1saW5lY2FwOmJ1dHQ7c3Ryb2tlLWxpbmVqb2luOnJvdW5kO3N0cm9rZS1taXRlcmxpbWl0OjQ7c3Ryb2tlLWRhc2hhcnJheTpub25lO3N0cm9rZS1vcGFjaXR5OjEiIGlkPSJwYXRoNTgiLz48cGF0aCBkPSJNIDIzOS4xOCwxMTcuNTE2IDE3MS4wNTksNjIuNTExNyIgc3R5bGU9ImZpbGw6bm9uZTtzdHJva2U6I2ZmZmZmZjtzdHJva2Utd2lkdGg6MS4wMDAwNTk5NjtzdHJva2UtbGluZWNhcDpidXR0O3N0cm9rZS1saW5lam9pbjpyb3VuZDtzdHJva2UtbWl0ZXJsaW1pdDo0O3N0cm9rZS1kYXNoYXJyYXk6bm9uZTtzdHJva2Utb3BhY2l0eToxIiBpZD0icGF0aDYwIi8+PHBhdGggZD0iTSAyNjEuMDU1LDExNy41MTYgMTkyLjkzNCw2Mi41MTE3IiBzdHlsZT0iZmlsbDpub25lO3N0cm9rZTojZmZmZmZmO3N0cm9rZS13aWR0aDoxLjAwMDA1OTk2O3N0cm9rZS1saW5lY2FwOmJ1dHQ7c3Ryb2tlLWxpbmVqb2luOnJvdW5kO3N0cm9rZS1taXRlcmxpbWl0OjQ7c3Ryb2tlLWRhc2hhcnJheTpub25lO3N0cm9rZS1vcGFjaXR5OjEiIGlkPSJwYXRoNjIiLz48cGF0aCBkPSJNIDI4Mi45MywxMTcuNTE2IDIxNC44MDUsNjIuNTExNyIgc3R5bGU9ImZpbGw6bm9uZTtzdHJva2U6I2ZmZmZmZjtzdHJva2Utd2lkdGg6MS4wMDAwNTk5NjtzdHJva2UtbGluZWNhcDpidXR0O3N0cm9rZS1saW5lam9pbjpyb3VuZDtzdHJva2UtbWl0ZXJsaW1pdDo0O3N0cm9rZS1kYXNoYXJyYXk6bm9uZTtzdHJva2Utb3BhY2l0eToxIiBpZD0icGF0aDY0Ii8+PHBhdGggZD0iTSAzMDQuODA1LDExNy41MTYgMjM2LjY4LDYyLjUxMTciIHN0eWxlPSJmaWxsOm5vbmU7c3Ryb2tlOiNmZmZmZmY7c3Ryb2tlLXdpZHRoOjEuMDAwMDU5OTY7c3Ryb2tlLWxpbmVjYXA6YnV0dDtzdHJva2UtbGluZWpvaW46cm91bmQ7c3Ryb2tlLW1pdGVybGltaXQ6NDtzdHJva2UtZGFzaGFycmF5Om5vbmU7c3Ryb2tlLW9wYWNpdHk6MSIgaWQ9InBhdGg2NiIvPjxwYXRoIGQ9Ik0gMzI2LjY4LDExNy41MTYgMjU4LjU1NSw2Mi41MTE3IiBzdHlsZT0iZmlsbDpub25lO3N0cm9rZTojZmZmZmZmO3N0cm9rZS13aWR0aDoxLjAwMDA1OTk2O3N0cm9rZS1saW5lY2FwOmJ1dHQ7c3Ryb2tlLWxpbmVqb2luOnJvdW5kO3N0cm9rZS1taXRlcmxpbWl0OjQ7c3Ryb2tlLWRhc2hhcnJheTpub25lO3N0cm9rZS1vcGFjaXR5OjEiIGlkPSJwYXRoNjgiLz48cGF0aCBkPSJNIDM0OC41NTUsMTE3LjUxNiAyODAuNDMsNjIuNTExNyIgc3R5bGU9ImZpbGw6bm9uZTtzdHJva2U6I2ZmZmZmZjtzdHJva2Utd2lkdGg6MS4wMDAwNTk5NjtzdHJva2UtbGluZWNhcDpidXR0O3N0cm9rZS1saW5lam9pbjpyb3VuZDtzdHJva2UtbWl0ZXJsaW1pdDo0O3N0cm9rZS1kYXNoYXJyYXk6bm9uZTtzdHJva2Utb3BhY2l0eToxIiBpZD0icGF0aDcwIi8+PHBhdGggZD0iTSAzNzAuNDMsMTE3LjUxNiAzMDIuMzA1LDYyLjUxMTciIHN0eWxlPSJmaWxsOm5vbmU7c3Ryb2tlOiNmZmZmZmY7c3Ryb2tlLXdpZHRoOjEuMDAwMDU5OTY7c3Ryb2tlLWxpbmVjYXA6YnV0dDtzdHJva2UtbGluZWpvaW46cm91bmQ7c3Ryb2tlLW1pdGVybGltaXQ6NDtzdHJva2UtZGFzaGFycmF5Om5vbmU7c3Ryb2tlLW9wYWNpdHk6MSIgaWQ9InBhdGg3MiIvPjxwYXRoIGQ9Ik0gNjkuMzAwOCw2OC4zMTI1IEggMzExLjgxNiIgc3R5bGU9ImZpbGw6bm9uZTtzdHJva2U6I2ZmZmZmZjtzdHJva2Utd2lkdGg6MS4wMDAwNTk5NjtzdHJva2UtbGluZWNhcDpidXR0O3N0cm9rZS1saW5lam9pbjpyb3VuZDtzdHJva2UtbWl0ZXJsaW1pdDo0O3N0cm9rZS1kYXNoYXJyYXk6bm9uZTtzdHJva2Utb3BhY2l0eToxIiBpZD0icGF0aDc0Ii8+PHBhdGggZD0iTSA4NS42MDk0LDgwLjkxOCBIIDMyNC4zNzUiIHN0eWxlPSJmaWxsOm5vbmU7c3Ryb2tlOiNmZmZmZmY7c3Ryb2tlLXdpZHRoOjEuMDAwMDU5OTY7c3Ryb2tlLWxpbmVjYXA6YnV0dDtzdHJva2UtbGluZWpvaW46cm91bmQ7c3Ryb2tlLW1pdGVybGltaXQ6NDtzdHJva2UtZGFzaGFycmF5Om5vbmU7c3Ryb2tlLW9wYWNpdHk6MSIgaWQ9InBhdGg3NiIvPjxwYXRoIGQ9Ik0gMTAyLjUyMyw5My41MTk1IEggMzQwLjY2NCIgc3R5bGU9ImZpbGw6bm9uZTtzdHJva2U6I2ZmZmZmZjtzdHJva2Utd2lkdGg6MS4wMDAwNTk5NjtzdHJva2UtbGluZWNhcDpidXR0O3N0cm9rZS1saW5lam9pbjpyb3VuZDtzdHJva2UtbWl0ZXJsaW1pdDo0O3N0cm9rZS1kYXNoYXJyYXk6bm9uZTtzdHJva2Utb3BhY2l0eToxIiBpZD0icGF0aDc4Ii8+PHBhdGggZD0iTSAxMTcuNTgyLDEwNi4xMjkgSCAzNTcuNTk4IiBzdHlsZT0iZmlsbDpub25lO3N0cm9rZTojZmZmZmZmO3N0cm9rZS13aWR0aDoxLjAwMDA1OTk2O3N0cm9rZS1saW5lY2FwOmJ1dHQ7c3Ryb2tlLWxpbmVqb2luOnJvdW5kO3N0cm9rZS1taXRlcmxpbWl0OjQ7c3Ryb2tlLWRhc2hhcnJheTpub25lO3N0cm9rZS1vcGFjaXR5OjEiIGlkPSJwYXRoODAiLz48L2c+PC9nPjwvZz48L2c+PC9zdmc+;fillColor=#A8DADC;strokeColor=#457B9D;fontColor=#1D3557;" vertex="1" parent="1">
          <mxGeometry x="130" y="486" width="58" height="40" as="geometry" />
        </mxCell>
        <mxCell id="MO61QK-5C1BGWu0sTS1N-26" value="" style="shape=image;verticalLabelPosition=bottom;labelBackgroundColor=none;verticalAlign=top;aspect=fixed;imageAspect=0;image=data:image/svg+xml,PHN2ZyB4bWxucz0iaHR0cDovL3d3dy53My5vcmcvMjAwMC9zdmciIHZlcnNpb249IjEuMSIgaWQ9InN2ZzIiIHhtbDpzcGFjZT0icHJlc2VydmUiIHdpZHRoPSI1Ny45MDY2NjYiIGhlaWdodD0iMzkuNzg2NjY3IiB2aWV3Qm94PSIwIDAgNTcuOTA2NjY2IDM5Ljc4NjY2NyI+PG1ldGFkYXRhIGlkPSJtZXRhZGF0YTgiPmltYWdlL3N2Zyt4bWw8L21ldGFkYXRhPjxkZWZzIGlkPSJkZWZzNiI+PGNsaXBQYXRoIGNsaXBQYXRoVW5pdHM9InVzZXJTcGFjZU9uVXNlIiBpZD0iY2xpcFBhdGgyMCI+PHBhdGggZD0iTSAwLDI5OCBIIDQzMCBWIDAgSCAwIFoiIGlkPSJwYXRoMTgiLz48L2NsaXBQYXRoPjwvZGVmcz48ZyBpZD0iZzEwIiB0cmFuc2Zvcm09Im1hdHJpeCgxLjMzMzMzMzMsMCwwLC0xLjMzMzMzMzMsMCwzOS43ODY2NjcpIj48ZyBpZD0iZzEyIiB0cmFuc2Zvcm09InNjYWxlKDAuMSkiPjxnIGlkPSJnMTQiPjxnIGlkPSJnMTYiIGNsaXAtcGF0aD0idXJsKCNjbGlwUGF0aDIwKSI+PHBhdGggZD0ibSA0MjEuNzM4LDI5My42OTUgMTAuNDEsLTEzLjQ3NiAtMjguMTY0LC0xNTQuMzUyIC0xMi44NzEsNy45NjUgMzAuNjI1LDE1OS44NjMiIHN0eWxlPSJmaWxsOiMwMjcwOWY7ZmlsbC1vcGFjaXR5OjE7ZmlsbC1ydWxlOm5vbnplcm87c3Ryb2tlOm5vbmUiIGlkPSJwYXRoMjIiLz48cGF0aCBkPSJtIDQyMS43MzgsMjkzLjY5NSAxMC40MSwtMTMuNDc2IC0yOC4xNjQsLTE1NC4zNTIgLTEyLjg3MSw3Ljk2NSB6IiBzdHlsZT0iZmlsbDpub25lO3N0cm9rZTojZmZmZmZmO3N0cm9rZS13aWR0aDozLjk5OTkzOTkyO3N0cm9rZS1saW5lY2FwOmJ1dHQ7c3Ryb2tlLWxpbmVqb2luOm1pdGVyO3N0cm9rZS1taXRlcmxpbWl0OjQ7c3Ryb2tlLWRhc2hhcnJheTpub25lO3N0cm9rZS1vcGFjaXR5OjEiIGlkPSJwYXRoMjQiLz48cGF0aCBkPSJtIDEyMC4zOTUsMTMzLjgzMiAxMS42NCwtNy45NjUgaCAyNzEuOTQ5IGwgLTEyLjg3MSw3Ljk2NSBIIDEyMC4zOTUiIHN0eWxlPSJmaWxsOiMwMDAwMDA7ZmlsbC1vcGFjaXR5OjE7ZmlsbC1ydWxlOm5vbnplcm87c3Ryb2tlOm5vbmUiIGlkPSJwYXRoMjYiLz48cGF0aCBkPSJtIDEyMC4zOTUsMTMzLjgzMiAxMS42NCwtNy45NjUgaCAyNzEuOTQ5IGwgLTEyLjg3MSw3Ljk2NSB6IiBzdHlsZT0iZmlsbDpub25lO3N0cm9rZTojZmZmZmZmO3N0cm9rZS13aWR0aDoxLjk5OTk2OTk2O3N0cm9rZS1saW5lY2FwOmJ1dHQ7c3Ryb2tlLWxpbmVqb2luOm1pdGVyO3N0cm9rZS1taXRlcmxpbWl0OjQ7c3Ryb2tlLWRhc2hhcnJheTpub25lO3N0cm9rZS1vcGFjaXR5OjEiIGlkPSJwYXRoMjgiLz48cGF0aCBkPSJNIDM5My41NzQsMTIxLjI3MyBWIDk0LjAyMzQgbCAtNy4wNTEsLTYuMTI4OSBjIDAsMCAtMTYuNTQzLC00Ljg5ODQgLTEyLjg3MSwtMTQuNjk1MyBMIDI5OS44NjMsNC41ODk4NCBWIDM0LjYwOTQgbCA5My43MTEsODYuNjYzNiIgc3R5bGU9ImZpbGw6IzAyNzA5ZjtmaWxsLW9wYWNpdHk6MTtmaWxsLXJ1bGU6bm9uemVybztzdHJva2U6bm9uZSIgaWQ9InBhdGgzMCIvPjxwYXRoIGQ9Ik0gMzkzLjU3NCwxMjEuMjczIFYgOTQuMDIzNCBsIC03LjA1MSwtNi4xMjg5IGMgMCwwIC0xNi41NDMsLTQuODk4NCAtMTIuODcxLC0xNC42OTUzIEwgMjk5Ljg2Myw0LjU4OTg0IFYgMzQuNjA5NCBaIiBzdHlsZT0iZmlsbDpub25lO3N0cm9rZTojZmZmZmZmO3N0cm9rZS13aWR0aDozLjk5OTkzOTkyO3N0cm9rZS1saW5lY2FwOmJ1dHQ7c3Ryb2tlLWxpbmVqb2luOm1pdGVyO3N0cm9rZS1taXRlcmxpbWl0OjQ7c3Ryb2tlLWRhc2hhcnJheTpub25lO3N0cm9rZS1vcGFjaXR5OjEiIGlkPSJwYXRoMzIiLz48cGF0aCBkPSJtIDYuMTc1NzgsNC41ODk4NCBoIDI5My42ODggdiAzMC4wMTk1IEggNi4xNzU3OCBaIiBzdHlsZT0iZmlsbDojMDI3MDlmO2ZpbGwtb3BhY2l0eToxO2ZpbGwtcnVsZTpub256ZXJvO3N0cm9rZTpub25lIiBpZD0icGF0aDM0Ii8+PHBhdGggZD0iTSA2LjE3NTc4LDM0LjYwOTQgViA0LjU4OTg0IEggMjk5Ljg2MyBWIDM0LjYwOTQgSCA2LjE3NTc4IiBzdHlsZT0iZmlsbDpub25lO3N0cm9rZTojZmZmZmZmO3N0cm9rZS13aWR0aDozLjk5OTkzOTkyO3N0cm9rZS1saW5lY2FwOmJ1dHQ7c3Ryb2tlLWxpbmVqb2luOm1pdGVyO3N0cm9rZS1taXRlcmxpbWl0OjQ7c3Ryb2tlLWRhc2hhcnJheTpub25lO3N0cm9rZS1vcGFjaXR5OjEiIGlkPSJwYXRoMzYiLz48cGF0aCBkPSJtIDEyMy40NjEsMTE5LjQzOCAyNzAuMTEzLDEuODM1IC05My43MTEsLTg2LjY2MzYgSCA2LjE3NTc4IEwgMTIzLjQ2MSwxMTkuNDM4IiBzdHlsZT0iZmlsbDojMDI3MDlmO2ZpbGwtb3BhY2l0eToxO2ZpbGwtcnVsZTpub256ZXJvO3N0cm9rZTpub25lIiBpZD0icGF0aDM4Ii8+PHBhdGggZD0ibSAxMjMuNDYxLDExOS40MzggMjcwLjExMywxLjgzNSAtOTMuNzExLC04Ni42NjM2IEggNi4xNzU3OCBaIiBzdHlsZT0iZmlsbDpub25lO3N0cm9rZTojZmZmZmZmO3N0cm9rZS13aWR0aDozLjk5OTkzOTkyO3N0cm9rZS1saW5lY2FwOmJ1dHQ7c3Ryb2tlLWxpbmVqb2luOm1pdGVyO3N0cm9rZS1taXRlcmxpbWl0OjQ7c3Ryb2tlLWRhc2hhcnJheTpub25lO3N0cm9rZS1vcGFjaXR5OjEiIGlkPSJwYXRoNDAiLz48cGF0aCBkPSJtIDM5MS4xMTMsMTMzLjgzMiAzMC42MjUsMTU5Ljg2MyBIIDE1NS4zMTYgTCAxMjAuMzk1LDEzMy44MzIgaCAyNzAuNzE4IiBzdHlsZT0iZmlsbDojMDI3MDlmO2ZpbGwtb3BhY2l0eToxO2ZpbGwtcnVsZTpub256ZXJvO3N0cm9rZTpub25lIiBpZD0icGF0aDQyIi8+PHBhdGggZD0ibSAzOTEuMTEzLDEzMy44MzIgMzAuNjI1LDE1OS44NjMgSCAxNTUuMzE2IEwgMTIwLjM5NSwxMzMuODMyIFoiIHN0eWxlPSJmaWxsOm5vbmU7c3Ryb2tlOiNmZmZmZmY7c3Ryb2tlLXdpZHRoOjMuOTk5OTM5OTI7c3Ryb2tlLWxpbmVjYXA6YnV0dDtzdHJva2UtbGluZWpvaW46bWl0ZXI7c3Ryb2tlLW1pdGVybGltaXQ6NDtzdHJva2UtZGFzaGFycmF5Om5vbmU7c3Ryb2tlLW9wYWNpdHk6MSIgaWQ9InBhdGg0NCIvPjxwYXRoIGQ9Ik0gMzY4LjUxNiwxNTEuNzE5IDM5Mi4wOSwyNzEuNzcgSCAxNzUuNDUzIEwgMTUxLjg3OSwxNTEuNzE5IGggMjE2LjYzNyIgc3R5bGU9ImZpbGw6IzAyNzA5ZjtmaWxsLW9wYWNpdHk6MTtmaWxsLXJ1bGU6bm9uemVybztzdHJva2U6bm9uZSIgaWQ9InBhdGg0NiIvPjxwYXRoIGQ9Ik0gMzY4LjUxNiwxNTEuNzE5IDM5Mi4wOSwyNzEuNzcgSCAxNzUuNDUzIEwgMTUxLjg3OSwxNTEuNzE5IFoiIHN0eWxlPSJmaWxsOm5vbmU7c3Ryb2tlOiNmZmZmZmY7c3Ryb2tlLXdpZHRoOjMuOTk5OTM5OTI7c3Ryb2tlLWxpbmVjYXA6YnV0dDtzdHJva2UtbGluZWpvaW46bWl0ZXI7c3Ryb2tlLW1pdGVybGltaXQ6NDtzdHJva2UtZGFzaGFycmF5Om5vbmU7c3Ryb2tlLW9wYWNpdHk6MSIgaWQ9InBhdGg0OCIvPjxwYXRoIGQ9Ik0gMTI5LjgwOSwxMTcuNTE2IDYxLjY4MzYsNjIuNTExNyIgc3R5bGU9ImZpbGw6bm9uZTtzdHJva2U6I2ZmZmZmZjtzdHJva2Utd2lkdGg6MS4wMDAwNTk5NjtzdHJva2UtbGluZWNhcDpidXR0O3N0cm9rZS1saW5lam9pbjpyb3VuZDtzdHJva2UtbWl0ZXJsaW1pdDo0O3N0cm9rZS1kYXNoYXJyYXk6bm9uZTtzdHJva2Utb3BhY2l0eToxIiBpZD0icGF0aDUwIi8+PHBhdGggZD0iTSAxNTEuNjg0LDExNy41MTYgODMuNTU4Niw2Mi41MTE3IiBzdHlsZT0iZmlsbDpub25lO3N0cm9rZTojZmZmZmZmO3N0cm9rZS13aWR0aDoxLjAwMDA1OTk2O3N0cm9rZS1saW5lY2FwOmJ1dHQ7c3Ryb2tlLWxpbmVqb2luOnJvdW5kO3N0cm9rZS1taXRlcmxpbWl0OjQ7c3Ryb2tlLWRhc2hhcnJheTpub25lO3N0cm9rZS1vcGFjaXR5OjEiIGlkPSJwYXRoNTIiLz48cGF0aCBkPSJNIDE3My41NTksMTE3LjUxNiAxMDUuNDM0LDYyLjUxMTciIHN0eWxlPSJmaWxsOm5vbmU7c3Ryb2tlOiNmZmZmZmY7c3Ryb2tlLXdpZHRoOjEuMDAwMDU5OTY7c3Ryb2tlLWxpbmVjYXA6YnV0dDtzdHJva2UtbGluZWpvaW46cm91bmQ7c3Ryb2tlLW1pdGVybGltaXQ6NDtzdHJva2UtZGFzaGFycmF5Om5vbmU7c3Ryb2tlLW9wYWNpdHk6MSIgaWQ9InBhdGg1NCIvPjxwYXRoIGQ9Ik0gMTk1LjQzNCwxMTcuNTE2IDEyNy4zMDksNjIuNTExNyIgc3R5bGU9ImZpbGw6bm9uZTtzdHJva2U6I2ZmZmZmZjtzdHJva2Utd2lkdGg6MS4wMDAwNTk5NjtzdHJva2UtbGluZWNhcDpidXR0O3N0cm9rZS1saW5lam9pbjpyb3VuZDtzdHJva2UtbWl0ZXJsaW1pdDo0O3N0cm9rZS1kYXNoYXJyYXk6bm9uZTtzdHJva2Utb3BhY2l0eToxIiBpZD0icGF0aDU2Ii8+PHBhdGggZD0iTSAyMTcuMzA1LDExNy41MTYgMTQ5LjE4NCw2Mi41MTE3IiBzdHlsZT0iZmlsbDpub25lO3N0cm9rZTojZmZmZmZmO3N0cm9rZS13aWR0aDoxLjAwMDA1OTk2O3N0cm9rZS1saW5lY2FwOmJ1dHQ7c3Ryb2tlLWxpbmVqb2luOnJvdW5kO3N0cm9rZS1taXRlcmxpbWl0OjQ7c3Ryb2tlLWRhc2hhcnJheTpub25lO3N0cm9rZS1vcGFjaXR5OjEiIGlkPSJwYXRoNTgiLz48cGF0aCBkPSJNIDIzOS4xOCwxMTcuNTE2IDE3MS4wNTksNjIuNTExNyIgc3R5bGU9ImZpbGw6bm9uZTtzdHJva2U6I2ZmZmZmZjtzdHJva2Utd2lkdGg6MS4wMDAwNTk5NjtzdHJva2UtbGluZWNhcDpidXR0O3N0cm9rZS1saW5lam9pbjpyb3VuZDtzdHJva2UtbWl0ZXJsaW1pdDo0O3N0cm9rZS1kYXNoYXJyYXk6bm9uZTtzdHJva2Utb3BhY2l0eToxIiBpZD0icGF0aDYwIi8+PHBhdGggZD0iTSAyNjEuMDU1LDExNy41MTYgMTkyLjkzNCw2Mi41MTE3IiBzdHlsZT0iZmlsbDpub25lO3N0cm9rZTojZmZmZmZmO3N0cm9rZS13aWR0aDoxLjAwMDA1OTk2O3N0cm9rZS1saW5lY2FwOmJ1dHQ7c3Ryb2tlLWxpbmVqb2luOnJvdW5kO3N0cm9rZS1taXRlcmxpbWl0OjQ7c3Ryb2tlLWRhc2hhcnJheTpub25lO3N0cm9rZS1vcGFjaXR5OjEiIGlkPSJwYXRoNjIiLz48cGF0aCBkPSJNIDI4Mi45MywxMTcuNTE2IDIxNC44MDUsNjIuNTExNyIgc3R5bGU9ImZpbGw6bm9uZTtzdHJva2U6I2ZmZmZmZjtzdHJva2Utd2lkdGg6MS4wMDAwNTk5NjtzdHJva2UtbGluZWNhcDpidXR0O3N0cm9rZS1saW5lam9pbjpyb3VuZDtzdHJva2UtbWl0ZXJsaW1pdDo0O3N0cm9rZS1kYXNoYXJyYXk6bm9uZTtzdHJva2Utb3BhY2l0eToxIiBpZD0icGF0aDY0Ii8+PHBhdGggZD0iTSAzMDQuODA1LDExNy41MTYgMjM2LjY4LDYyLjUxMTciIHN0eWxlPSJmaWxsOm5vbmU7c3Ryb2tlOiNmZmZmZmY7c3Ryb2tlLXdpZHRoOjEuMDAwMDU5OTY7c3Ryb2tlLWxpbmVjYXA6YnV0dDtzdHJva2UtbGluZWpvaW46cm91bmQ7c3Ryb2tlLW1pdGVybGltaXQ6NDtzdHJva2UtZGFzaGFycmF5Om5vbmU7c3Ryb2tlLW9wYWNpdHk6MSIgaWQ9InBhdGg2NiIvPjxwYXRoIGQ9Ik0gMzI2LjY4LDExNy41MTYgMjU4LjU1NSw2Mi41MTE3IiBzdHlsZT0iZmlsbDpub25lO3N0cm9rZTojZmZmZmZmO3N0cm9rZS13aWR0aDoxLjAwMDA1OTk2O3N0cm9rZS1saW5lY2FwOmJ1dHQ7c3Ryb2tlLWxpbmVqb2luOnJvdW5kO3N0cm9rZS1taXRlcmxpbWl0OjQ7c3Ryb2tlLWRhc2hhcnJheTpub25lO3N0cm9rZS1vcGFjaXR5OjEiIGlkPSJwYXRoNjgiLz48cGF0aCBkPSJNIDM0OC41NTUsMTE3LjUxNiAyODAuNDMsNjIuNTExNyIgc3R5bGU9ImZpbGw6bm9uZTtzdHJva2U6I2ZmZmZmZjtzdHJva2Utd2lkdGg6MS4wMDAwNTk5NjtzdHJva2UtbGluZWNhcDpidXR0O3N0cm9rZS1saW5lam9pbjpyb3VuZDtzdHJva2UtbWl0ZXJsaW1pdDo0O3N0cm9rZS1kYXNoYXJyYXk6bm9uZTtzdHJva2Utb3BhY2l0eToxIiBpZD0icGF0aDcwIi8+PHBhdGggZD0iTSAzNzAuNDMsMTE3LjUxNiAzMDIuMzA1LDYyLjUxMTciIHN0eWxlPSJmaWxsOm5vbmU7c3Ryb2tlOiNmZmZmZmY7c3Ryb2tlLXdpZHRoOjEuMDAwMDU5OTY7c3Ryb2tlLWxpbmVjYXA6YnV0dDtzdHJva2UtbGluZWpvaW46cm91bmQ7c3Ryb2tlLW1pdGVybGltaXQ6NDtzdHJva2UtZGFzaGFycmF5Om5vbmU7c3Ryb2tlLW9wYWNpdHk6MSIgaWQ9InBhdGg3MiIvPjxwYXRoIGQ9Ik0gNjkuMzAwOCw2OC4zMTI1IEggMzExLjgxNiIgc3R5bGU9ImZpbGw6bm9uZTtzdHJva2U6I2ZmZmZmZjtzdHJva2Utd2lkdGg6MS4wMDAwNTk5NjtzdHJva2UtbGluZWNhcDpidXR0O3N0cm9rZS1saW5lam9pbjpyb3VuZDtzdHJva2UtbWl0ZXJsaW1pdDo0O3N0cm9rZS1kYXNoYXJyYXk6bm9uZTtzdHJva2Utb3BhY2l0eToxIiBpZD0icGF0aDc0Ii8+PHBhdGggZD0iTSA4NS42MDk0LDgwLjkxOCBIIDMyNC4zNzUiIHN0eWxlPSJmaWxsOm5vbmU7c3Ryb2tlOiNmZmZmZmY7c3Ryb2tlLXdpZHRoOjEuMDAwMDU5OTY7c3Ryb2tlLWxpbmVjYXA6YnV0dDtzdHJva2UtbGluZWpvaW46cm91bmQ7c3Ryb2tlLW1pdGVybGltaXQ6NDtzdHJva2UtZGFzaGFycmF5Om5vbmU7c3Ryb2tlLW9wYWNpdHk6MSIgaWQ9InBhdGg3NiIvPjxwYXRoIGQ9Ik0gMTAyLjUyMyw5My41MTk1IEggMzQwLjY2NCIgc3R5bGU9ImZpbGw6bm9uZTtzdHJva2U6I2ZmZmZmZjtzdHJva2Utd2lkdGg6MS4wMDAwNTk5NjtzdHJva2UtbGluZWNhcDpidXR0O3N0cm9rZS1saW5lam9pbjpyb3VuZDtzdHJva2UtbWl0ZXJsaW1pdDo0O3N0cm9rZS1kYXNoYXJyYXk6bm9uZTtzdHJva2Utb3BhY2l0eToxIiBpZD0icGF0aDc4Ii8+PHBhdGggZD0iTSAxMTcuNTgyLDEwNi4xMjkgSCAzNTcuNTk4IiBzdHlsZT0iZmlsbDpub25lO3N0cm9rZTojZmZmZmZmO3N0cm9rZS13aWR0aDoxLjAwMDA1OTk2O3N0cm9rZS1saW5lY2FwOmJ1dHQ7c3Ryb2tlLWxpbmVqb2luOnJvdW5kO3N0cm9rZS1taXRlcmxpbWl0OjQ7c3Ryb2tlLWRhc2hhcnJheTpub25lO3N0cm9rZS1vcGFjaXR5OjEiIGlkPSJwYXRoODAiLz48L2c+PC9nPjwvZz48L2c+PC9zdmc+;fillColor=#A8DADC;strokeColor=#457B9D;fontColor=#1D3557;" vertex="1" parent="1">
          <mxGeometry x="130" y="370" width="58" height="40" as="geometry" />
        </mxCell>
        <mxCell id="MO61QK-5C1BGWu0sTS1N-33" style="edgeStyle=orthogonalEdgeStyle;rounded=0;orthogonalLoop=1;jettySize=auto;html=1;entryX=1;entryY=0.5;entryDx=0;entryDy=0;endArrow=none;endFill=0;labelBackgroundColor=none;strokeColor=#457B9D;fontColor=default;" edge="1" parent="1" source="MO61QK-5C1BGWu0sTS1N-27" target="MO61QK-5C1BGWu0sTS1N-32">
          <mxGeometry relative="1" as="geometry">
            <mxPoint x="200" y="266.5" as="targetPoint" />
          </mxGeometry>
        </mxCell>
        <mxCell id="MO61QK-5C1BGWu0sTS1N-27" value="" style="shape=image;verticalLabelPosition=bottom;labelBackgroundColor=none;verticalAlign=top;aspect=fixed;imageAspect=0;image=data:image/svg+xml,PHN2ZyB4bWxucz0iaHR0cDovL3d3dy53My5vcmcvMjAwMC9zdmciIHZlcnNpb249IjEuMSIgaWQ9InN2ZzIiIHhtbDpzcGFjZT0icHJlc2VydmUiIHdpZHRoPSI2NS4wODAwMDIiIGhlaWdodD0iMzIuNzQ2NjY2IiB2aWV3Qm94PSIwIDAgNjUuMDgwMDAyIDMyLjc0NjY2NiI+PG1ldGFkYXRhIGlkPSJtZXRhZGF0YTgiPmltYWdlL3N2Zyt4bWw8L21ldGFkYXRhPjxkZWZzIGlkPSJkZWZzNiIvPjxnIGlkPSJnMTAiIHRyYW5zZm9ybT0ibWF0cml4KDEuMzMzMzMzMywwLDAsLTEuMzMzMzMzMywwLDMyLjc0NjY2NykiPjxnIGlkPSJnMTIiIHRyYW5zZm9ybT0ic2NhbGUoMC4xKSI+PHBhdGggZD0ibSA2LjU4MjAzLDguNzU3ODEgaCAzNTcuMTg0IHYgMTE1Ljk1NyBIIDYuNTgyMDMgWiIgc3R5bGU9ImZpbGw6IzAzNjk5ODtmaWxsLW9wYWNpdHk6MTtmaWxsLXJ1bGU6bm9uemVybztzdHJva2U6bm9uZSIgaWQ9InBhdGgxNCIvPjxwYXRoIGQ9Ik0gMzYzLjc2Niw4Ljc1NzgxIFYgMTI0LjcxNSBIIDYuNTgyMDMgViA4Ljc1NzgxIFoiIHN0eWxlPSJmaWxsOm5vbmU7c3Ryb2tlOiNmZmZmZmY7c3Ryb2tlLXdpZHRoOjMuOTk5OTM5OTI7c3Ryb2tlLWxpbmVjYXA6YnV0dDtzdHJva2UtbGluZWpvaW46bWl0ZXI7c3Ryb2tlLW1pdGVybGltaXQ6NDtzdHJva2UtZGFzaGFycmF5Om5vbmU7c3Ryb2tlLW9wYWNpdHk6MSIgaWQ9InBhdGgxNiIvPjxwYXRoIGQ9Ik0gNS42NDQ1MywxMjQuMTMzIDE0OS45MjIsMjQxLjA2MyBIIDQ4My4yMTkgTCAzNjMuNDM0LDEyNC4xMzMgSCA1LjY0NDUzIiBzdHlsZT0iZmlsbDojMDM2OTk4O2ZpbGwtb3BhY2l0eToxO2ZpbGwtcnVsZTpub256ZXJvO3N0cm9rZTpub25lIiBpZD0icGF0aDE4Ii8+PHBhdGggZD0iTSA1LjY0NDUzLDEyNC4xMzMgMTQ5LjkyMiwyNDEuMDYzIEggNDgzLjIxOSBMIDM2My40MzQsMTI0LjEzMyBaIiBzdHlsZT0iZmlsbDpub25lO3N0cm9rZTojZmZmZmZmO3N0cm9rZS13aWR0aDozLjk5OTkzOTkyO3N0cm9rZS1saW5lY2FwOmJ1dHQ7c3Ryb2tlLWxpbmVqb2luOm1pdGVyO3N0cm9rZS1taXRlcmxpbWl0OjQ7c3Ryb2tlLWRhc2hhcnJheTpub25lO3N0cm9rZS1vcGFjaXR5OjEiIGlkPSJwYXRoMjAiLz48cGF0aCBkPSJNIDM2My41Nyw1LjEwNTQ3IDQ4Mi44ODcsMTM0LjAyMyA0ODIuOTY1LDI0MC44NTkgMzYzLjU3LDEyNC4yOTcgViA1LjEwNTQ3IiBzdHlsZT0iZmlsbDojMDM2OTk4O2ZpbGwtb3BhY2l0eToxO2ZpbGwtcnVsZTpub256ZXJvO3N0cm9rZTpub25lIiBpZD0icGF0aDIyIi8+PHBhdGggZD0iTSAzNjMuNTcsNS4xMDU0NyA0ODIuODg3LDEzNC4wMjMgNDgyLjk2NSwyNDAuODU5IDM2My41NywxMjQuMjk3IFoiIHN0eWxlPSJmaWxsOm5vbmU7c3Ryb2tlOiNmZmZmZmY7c3Ryb2tlLXdpZHRoOjMuOTk5OTM5OTI7c3Ryb2tlLWxpbmVjYXA6YnV0dDtzdHJva2UtbGluZWpvaW46bWl0ZXI7c3Ryb2tlLW1pdGVybGltaXQ6NDtzdHJva2UtZGFzaGFycmF5Om5vbmU7c3Ryb2tlLW9wYWNpdHk6MSIgaWQ9InBhdGgyNCIvPjxwYXRoIGQ9Im0gMjE1LjAxNiwxNTQuNTUxIC02LjkzNCwtNS42ODQgaCAtODkuMDc4IGwgLTguODg3LC04Ljg3OSAtMjQuMTQwNCwxMC41MiA0OC41NTQ0LDEzLjg4NyAtOC41OTMsLTkuODQ0IGggODkuMDc4IiBzdHlsZT0iZmlsbDojZmZmZmZmO2ZpbGwtb3BhY2l0eToxO2ZpbGwtcnVsZTpub256ZXJvO3N0cm9rZTpub25lIiBpZD0icGF0aDI2Ii8+PHBhdGggZD0ibSAyODUuMDE2LDE5OC4zMDEgLTYuOTM0LC01LjY4NCBoIC04OS4wNzggbCAtOC44ODcsLTguODc5IC0yNC4xNCwxMC41MiA0OC41NTQsMTMuODg3IC04LjU5MywtOS44NDQgaCA4OS4wNzgiIHN0eWxlPSJmaWxsOiNmZmZmZmY7ZmlsbC1vcGFjaXR5OjE7ZmlsbC1ydWxlOm5vbnplcm87c3Ryb2tlOm5vbmUiIGlkPSJwYXRoMjgiLz48cGF0aCBkPSJtIDIzMC43MzgsMTcwLjAwOCA2LjkxNCw1LjY4MyBoIDg5LjEwMiBsIDguODg3LDguODc5IDI0LjE0LC0xMC41MTkgLTQ4LjU1NCwtMTMuODg3IDguNTkzLDkuODQ0IGggLTg5LjA4MiIgc3R5bGU9ImZpbGw6I2ZmZmZmZjtmaWxsLW9wYWNpdHk6MTtmaWxsLXJ1bGU6bm9uemVybztzdHJva2U6bm9uZSIgaWQ9InBhdGgzMCIvPjxwYXRoIGQ9Im0gMjc2Ljk4OCwyMTMuNzU4IDYuOTE0LDUuNjgzIGggODkuMTAyIGwgOC44ODcsOC44NzkgMjQuMTQsLTEwLjUxOSAtNDguNTU0LC0xMy44ODcgOC41OTMsOS44NDQgaCAtODkuMDgyIiBzdHlsZT0iZmlsbDojZmZmZmZmO2ZpbGwtb3BhY2l0eToxO2ZpbGwtcnVsZTpub256ZXJvO3N0cm9rZTpub25lIiBpZD0icGF0aDMyIi8+PC9nPjwvZz48L3N2Zz4=;fillColor=#A8DADC;strokeColor=#457B9D;fontColor=#1D3557;" vertex="1" parent="1">
          <mxGeometry x="280" y="250" width="65" height="33" as="geometry" />
        </mxCell>
        <mxCell id="MO61QK-5C1BGWu0sTS1N-32" value="" style="shape=image;verticalLabelPosition=bottom;labelBackgroundColor=none;verticalAlign=top;aspect=fixed;imageAspect=0;image=data:image/svg+xml,PHN2ZyB4bWxucz0iaHR0cDovL3d3dy53My5vcmcvMjAwMC9zdmciIHZlcnNpb249IjEuMSIgaWQ9InN2ZzIiIHhtbDpzcGFjZT0icHJlc2VydmUiIHdpZHRoPSI0OS41NDY2NjUiIGhlaWdodD0iMzMuNTczMzM0IiB2aWV3Qm94PSIwIDAgNDkuNTQ2NjY1IDMzLjU3MzMzNCI+PG1ldGFkYXRhIGlkPSJtZXRhZGF0YTgiPmltYWdlL3N2Zyt4bWw8L21ldGFkYXRhPjxkZWZzIGlkPSJkZWZzNiI+PGNsaXBQYXRoIGNsaXBQYXRoVW5pdHM9InVzZXJTcGFjZU9uVXNlIiBpZD0iY2xpcFBhdGgyMCI+PHBhdGggZD0ibSAwLDEuNzk2ODggaCAzNzAgdiAyNTAgSCAwIFoiIGlkPSJwYXRoMTgiLz48L2NsaXBQYXRoPjwvZGVmcz48ZyBpZD0iZzEwIiB0cmFuc2Zvcm09Im1hdHJpeCgxLjMzMzMzMzMsMCwwLC0xLjMzMzMzMzMsMCwzMy41NzMzMzMpIj48ZyBpZD0iZzEyIiB0cmFuc2Zvcm09InNjYWxlKDAuMSkiPjxnIGlkPSJnMTQiPjxnIGlkPSJnMTYiIGNsaXAtcGF0aD0idXJsKCNjbGlwUGF0aDIwKSI+PHBhdGggZD0ibSAzNjkuODU1LDE3OC4yODEgYyAwLC0zOS41MDQgLTgyLjM0MywtNzEuNTIzIC0xODMuOTI1LC03MS41MjMgQyA4NC4zNDc3LDEwNi43NTggMiwxMzguNzc3IDIsMTc4LjI4MSBWIDczLjUxNTYgYyAwLC0zOS41IDgyLjM0NzcsLTcxLjUyMzQxIDE4My45MywtNzEuNTIzNDEgMTAxLjU4MiwwIDE4My45MjUsMzIuMDIzNDEgMTgzLjkyNSw3MS41MjM0MSBWIDE3OC4yODEiIHN0eWxlPSJmaWxsOiMwMjZjOWI7ZmlsbC1vcGFjaXR5OjE7ZmlsbC1ydWxlOm5vbnplcm87c3Ryb2tlOm5vbmUiIGlkPSJwYXRoMjIiLz48cGF0aCBkPSJtIDM2OS44NTUsMTc4LjI4MSBjIDAsLTM5LjUwNCAtODIuMzQzLC03MS41MjMgLTE4My45MjUsLTcxLjUyMyBDIDg0LjM0NzcsMTA2Ljc1OCAyLDEzOC43NzcgMiwxNzguMjgxIFYgNzMuNTE1NiBjIDAsLTM5LjUgODIuMzQ3NywtNzEuNTIzNDEgMTgzLjkzLC03MS41MjM0MSAxMDEuNTgyLDAgMTgzLjkyNSwzMi4wMjM0MSAxODMuOTI1LDcxLjUyMzQxIHoiIHN0eWxlPSJmaWxsOm5vbmU7c3Ryb2tlOiNmZmZmZmY7c3Ryb2tlLXdpZHRoOjQ7c3Ryb2tlLWxpbmVjYXA6YnV0dDtzdHJva2UtbGluZWpvaW46bWl0ZXI7c3Ryb2tlLW1pdGVybGltaXQ6NDtzdHJva2UtZGFzaGFycmF5Om5vbmU7c3Ryb2tlLW9wYWNpdHk6MSIgaWQ9InBhdGgyNCIvPjxwYXRoIGQ9Im0gMTg1LjkzLDEwNi43NTggYyAxMDEuNTgyLDAgMTgzLjkyNSwzMi4wMTkgMTgzLjkyNSw3MS41MjMgMCwzOS41MTIgLTgyLjM0Myw3MS41MjQgLTE4My45MjUsNzEuNTI0IEMgODQuMzQ3NywyNDkuODA1IDIsMjE3Ljc5MyAyLDE3OC4yODEgMiwxMzguNzc3IDg0LjM0NzcsMTA2Ljc1OCAxODUuOTMsMTA2Ljc1OCIgc3R5bGU9ImZpbGw6IzAyNmM5YjtmaWxsLW9wYWNpdHk6MTtmaWxsLXJ1bGU6bm9uemVybztzdHJva2U6bm9uZSIgaWQ9InBhdGgyNiIvPjxwYXRoIGQ9Im0gMTg1LjkzLDEwNi43NTggYyAxMDEuNTgyLDAgMTgzLjkyNSwzMi4wMTkgMTgzLjkyNSw3MS41MjMgMCwzOS41MTIgLTgyLjM0Myw3MS41MjQgLTE4My45MjUsNzEuNTI0IEMgODQuMzQ3NywyNDkuODA1IDIsMjE3Ljc5MyAyLDE3OC4yODEgMiwxMzguNzc3IDg0LjM0NzcsMTA2Ljc1OCAxODUuOTMsMTA2Ljc1OCBaIiBzdHlsZT0iZmlsbDpub25lO3N0cm9rZTojZmZmZmZmO3N0cm9rZS13aWR0aDo0O3N0cm9rZS1saW5lY2FwOmJ1dHQ7c3Ryb2tlLWxpbmVqb2luOm1pdGVyO3N0cm9rZS1taXRlcmxpbWl0OjQ7c3Ryb2tlLWRhc2hhcnJheTpub25lO3N0cm9rZS1vcGFjaXR5OjEiIGlkPSJwYXRoMjgiLz48cGF0aCBkPSJtIDE0My45MjYsMjA2LjI1IDE1LjE4MywtMjIuNzgxIC01Ny40MjEsLTEzLjI3NCAxMi41NSwxMC40NSAtODguNzQ5NywxNS4xNjggMjIuMjY1NiwxNi42ODcgODUuNjM3MSwtMTQuNSAxMC41MzUsOC4yNSIgc3R5bGU9ImZpbGw6I2ZmZmZmZjtmaWxsLW9wYWNpdHk6MTtmaWxsLXJ1bGU6bm9uemVybztzdHJva2U6bm9uZSIgaWQ9InBhdGgzMCIvPjxwYXRoIGQ9Im0gMjI0LjcyNywxNTEuMDA4IC0xMC4zNjQsMjMuNDg0IDUxLjc5NywxMC4zNTIgLTguOTgsLTguMDQ3IDg2LjMyOCwtMTQuNzQ2IC0yMC43MTUsLTE2LjU3MSAtODUuODEzLDE2LjExNCAtMTIuMjUzLC0xMC41ODYiIHN0eWxlPSJmaWxsOiNmZmZmZmY7ZmlsbC1vcGFjaXR5OjE7ZmlsbC1ydWxlOm5vbnplcm87c3Ryb2tlOm5vbmUiIGlkPSJwYXRoMzIiLz48cGF0aCBkPSJtIDE5Ni40MDYsMjE4LjY5MSA1OC4wMiwxNS44NzkgMC42NzksLTI0Ljg2MyAtMTQuNSwyLjc2NiAtMjguMzA4LC0yMy40ODkgLTI3LjAyNCwzLjk0NiAyOS4yMzEsMjIuOTY4IC0xOC4wOTgsMi43OTMiIHN0eWxlPSJmaWxsOiNmZmZmZmY7ZmlsbC1vcGFjaXR5OjE7ZmlsbC1ydWxlOm5vbnplcm87c3Ryb2tlOm5vbmUiIGlkPSJwYXRoMzQiLz48cGF0aCBkPSJtIDE3MS41NDMsMTI5LjU5IC01NS4yNDIsLTEwLjM1MiAtMi4wNzEsMjUuNTQ3IDE1Ljg3NSwtMy40NDUgMzAuNDE1LDI1Ljk2NSAyNi45MTQsLTQuNTUxIC0zMi40NjEsLTI4LjMyIDE2LjU3LC00Ljg0NCIgc3R5bGU9ImZpbGw6I2ZmZmZmZjtmaWxsLW9wYWNpdHk6MTtmaWxsLXJ1bGU6bm9uemVybztzdHJva2U6bm9uZSIgaWQ9InBhdGgzNiIvPjwvZz48L2c+PC9nPjwvZz48L3N2Zz4=;fillColor=#A8DADC;strokeColor=#457B9D;fontColor=#1D3557;" vertex="1" parent="1">
          <mxGeometry x="170" y="250" width="50" height="34" as="geometry" />
        </mxCell>
        <mxCell id="MO61QK-5C1BGWu0sTS1N-35" value="&lt;b&gt;&lt;font style=&quot;font-size: 14px;&quot;&gt;インターネット&lt;/font&gt;&lt;/b&gt;" style="ellipse;shape=cloud;whiteSpace=wrap;html=1;labelBackgroundColor=none;fillColor=#C3FDFF;strokeColor=default;fontColor=#1D3557;gradientColor=#85C7C7;gradientDirection=radial;" vertex="1" parent="1">
          <mxGeometry y="226.5" width="120" height="80" as="geometry" />
        </mxCell>
        <mxCell id="MO61QK-5C1BGWu0sTS1N-36" style="edgeStyle=orthogonalEdgeStyle;rounded=0;orthogonalLoop=1;jettySize=auto;html=1;entryX=0.942;entryY=0.506;entryDx=0;entryDy=0;entryPerimeter=0;endArrow=none;endFill=0;labelBackgroundColor=none;strokeColor=#457B9D;fontColor=default;" edge="1" parent="1" source="MO61QK-5C1BGWu0sTS1N-32" target="MO61QK-5C1BGWu0sTS1N-35">
          <mxGeometry relative="1" as="geometry" />
        </mxCell>
        <mxCell id="MO61QK-5C1BGWu0sTS1N-37" value="&lt;b&gt;VLAN構築&lt;/b&gt;" style="text;html=1;align=center;verticalAlign=middle;whiteSpace=wrap;rounded=0;fontColor=#1D3557;" vertex="1" parent="1">
          <mxGeometry x="280" y="463" width="60" height="30" as="geometry" />
        </mxCell>
        <mxCell id="MO61QK-5C1BGWu0sTS1N-38" value="&lt;b&gt;VLAN構築&lt;/b&gt;" style="text;html=1;align=center;verticalAlign=middle;whiteSpace=wrap;rounded=0;fontColor=#1D3557;" vertex="1" parent="1">
          <mxGeometry x="285" y="50" width="60" height="30" as="geometry" />
        </mxCell>
        <mxCell id="MO61QK-5C1BGWu0sTS1N-39" value="&lt;b&gt;172.31.20.0/24&lt;/b&gt;" style="text;html=1;align=center;verticalAlign=middle;whiteSpace=wrap;rounded=0;fontColor=#1D3557;" vertex="1" parent="1">
          <mxGeometry x="40" y="80" width="90" height="30" as="geometry" />
        </mxCell>
        <mxCell id="MO61QK-5C1BGWu0sTS1N-40" value="&lt;b&gt;172.31.21.0/24&lt;/b&gt;" style="text;html=1;align=center;verticalAlign=middle;whiteSpace=wrap;rounded=0;fontColor=#1D3557;" vertex="1" parent="1">
          <mxGeometry x="510" y="80" width="90" height="30" as="geometry" />
        </mxCell>
        <mxCell id="MO61QK-5C1BGWu0sTS1N-41" value="&lt;b&gt;172.31.24&lt;span style=&quot;background-color: initial;&quot;&gt;.0/24&lt;/span&gt;&lt;/b&gt;" style="text;html=1;align=center;verticalAlign=middle;whiteSpace=wrap;rounded=0;fontColor=#1D3557;" vertex="1" parent="1">
          <mxGeometry x="40" y="440" width="90" height="30" as="geometry" />
        </mxCell>
        <mxCell id="MO61QK-5C1BGWu0sTS1N-42" value="&lt;b&gt;172.31.25&lt;span style=&quot;background-color: initial;&quot;&gt;.0/24&lt;/span&gt;&lt;/b&gt;" style="text;html=1;align=center;verticalAlign=middle;whiteSpace=wrap;rounded=0;fontColor=#1D3557;" vertex="1" parent="1">
          <mxGeometry x="510" y="440" width="90" height="30" as="geometry" />
        </mxCell>
      </root>
    </mxGraphModel>
  </diagram>
</mxfile>
